SplineFontDB: 3.0
FontName: MerriweatherSans-Regular
FullName: Merriweather Sans Regular
FamilyName: Merriweather Sans
Weight: Book
Copyright: Copyright (c) 2013, Sorkin Type Co (www.sorkintype.com) with Reserved Font Name 'Merriweather'
Version: 1.003; ttfautohint (v0.93.8-669f) -l 7 -r 28 -G 0 -x 13 -w "" -W -c
ItalicAngle: 0
UnderlinePosition: -212
UnderlineWidth: 137
Ascent: 1638
Descent: 410
sfntRevision: 0x000100c5
LayerCount: 2
Layer: 0 1 "Back"  1
Layer: 1 1 "Fore"  0
XUID: [1021 631 1661839179 8586701]
FSType: 0
OS2Version: 3
OS2_WeightWidthSlopeOnly: 0
OS2_UseTypoMetrics: 1
CreationTime: 1361801100
ModificationTime: 1361884007
PfmFamily: 17
TTFWeight: 400
TTFWidth: 5
LineGap: 0
VLineGap: 0
Panose: 2 0 5 3 6 0 0 2 0 4
OS2TypoAscent: 2014
OS2TypoAOffset: 0
OS2TypoDescent: -560
OS2TypoDOffset: 0
OS2TypoLinegap: 0
OS2WinAscent: 2014
OS2WinAOffset: 0
OS2WinDescent: 560
OS2WinDOffset: 0
HheadAscent: 2014
HheadAOffset: 0
HheadDescent: -560
HheadDOffset: 0
OS2SubXSize: 1331
OS2SubYSize: 1229
OS2SubXOff: 0
OS2SubYOff: 154
OS2SupXSize: 1331
OS2SupYSize: 1229
OS2SupXOff: 0
OS2SupYOff: 717
OS2StrikeYSize: 102
OS2StrikeYPos: 512
OS2FamilyClass: 768
OS2Vendor: 'STC '
OS2CodePages: 20000093.00000000
OS2UnicodeRanges: a00000af.5000204b.00000000.00000000
Lookup: 1 0 0 "'aalt' Access All Alternates in Latin lookup 0"  {"'aalt' Access All Alternates in Latin lookup 0 subtable"  } ['aalt' ('DFLT' <'dflt' > 'latn' <'AZE ' 'CRT ' 'MOL ' 'ROM ' 'TRK ' 'dflt' > ) ]
Lookup: 3 0 0 "'aalt' Access All Alternates in Latin lookup 1"  {"'aalt' Access All Alternates in Latin lookup 1 subtable"  } ['aalt' ('DFLT' <'dflt' > 'latn' <'AZE ' 'CRT ' 'MOL ' 'ROM ' 'TRK ' 'dflt' > ) ]
Lookup: 1 0 0 "'locl' Localized Forms lookup 2"  {"'locl' Localized Forms lookup 2 subtable"  } ['locl' ('DFLT' <'AZE ' > ) ]
Lookup: 1 0 0 "'locl' Localized Forms lookup 3"  {"'locl' Localized Forms lookup 3 subtable"  } ['locl' ('DFLT' <'TRK ' > ) ]

StartChar: .notdef
Encoding: 65536 -1 0
Width: 1872
Flags: W
LayerCount: 2
Fore
SplineSet
228 1416 m 1,0,-1
 1644 1416 l 1,1,-1
 1644 0 l 1,2,-1
 228 0 l 1,3,-1
 228 1416 l 1,0,-1
586 219 m 1,4,-1
 933 587 l 1,5,-1
 1295 219 l 1,6,-1
 1417 341 l 1,7,-1
 1054 709 l 1,8,-1
 1417 1067 l 1,9,-1
 1289 1191 l 1,10,-1
 937 825 l 1,11,-1
 580 1193 l 1,12,-1
 457 1068 l 1,13,-1
 816 705 l 1,14,-1
 458 363 l 1,15,-1
 586 219 l 1,4,-1
EndSplineSet
EndChar

StartChar: exclam
Encoding: 33 33 25
Width: 602
GlyphClass: 2
Flags: W
LayerCount: 2
Fore
SplineSet
182 1780 m 1,0,-1
 430 1780 l 1,1,-1
 406 506 l 1,2,-1
 210 506 l 1,3,-1
 182 1780 l 1,0,-1
192 21 m 0,4,5
 172 41 172 41 159.5 70 c 128,-1,6
 147 99 147 99 147 133.5 c 128,-1,7
 147 168 147 168 160 198.5 c 128,-1,8
 173 229 173 229 196 252 c 0,9,10
 245 304 245 304 294 304 c 128,-1,11
 343 304 343 304 370 292 c 128,-1,12
 397 280 397 280 416 259 c 0,13,14
 455 214 455 214 455 164 c 128,-1,15
 455 114 455 114 442 83 c 128,-1,16
 429 52 429 52 406 28 c 0,17,18
 358 -22 358 -22 293 -22 c 0,19,20
 235 -22 235 -22 192 21 c 0,4,5
EndSplineSet
EndChar

StartChar: numbersign
Encoding: 35 35 27
Width: 1563
GlyphClass: 2
Flags: W
LayerCount: 2
Fore
SplineSet
409 355 m 1,0,-1
 207 355 l 1,1,-1
 207 511 l 1,2,-1
 423 511 l 1,3,-1
 456 880 l 1,4,-1
 241 880 l 1,5,-1
 241 1033 l 1,6,-1
 470 1033 l 1,7,-1
 501 1373 l 1,8,-1
 692 1373 l 1,9,-1
 660 1033 l 1,10,-1
 967 1033 l 1,11,-1
 997 1373 l 1,12,-1
 1187 1373 l 1,13,-1
 1156 1033 l 1,14,-1
 1378 1033 l 1,15,-1
 1378 880 l 1,16,-1
 1142 880 l 1,17,-1
 1108 511 l 1,18,-1
 1334 511 l 1,19,-1
 1334 355 l 1,20,-1
 1093 355 l 1,21,-1
 1061 0 l 1,22,-1
 876 0 l 1,23,-1
 907 355 l 1,24,-1
 597 355 l 1,25,-1
 564 0 l 1,26,-1
 377 0 l 1,27,-1
 409 355 l 1,0,-1
921 511 m 1,28,-1
 953 880 l 1,29,-1
 646 880 l 1,30,-1
 611 511 l 1,31,-1
 921 511 l 1,28,-1
EndSplineSet
EndChar

StartChar: dollar
Encoding: 36 36 28
Width: 1372
GlyphClass: 2
Flags: W
LayerCount: 2
Fore
SplineSet
647 161 m 0,0,1
 950 161 950 161 950 372 c 0,2,3
 950 475 950 475 862 548 c 0,4,5
 803 597 803 597 672.5 660 c 128,-1,6
 542 723 542 723 473.5 768 c 128,-1,7
 405 813 405 813 352 870 c 0,8,9
 232 997 232 997 232 1147 c 0,10,11
 232 1322 232 1322 354 1424 c 0,12,13
 458 1511 458 1511 633 1531 c 1,14,-1
 635 1762 l 1,15,-1
 798 1762 l 1,16,-1
 796 1536 l 1,17,18
 982 1526 982 1526 1092 1459 c 1,19,-1
 1047 1283 l 1,20,21
 917 1363 917 1363 735 1363 c 0,22,23
 541 1363 541 1363 470 1262 c 0,24,25
 445 1226 445 1226 445 1173.5 c 128,-1,26
 445 1121 445 1121 461.5 1080.5 c 128,-1,27
 478 1040 478 1040 514 1006 c 0,28,29
 570 953 570 953 683.5 895 c 128,-1,30
 797 837 797 837 847 809 c 128,-1,31
 897 781 897 781 944 749.5 c 128,-1,32
 991 718 991 718 1032 681.5 c 128,-1,33
 1073 645 1073 645 1104 602 c 1,34,35
 1169 508 1169 508 1169 406 c 128,-1,36
 1169 304 1169 304 1139 232 c 128,-1,37
 1109 160 1109 160 1055 109 c 0,38,39
 950 10 950 10 757 -11 c 1,40,-1
 755 -237 l 1,41,-1
 592 -237 l 1,42,-1
 594 -14 l 1,43,44
 417 -3 417 -3 288 46 c 0,45,46
 253 59 253 59 235 71 c 1,47,-1
 288 254 l 1,48,49
 389 193 389 193 543 169 c 0,50,51
 595 161 595 161 647 161 c 0,0,1
EndSplineSet
EndChar

StartChar: percent
Encoding: 37 37 29
Width: 1962
GlyphClass: 3
Flags: W
LayerCount: 2
Fore
SplineSet
1207 1530 m 1,0,-1
 1397 1530 l 1,1,-1
 747 0 l 1,2,-1
 557 0 l 1,3,-1
 1207 1530 l 1,0,-1
697.5 778 m 128,-1,5
 583 665 583 665 424 665 c 128,-1,6
 265 665 265 665 170 782.5 c 128,-1,7
 75 900 75 900 75 1083.5 c 128,-1,8
 75 1267 75 1267 189.5 1381.5 c 128,-1,9
 304 1496 304 1496 470.5 1496 c 128,-1,10
 637 1496 637 1496 724.5 1382.5 c 128,-1,11
 812 1269 812 1269 812 1080 c 128,-1,4
 812 891 812 891 697.5 778 c 128,-1,5
442 812 m 0,12,13
 527 812 527 812 572 882 c 128,-1,14
 617 952 617 952 617 1076 c 0,15,16
 617 1270 617 1270 518 1330 c 0,17,18
 486 1350 486 1350 446 1350 c 0,19,20
 361 1350 361 1350 315.5 1278 c 128,-1,21
 270 1206 270 1206 270 1083 c 0,22,23
 270 896 270 896 369 832 c 0,24,25
 401 812 401 812 442 812 c 0,12,13
1150 468 m 0,26,27
 1150 560 1150 560 1181.5 637.5 c 128,-1,28
 1213 715 1213 715 1266 768 c 0,29,30
 1379 881 1379 881 1545 881 c 0,31,32
 1713 881 1713 881 1803 764 c 1,33,34
 1887 653 1887 653 1887 468 c 0,35,36
 1887 276 1887 276 1770 162 c 1,37,38
 1658 51 1658 51 1494 51 c 0,39,40
 1338 51 1338 51 1243 170 c 0,41,42
 1150 287 1150 287 1150 468 c 0,26,27
1346 468 m 0,43,44
 1346 280 1346 280 1444 218 c 0,45,46
 1476 197 1476 197 1517 197 c 0,47,48
 1602 197 1602 197 1647 267 c 128,-1,49
 1692 337 1692 337 1692 461 c 0,50,51
 1692 655 1692 655 1594 716 c 0,52,53
 1562 736 1562 736 1521 736 c 0,54,55
 1436 736 1436 736 1391 664 c 128,-1,56
 1346 592 1346 592 1346 468 c 0,43,44
EndSplineSet
Ligature2: "'frac' Diagonal Fractions in Latin lookup 10 subtable" zero slash zero
EndChar

StartChar: ampersand
Encoding: 38 38 30
Width: 1532
GlyphClass: 2
Flags: W
LayerCount: 2
Fore
SplineSet
1062 62 m 1,0,1
 915 -16 915 -16 766.5 -16 c 128,-1,2
 618 -16 618 -16 507 9.5 c 128,-1,3
 396 35 396 35 316 86 c 0,4,5
 147 195 147 195 147 394 c 0,6,7
 147 643 147 643 458 787 c 1,8,9
 376 898 376 898 347 958 c 0,10,11
 289 1079 289 1079 289 1175 c 128,-1,12
 289 1271 289 1271 318 1337.5 c 128,-1,13
 347 1404 347 1404 401 1450 c 0,14,15
 512 1546 512 1546 703 1546 c 0,16,17
 873 1546 873 1546 978 1441 c 0,18,19
 1077 1342 1077 1342 1077 1202 c 0,20,21
 1077 946 1077 946 880 810 c 0,22,23
 817 766 817 766 738 729 c 1,24,25
 827 601 827 601 934.5 469 c 128,-1,26
 1042 337 1042 337 1081 295 c 1,27,28
 1163 381 1163 381 1163 523 c 0,29,30
 1163 607 1163 607 1130 728 c 1,31,-1
 1322 728 l 1,32,33
 1351 634 1351 634 1351 522 c 0,34,35
 1351 304 1351 304 1213 180 c 1,36,37
 1295 127 1295 127 1429 112 c 1,38,-1
 1429 -1 l 1,39,40
 1379 -16 1379 -16 1312 -16 c 0,41,42
 1177 -16 1177 -16 1062 62 c 1,0,1
645 858 m 1,43,44
 767 912 767 912 824 986 c 0,45,46
 890 1071 890 1071 890 1199 c 0,47,48
 890 1268 890 1268 842 1325 c 0,49,50
 788 1390 788 1390 699 1390 c 0,51,52
 556 1390 556 1390 510 1284 c 0,53,54
 493 1247 493 1247 493 1192.5 c 128,-1,55
 493 1138 493 1138 502 1099.5 c 128,-1,56
 511 1061 511 1061 530 1025.5 c 128,-1,57
 549 990 549 990 577.5 951 c 128,-1,58
 606 912 606 912 645 858 c 1,43,44
556 658 m 1,59,60
 354 553 354 553 354 400 c 0,61,62
 354 226 354 226 558 165 c 0,63,64
 632 143 632 143 714 143 c 128,-1,65
 796 143 796 143 840 154.5 c 128,-1,66
 884 166 884 166 926 183 c 1,67,68
 785 340 785 340 556 658 c 1,59,60
EndSplineSet
EndChar

StartChar: quotesingle
Encoding: 39 39 31
Width: 772
GlyphClass: 2
Flags: W
LayerCount: 2
Fore
SplineSet
265 1685 m 1,0,-1
 507 1685 l 1,1,-1
 475 966 l 1,2,-1
 298 966 l 1,3,-1
 265 1685 l 1,0,-1
EndSplineSet
EndChar

StartChar: parenleft
Encoding: 40 40 32
Width: 846
GlyphClass: 2
Flags: W
LayerCount: 2
Fore
SplineSet
567 -330 m 1,0,1
 438 -244 438 -244 312 -36 c 0,2,3
 120 282 120 282 120 723 c 0,4,5
 120 1198 120 1198 410 1574 c 0,6,7
 503 1694 503 1694 567 1730 c 1,8,-1
 718 1656 l 1,9,10
 614 1575 614 1575 505 1384 c 0,11,12
 411 1219 411 1219 363 988 c 0,13,14
 333 844 333 844 333 699 c 128,-1,15
 333 554 333 554 351.5 439.5 c 128,-1,16
 370 325 370 325 404.5 222 c 128,-1,17
 439 119 439 119 483 38.5 c 128,-1,18
 527 -42 527 -42 572 -101 c 0,19,20
 648 -203 648 -203 718 -255 c 1,21,-1
 567 -330 l 1,0,1
EndSplineSet
EndChar

StartChar: asterisk
Encoding: 42 42 34
Width: 1208
GlyphClass: 2
Flags: W
LayerCount: 2
Fore
SplineSet
559 1228 m 1,0,-1
 520 1395 l 1,1,-1
 501 1660 l 1,2,-1
 693 1660 l 1,3,-1
 680 1398 l 1,4,-1
 646 1230 l 1,5,6
 665 1249 665 1249 678.5 1261.5 c 128,-1,7
 692 1274 692 1274 707.5 1288.5 c 128,-1,8
 723 1303 723 1303 736 1316 c 0,9,10
 768 1347 768 1347 771 1348 c 2,11,-1
 991 1494 l 1,12,-1
 1086 1331 l 1,13,-1
 854 1210 l 1,14,-1
 690 1155 l 1,15,-1
 855 1106 l 1,16,-1
 1091 991 l 1,17,-1
 994 821 l 1,18,-1
 777 965 l 1,19,-1
 646 1078 l 1,20,-1
 685 910 l 1,21,-1
 706 648 l 1,22,-1
 514 647 l 1,23,-1
 526 910 l 1,24,-1
 561 1080 l 1,25,-1
 435 959 l 1,26,-1
 217 813 l 1,27,-1
 121 977 l 1,28,-1
 352 1101 l 1,29,-1
 517 1154 l 1,30,31
 515 1155 515 1155 503 1158.5 c 128,-1,32
 491 1162 491 1162 473 1167.5 c 128,-1,33
 455 1173 455 1173 434.5 1179 c 128,-1,34
 414 1185 414 1185 396 1190 c 0,35,36
 353 1202 353 1202 351 1203 c 2,37,-1
 117 1321 l 1,38,-1
 210 1486 l 1,39,-1
 430 1341 l 1,40,-1
 559 1228 l 1,0,-1
EndSplineSet
EndChar

StartChar: plus
Encoding: 43 43 35
Width: 1393
GlyphClass: 2
Flags: W
LayerCount: 2
Fore
SplineSet
607 521 m 1,0,-1
 614 692 l 1,1,-1
 449 685 l 1,2,-1
 229 685 l 1,3,-1
 229 862 l 1,4,-1
 449 862 l 1,5,-1
 614 851 l 1,6,-1
 607 1023 l 1,7,-1
 607 1251 l 1,8,-1
 785 1251 l 1,9,-1
 785 1023 l 1,10,-1
 777 851 l 1,11,-1
 918 862 l 1,12,-1
 1164 862 l 1,13,-1
 1164 685 l 1,14,-1
 918 685 l 1,15,-1
 777 692 l 1,16,-1
 785 521 l 1,17,-1
 785 285 l 1,18,-1
 607 285 l 1,19,-1
 607 521 l 1,0,-1
EndSplineSet
EndChar

StartChar: comma
Encoding: 44 44 36
Width: 602
GlyphClass: 2
Flags: W
LayerCount: 2
Fore
SplineSet
160 140 m 1,0,-1
 299 271 l 1,1,2
 396 234 396 234 447 132 c 0,3,4
 490 47 490 47 490 -44.5 c 128,-1,5
 490 -136 490 -136 468.5 -208.5 c 128,-1,6
 447 -281 447 -281 410 -339 c 0,7,8
 335 -458 335 -458 225 -500 c 1,9,-1
 151 -408 l 1,10,-1
 151 -382 l 1,11,12
 240 -338 240 -338 272 -208 c 0,13,14
 282 -167 282 -167 282 -130 c 128,-1,15
 282 -93 282 -93 272 -58.5 c 128,-1,16
 262 -24 262 -24 245 6 c 0,17,18
 207 71 207 71 160 77 c 1,19,-1
 160 140 l 1,0,-1
EndSplineSet
EndChar

StartChar: hyphen
Encoding: 45 45 37
Width: 1350
GlyphClass: 2
Flags: W
LayerCount: 2
Fore
SplineSet
250 860 m 1,0,-1
 1100 860 l 1,1,-1
 1100 683 l 1,2,-1
 250 683 l 1,3,-1
 250 860 l 1,0,-1
EndSplineSet
EndChar

StartChar: period
Encoding: 46 46 38
Width: 602
GlyphClass: 2
Flags: W
LayerCount: 2
Fore
SplineSet
193 21 m 0,0,1
 173 41 173 41 160 70 c 128,-1,2
 147 99 147 99 147 133.5 c 128,-1,3
 147 168 147 168 160 198.5 c 128,-1,4
 173 229 173 229 196 252 c 0,5,6
 245 304 245 304 294.5 304 c 128,-1,7
 344 304 344 304 371 292 c 128,-1,8
 398 280 398 280 416 259 c 0,9,10
 455 215 455 215 455 164.5 c 128,-1,11
 455 114 455 114 442.5 83 c 128,-1,12
 430 52 430 52 408 28 c 1,13,14
 359 -22 359 -22 293 -22 c 0,15,16
 236 -22 236 -22 193 21 c 0,0,1
EndSplineSet
EndChar

StartChar: slash
Encoding: 47 47 39
Width: 854
GlyphClass: 2
Flags: W
LayerCount: 2
Fore
SplineSet
612 1599 m 1,0,-1
 810 1599 l 1,1,-1
 240 -363 l 1,2,-1
 42 -363 l 1,3,-1
 612 1599 l 1,0,-1
EndSplineSet
EndChar

StartChar: zero
Encoding: 48 48 40
Width: 1386
GlyphClass: 2
Flags: W
LayerCount: 2
Fore
SplineSet
268 186 m 0,0,1
 203 277 203 277 175.5 392 c 128,-1,2
 148 507 148 507 148 644.5 c 128,-1,3
 148 782 148 782 192.5 902 c 128,-1,4
 237 1022 237 1022 312 1104 c 0,5,6
 467 1274 467 1274 711 1274 c 0,7,8
 993 1274 993 1274 1126 1088 c 0,9,10
 1238 932 1238 932 1238 648 c 0,11,12
 1238 350 1238 350 1084 166 c 0,13,14
 932 -16 932 -16 686 -16 c 0,15,16
 410 -16 410 -16 268 186 c 0,0,1
452 298 m 0,17,18
 540 136 540 136 703 136 c 0,19,20
 853 136 853 136 932 265 c 1,21,22
 1011 392 1011 392 1011 629 c 0,23,24
 1011 969 1011 969 839 1082 c 0,25,26
 780 1120 780 1120 699 1120 c 128,-1,27
 618 1120 618 1120 557.5 1087.5 c 128,-1,28
 497 1055 497 1055 456 994 c 0,29,30
 375 873 375 873 375 652 c 0,31,32
 375 440 375 440 452 298 c 0,17,18
EndSplineSet
EndChar

StartChar: one
Encoding: 49 49 41
Width: 918
GlyphClass: 2
Flags: W
LayerCount: 2
Fore
SplineSet
378 999 m 1,0,1
 260 966 260 966 155 946 c 1,2,-1
 130 1077 l 1,3,4
 277 1122 277 1122 442 1230 c 0,5,6
 486 1259 486 1259 507 1278 c 1,7,-1
 607 1253 l 1,8,-1
 607 0 l 1,9,-1
 378 0 l 1,10,-1
 378 999 l 1,0,1
EndSplineSet
Substitution2: "'sups' Superscript in Latin lookup 11 subtable" onesuperior
EndChar

StartChar: two
Encoding: 50 50 42
Width: 1269
GlyphClass: 2
Flags: W
LayerCount: 2
Fore
SplineSet
147 113 m 1,0,1
 427 275 427 275 617 472 c 0,2,3
 832 695 832 695 832 892 c 0,4,5
 832 1053 832 1053 698 1101 c 0,6,7
 653 1117 653 1117 599 1117 c 128,-1,8
 545 1117 545 1117 496.5 1105 c 128,-1,9
 448 1093 448 1093 404 1074 c 0,10,11
 317 1035 317 1035 259 975 c 1,12,-1
 166 1099 l 1,13,14
 282 1227 282 1227 466 1274 c 0,15,16
 536 1292 536 1292 639.5 1292 c 128,-1,17
 743 1292 743 1292 827 1260 c 128,-1,18
 911 1228 911 1228 962 1174 c 0,19,20
 1056 1074 1056 1074 1056 904 c 0,21,22
 1056 713 1056 713 906 516 c 0,23,24
 761 326 761 326 510 171 c 1,25,-1
 1125 177 l 1,26,-1
 1125 0 l 1,27,-1
 180 0 l 1,28,-1
 147 113 l 1,0,1
EndSplineSet
Substitution2: "'sups' Superscript in Latin lookup 11 subtable" twosuperior
EndChar

StartChar: three
Encoding: 51 51 43
Width: 1147
GlyphClass: 2
Flags: W
LayerCount: 2
Fore
SplineSet
504 1115 m 0,0,1
 343 1115 343 1115 190 1007 c 1,2,-1
 104 1132 l 1,3,4
 224 1231 224 1231 395 1274 c 0,5,6
 458 1289 458 1289 534 1289 c 128,-1,7
 610 1289 610 1289 688.5 1266.5 c 128,-1,8
 767 1244 767 1244 827 1199 c 0,9,10
 957 1102 957 1102 957 931 c 0,11,12
 957 748 957 748 790 620 c 0,13,14
 740 581 740 581 682 554 c 1,15,16
 846 535 846 535 946 426 c 0,17,18
 1038 326 1038 326 1038 205 c 128,-1,19
 1038 84 1038 84 992 -12 c 0,20,21
 895 -211 895 -211 644 -297 c 0,22,23
 521 -339 521 -339 366 -339 c 0,24,25
 263 -339 263 -339 153 -319 c 1,26,-1
 152 -167 l 1,27,28
 237 -184 237 -184 332 -184 c 128,-1,29
 427 -184 427 -184 519 -156 c 128,-1,30
 611 -128 611 -128 676 -80 c 0,31,32
 814 21 814 21 814 173 c 0,33,34
 814 385 814 385 620 436 c 0,35,36
 571 448 571 448 527.5 448 c 128,-1,37
 484 448 484 448 457 446 c 1,38,-1
 366 424 l 1,39,-1
 320 575 l 1,40,41
 421 595 421 595 517.5 634.5 c 128,-1,42
 614 674 614 674 676 745 c 0,43,44
 740 817 740 817 740 910 c 0,45,46
 740 1013 740 1013 673 1066 c 0,47,48
 612 1115 612 1115 504 1115 c 0,0,1
EndSplineSet
Substitution2: "'sups' Superscript in Latin lookup 11 subtable" threesuperior
EndChar

StartChar: four
Encoding: 52 52 44
Width: 1339
GlyphClass: 2
Flags: W
LayerCount: 2
Fore
SplineSet
700 1299 m 1,0,-1
 779 1299 l 1,1,-1
 915 1215 l 1,2,-1
 449 321 l 1,3,-1
 360 170 l 1,4,-1
 820 170 l 1,5,-1
 838 603 l 1,6,-1
 1040 603 l 1,7,-1
 1040 170 l 1,8,-1
 1271 170 l 1,9,-1
 1271 0 l 1,10,-1
 1040 0 l 1,11,-1
 1040 -376 l 1,12,-1
 820 -376 l 1,13,-1
 820 0 l 1,14,-1
 170 0 l 1,15,-1
 116 104 l 1,16,-1
 700 1299 l 1,0,-1
EndSplineSet
EndChar

StartChar: five
Encoding: 53 53 45
Width: 1227
GlyphClass: 2
Flags: W
LayerCount: 2
Fore
SplineSet
205 -188 m 1,0,1
 237 -190 237 -190 268 -190 c 0,2,3
 525 -190 525 -190 690 -74 c 0,4,5
 856 43 856 43 856 223 c 0,6,7
 856 374 856 374 778.5 450.5 c 128,-1,8
 701 527 701 527 530 527 c 0,9,10
 414 527 414 527 260 479 c 1,11,-1
 210 509 l 1,12,-1
 266 1252 l 1,13,-1
 1037 1252 l 1,14,-1
 1015 1062 l 1,15,-1
 437 1062 l 1,16,-1
 398 662 l 1,17,18
 524 691 524 691 631 691 c 128,-1,19
 738 691 738 691 822.5 659 c 128,-1,20
 907 627 907 627 964 568 c 0,21,22
 1080 449 1080 449 1080 237 c 0,23,24
 1080 130 1080 130 1031.5 26 c 128,-1,25
 983 -78 983 -78 888 -160 c 0,26,27
 675 -345 675 -345 328 -349 c 0,28,29
 246 -349 246 -349 204 -336 c 1,30,-1
 205 -188 l 1,0,1
EndSplineSet
EndChar

StartChar: six
Encoding: 54 54 46
Width: 1373
GlyphClass: 2
Flags: W
LayerCount: 2
Fore
SplineSet
584 771 m 1,0,-1
 524 901 l 1,1,2
 583 956 583 956 707 980 c 0,3,4
 752 988 752 988 826.5 988 c 128,-1,5
 901 988 901 988 976 952 c 128,-1,6
 1051 916 1051 916 1102 855 c 0,7,8
 1208 730 1208 730 1208 543 c 0,9,10
 1208 310 1208 310 1076 156 c 0,11,12
 930 -16 930 -16 674 -16 c 0,13,14
 438 -16 438 -16 295 158 c 0,15,16
 160 323 160 323 160 571 c 0,17,18
 160 829 160 829 290 1055 c 0,19,20
 408 1259 408 1259 606 1401 c 0,21,22
 794 1536 794 1536 989 1573 c 1,23,-1
 1049 1431 l 1,24,25
 867 1383 867 1383 714 1260 c 0,26,27
 497 1085 497 1085 424 830 c 0,28,29
 401 750 401 750 399.5 699 c 128,-1,30
 398 648 398 648 398 627 c 0,31,32
 398 137 398 137 703 137 c 0,33,34
 838 137 838 137 915 248 c 0,35,36
 985 350 985 350 985 497 c 0,37,38
 985 668 985 668 916 750 c 1,39,40
 858 817 858 817 759 817 c 128,-1,41
 660 817 660 817 584 771 c 1,0,-1
EndSplineSet
EndChar

StartChar: seven
Encoding: 55 55 47
Width: 1241
GlyphClass: 2
Flags: W
LayerCount: 2
Fore
SplineSet
340 -267 m 1,0,1
 603 293 603 293 904 1091 c 1,2,-1
 150 1093 l 1,3,-1
 151 1271 l 1,4,-1
 1100 1271 l 1,5,-1
 1146 1213 l 1,6,-1
 575 -335 l 1,7,-1
 340 -267 l 1,0,1
EndSplineSet
EndChar

StartChar: eight
Encoding: 56 56 48
Width: 1307
GlyphClass: 2
Flags: W
LayerCount: 2
Fore
SplineSet
318 713 m 0,0,1
 377 763 377 763 461 804 c 1,2,3
 211 963 211 963 211 1194 c 0,4,5
 211 1370 211 1370 348 1472 c 1,6,7
 475 1565 475 1565 675 1565 c 0,8,9
 873 1565 873 1565 994 1469 c 0,10,11
 1116 1372 1116 1372 1116 1216 c 0,12,13
 1116 1028 1116 1028 963 887 c 0,14,15
 910 838 910 838 836 802 c 1,16,17
 999 708 999 708 1059 648 c 0,18,19
 1177 528 1177 528 1177 395 c 0,20,21
 1177 199 1177 199 1028 88 c 0,22,23
 889 -16 889 -16 675 -16 c 0,24,25
 460 -16 460 -16 318 75 c 0,26,27
 152 182 152 182 152 376.5 c 128,-1,28
 152 571 152 571 318 713 c 0,0,1
691 884 m 1,29,30
 850 937 850 937 899 1096 c 0,31,32
 914 1146 914 1146 914 1194.5 c 128,-1,33
 914 1243 914 1243 899 1282 c 128,-1,34
 884 1321 884 1321 852 1350 c 0,35,36
 785 1412 785 1412 668 1412 c 0,37,38
 559 1412 559 1412 488 1358 c 0,39,40
 414 1303 414 1303 414 1207 c 0,41,42
 414 1066 414 1066 584 951 c 0,43,44
 635 917 635 917 691 884 c 1,29,30
363 402 m 0,45,46
 363 278 363 278 441 208 c 128,-1,47
 519 138 519 138 683 138 c 0,48,49
 792 138 792 138 873 200 c 0,50,51
 959 266 959 266 959 373 c 0,52,53
 959 528 959 528 738 650 c 0,54,55
 675 685 675 685 608 721 c 1,56,57
 437 651 437 651 381 503 c 0,58,59
 363 455 363 455 363 402 c 0,45,46
EndSplineSet
EndChar

StartChar: nine
Encoding: 57 57 49
Width: 1399
GlyphClass: 2
Flags: W
LayerCount: 2
Fore
SplineSet
981 625 m 0,0,1
 981 1115 981 1115 676 1115 c 0,2,3
 555 1115 555 1115 474 1015 c 0,4,5
 397 921 397 921 397 813.5 c 128,-1,6
 397 706 397 706 415.5 636.5 c 128,-1,7
 434 567 434 567 467 520 c 0,8,9
 533 427 533 427 643 427 c 0,10,11
 731 427 731 427 785 452 c 0,12,13
 800 459 800 459 815 466 c 1,14,-1
 867 342 l 1,15,16
 819 286 819 286 690 264 c 0,17,18
 644 256 644 256 565.5 256 c 128,-1,19
 487 256 487 256 411 295 c 128,-1,20
 335 334 335 334 282 399 c 0,21,22
 176 531 176 531 176 725 c 0,23,24
 176 972 176 972 316 1120 c 0,25,26
 460 1272 460 1272 709 1272 c 0,27,28
 950 1272 950 1272 1088 1096 c 1,29,30
 1216 935 1216 935 1216 684 c 0,31,32
 1216 413 1216 413 1079 167 c 0,33,34
 959 -49 959 -49 752 -204 c 1,35,36
 562 -348 562 -348 361 -390 c 1,37,-1
 287 -254 l 1,38,39
 583 -179 583 -179 786 89 c 0,40,41
 906 248 906 248 954 422 c 0,42,43
 978 507 978 507 979.5 555.5 c 128,-1,44
 981 604 981 604 981 625 c 0,0,1
EndSplineSet
EndChar

StartChar: less
Encoding: 60 60 52
Width: 1368
GlyphClass: 2
Flags: W
LayerCount: 2
Fore
SplineSet
168 850 m 1,0,-1
 1134 1296 l 1,1,-1
 1134 1091 l 1,2,-1
 403 773 l 1,3,-1
 1134 460 l 1,4,-1
 1134 252 l 1,5,-1
 168 696 l 1,6,-1
 168 850 l 1,0,-1
EndSplineSet
EndChar

StartChar: equal
Encoding: 61 61 53
Width: 1399
GlyphClass: 2
Flags: W
LayerCount: 2
Fore
SplineSet
242 1116 m 1,0,-1
 1157 1116 l 1,1,-1
 1157 949 l 1,2,-1
 242 949 l 1,3,-1
 242 1116 l 1,0,-1
242 599 m 1,4,-1
 1157 599 l 1,5,-1
 1157 433 l 1,6,-1
 242 433 l 1,7,-1
 242 599 l 1,4,-1
EndSplineSet
EndChar

StartChar: question
Encoding: 63 63 55
Width: 1047
GlyphClass: 2
Flags: W
LayerCount: 2
Fore
SplineSet
500 1627 m 0,0,1
 414 1654 414 1654 298 1654 c 128,-1,2
 182 1654 182 1654 121 1637 c 1,3,-1
 121 1797 l 1,4,5
 152 1820 152 1820 226 1829.5 c 128,-1,6
 300 1839 300 1839 337 1839 c 0,7,8
 677 1839 677 1839 832 1656 c 0,9,10
 933 1537 933 1537 933 1365 c 0,11,12
 933 1310 933 1310 921 1245 c 128,-1,13
 909 1180 909 1180 873 1126 c 128,-1,14
 837 1072 837 1072 789.5 1030.5 c 128,-1,15
 742 989 742 989 690.5 956.5 c 128,-1,16
 639 924 639 924 595 892 c 0,17,18
 493 820 493 820 487 749 c 0,19,20
 485 729 485 729 485 713 c 128,-1,21
 485 697 485 697 486.5 676 c 128,-1,22
 488 655 488 655 494 625 c 0,23,24
 501 595 501 595 531 494 c 1,25,-1
 364 494 l 1,26,27
 309 559 309 559 284 685 c 0,28,29
 275 732 275 732 275 779.5 c 128,-1,30
 275 827 275 827 302.5 869.5 c 128,-1,31
 330 912 330 912 375 950 c 128,-1,32
 420 988 420 988 473.5 1021.5 c 128,-1,33
 527 1055 527 1055 576 1090 c 0,34,35
 690 1171 690 1171 703 1243 c 1,36,37
 717 1300 717 1300 717 1343 c 0,38,39
 717 1559 717 1559 500 1627 c 0,0,1
346 68 m 0,40,41
 333 96 333 96 333 129 c 128,-1,42
 333 162 333 162 346 192 c 128,-1,43
 359 222 359 222 382 245 c 0,44,45
 430 295 430 295 478 295 c 128,-1,46
 526 295 526 295 552.5 283 c 128,-1,47
 579 271 579 271 597 251 c 0,48,49
 635 209 635 209 635 160 c 128,-1,50
 635 111 635 111 622.5 80.5 c 128,-1,51
 610 50 610 50 588 27 c 0,52,53
 541 -22 541 -22 476 -22 c 0,54,55
 387 -22 387 -22 346 68 c 0,40,41
EndSplineSet
EndChar

StartChar: at
Encoding: 64 64 56
Width: 2218
GlyphClass: 2
Flags: W
LayerCount: 2
Fore
SplineSet
1503 -246 m 1,0,-1
 1542 -375 l 1,1,2
 1433 -443 1433 -443 1216 -470 c 0,3,4
 1145 -478 1145 -478 1073 -478 c 0,5,6
 692 -478 692 -478 462 -256 c 0,7,8
 213 -16 213 -16 213 424 c 0,9,10
 213 755 213 755 352 1014 c 1,11,12
 484 1263 484 1263 722 1403 c 0,13,14
 959 1543 959 1543 1252 1543 c 0,15,16
 1593 1543 1593 1543 1797 1358 c 0,17,18
 2008 1168 2008 1168 2008 832 c 0,19,20
 2008 452 2008 452 1830 215 c 0,21,22
 1724 73 1724 73 1579 20 c 0,23,24
 1509 -5 1509 -5 1438 -5 c 0,25,26
 1283 -5 1283 -5 1286 238 c 0,27,28
 1287 270 1287 270 1292 313 c 1,29,30
 1176 91 1176 91 1029 20 c 0,31,32
 976 -5 976 -5 922 -5 c 128,-1,33
 868 -5 868 -5 817 22 c 0,34,35
 707 78 707 78 660 240 c 0,36,37
 637 316 637 316 637 371 c 128,-1,38
 637 426 637 426 638 465 c 128,-1,39
 639 504 639 504 654 577.5 c 128,-1,40
 669 651 669 651 699 721 c 128,-1,41
 729 791 729 791 774.5 853 c 128,-1,42
 820 915 820 915 882 962 c 0,43,44
 1016 1063 1016 1063 1181.5 1063 c 128,-1,45
 1347 1063 1347 1063 1427 1008 c 1,46,-1
 1599 1039 l 1,47,48
 1523 761 1523 761 1488 535.5 c 128,-1,49
 1453 310 1453 310 1453 232 c 128,-1,50
 1453 154 1453 154 1490 154 c 128,-1,51
 1527 154 1527 154 1566.5 177 c 128,-1,52
 1606 200 1606 200 1644 241.5 c 128,-1,53
 1682 283 1682 283 1716 341.5 c 128,-1,54
 1750 400 1750 400 1776 471 c 0,55,56
 1831 626 1831 626 1831 771.5 c 128,-1,57
 1831 917 1831 917 1809 1009 c 128,-1,58
 1787 1101 1787 1101 1747 1167.5 c 128,-1,59
 1707 1234 1707 1234 1650.5 1278.5 c 128,-1,60
 1594 1323 1594 1323 1526 1349 c 0,61,62
 1399 1397 1399 1397 1249.5 1397 c 128,-1,63
 1100 1397 1100 1397 995 1365.5 c 128,-1,64
 890 1334 890 1334 798.5 1275 c 128,-1,65
 707 1216 707 1216 631.5 1132 c 128,-1,66
 556 1048 556 1048 502 942 c 0,67,68
 389 720 389 720 389 445 c 0,69,70
 389 -80 389 -80 748 -256 c 0,71,72
 898 -330 898 -330 1116.5 -330 c 128,-1,73
 1335 -330 1335 -330 1503 -246 c 1,0,-1
825 445 m 0,74,75
 825 172 825 172 965 172 c 0,76,77
 1030 172 1030 172 1120 294 c 0,78,79
 1248 469 1248 469 1322 710 c 0,80,81
 1344 782 1344 782 1352 839 c 1,82,83
 1320 895 1320 895 1223 910 c 0,84,85
 1197 914 1197 914 1175 914 c 0,86,87
 1021 914 1021 914 920 771 c 0,88,89
 825 637 825 637 825 445 c 0,74,75
EndSplineSet
EndChar

StartChar: A
Encoding: 65 65 57
Width: 1407
GlyphClass: 2
Flags: W
LayerCount: 2
Fore
SplineSet
603 1538 m 1,0,-1
 818 1538 l 1,1,-1
 1386 0 l 1,2,-1
 1145 0 l 1,3,-1
 1015 385 l 1,4,-1
 393 385 l 1,5,-1
 257 0 l 1,6,-1
 21 0 l 1,7,-1
 603 1538 l 1,0,-1
959 551 m 1,8,-1
 755 1160 l 1,9,-1
 712 1302 l 1,10,-1
 668 1160 l 1,11,-1
 452 551 l 1,12,-1
 959 551 l 1,8,-1
EndSplineSet
EndChar

StartChar: B
Encoding: 66 66 58
Width: 1339
GlyphClass: 2
Flags: W
LayerCount: 2
Fore
SplineSet
652 -14 m 0,0,1
 494 -14 494 -14 305 0 c 1,2,-1
 194 0 l 1,3,-1
 194 1523 l 1,4,-1
 298 1522 l 1,5,-1
 648 1537 l 1,6,7
 1020 1537 1020 1537 1114 1324 c 0,8,9
 1144 1258 1144 1258 1144 1191.5 c 128,-1,10
 1144 1125 1144 1125 1131 1069.5 c 128,-1,11
 1118 1014 1118 1014 1090 964 c 0,12,13
 1028 853 1028 853 913 823 c 1,14,15
 1051 817 1051 817 1150 706 c 0,16,17
 1247 598 1247 598 1247 456 c 0,18,19
 1247 232 1247 232 1117 118 c 0,20,21
 966 -14 966 -14 652 -14 c 0,0,1
607 1380 m 0,22,23
 449 1380 449 1380 416 1367 c 1,24,-1
 416 867 l 1,25,26
 458 860 458 860 554 860 c 1,27,-1
 693 862 l 1,28,29
 795 862 795 862 859 932 c 0,30,31
 928 1009 928 1009 928 1145 c 0,32,33
 928 1380 928 1380 607 1380 c 0,22,23
569 704 m 1,34,35
 460 704 460 704 416 698 c 1,36,-1
 416 171 l 1,37,38
 453 148 453 148 598 148 c 128,-1,39
 743 148 743 148 810 162 c 128,-1,40
 877 176 877 176 924 209 c 0,41,42
 1021 277 1021 277 1021 424.5 c 128,-1,43
 1021 572 1021 572 935 637.5 c 128,-1,44
 849 703 849 703 668 703 c 1,45,-1
 569 704 l 1,34,35
EndSplineSet
EndChar

StartChar: C
Encoding: 67 67 59
Width: 1313
GlyphClass: 2
Flags: W
LayerCount: 2
Fore
SplineSet
1166 1283 m 1,0,1
 1030 1357 1030 1357 814 1357 c 0,2,3
 584 1357 584 1357 450 1198 c 256,4,5
 316 1039 316 1039 316 768 c 256,6,7
 316 497 316 497 448 330 c 1,8,9
 584 160 584 160 813 160 c 0,10,11
 990 160 990 160 1128 218 c 0,12,13
 1167 235 1167 235 1187 253 c 1,14,-1
 1188 64 l 1,15,16
 1041 6 1041 6 958 -5 c 128,-1,17
 875 -16 875 -16 804 -16 c 0,18,19
 483 -16 483 -16 288 196 c 0,20,21
 95 407 95 407 95 753 c 0,22,23
 95 1117 95 1117 307 1334 c 0,24,25
 404 1434 404 1434 531.5 1486 c 128,-1,26
 659 1538 659 1538 772.5 1538 c 128,-1,27
 886 1538 886 1538 951.5 1531 c 128,-1,28
 1017 1524 1017 1524 1065 1514.5 c 128,-1,29
 1113 1505 1113 1505 1145.5 1495.5 c 128,-1,30
 1178 1486 1178 1486 1198 1481 c 1,31,-1
 1166 1283 l 1,0,1
EndSplineSet
EndChar

StartChar: D
Encoding: 68 68 60
Width: 1472
GlyphClass: 2
Flags: W
LayerCount: 2
Fore
SplineSet
660 -16 m 1,0,-1
 279 0 l 1,1,-1
 194 0 l 1,2,-1
 194 1522 l 1,3,-1
 306 1522 l 1,4,-1
 666 1538 l 1,5,6
 1027 1538 1027 1538 1210 1344 c 1,7,8
 1388 1157 1388 1157 1388 804 c 0,9,10
 1388 416 1388 416 1188 196 c 0,11,12
 994 -16 994 -16 660 -16 c 1,0,-1
849.5 1345.5 m 128,-1,14
 748 1377 748 1377 620.5 1377 c 128,-1,15
 493 1377 493 1377 418 1361 c 1,16,-1
 418 168 l 1,17,18
 497 149 497 149 677 149 c 1,19,20
 1019 156 1019 156 1120 490 c 0,21,22
 1156 607 1156 607 1156 773.5 c 128,-1,23
 1156 940 1156 940 1121.5 1055.5 c 128,-1,24
 1087 1171 1087 1171 1019 1242.5 c 128,-1,13
 951 1314 951 1314 849.5 1345.5 c 128,-1,14
EndSplineSet
EndChar

StartChar: E
Encoding: 69 69 61
Width: 1217
GlyphClass: 2
Flags: W
LayerCount: 2
Fore
SplineSet
194 1522 m 1,0,-1
 1070 1522 l 1,1,-1
 1070 1350 l 1,2,-1
 417 1350 l 1,3,-1
 417 870 l 1,4,-1
 896 870 l 1,5,-1
 896 698 l 1,6,-1
 417 698 l 1,7,-1
 417 175 l 1,8,-1
 1143 175 l 1,9,-1
 1143 0 l 1,10,-1
 194 0 l 1,11,-1
 194 1522 l 1,0,-1
EndSplineSet
EndChar

StartChar: F
Encoding: 70 70 62
Width: 1083
GlyphClass: 2
Flags: W
LayerCount: 2
Fore
SplineSet
194 1522 m 1,0,-1
 1068 1522 l 1,1,-1
 1068 1350 l 1,2,-1
 418 1350 l 1,3,-1
 418 851 l 1,4,-1
 905 851 l 1,5,-1
 905 679 l 1,6,-1
 418 679 l 1,7,-1
 418 0 l 1,8,-1
 194 0 l 1,9,-1
 194 1522 l 1,0,-1
EndSplineSet
EndChar

StartChar: G
Encoding: 71 71 63
Width: 1433
GlyphClass: 2
Flags: W
LayerCount: 2
Fore
SplineSet
1220 1278 m 1,0,1
 1057 1364 1057 1364 790 1364 c 0,2,3
 587 1364 587 1364 460 1210 c 0,4,5
 330 1051 330 1051 330 780 c 0,6,7
 330 502 330 502 445 335 c 0,8,9
 570 154 570 154 801 154 c 0,10,11
 942 154 942 154 1046 186 c 0,12,13
 1080 196 1080 196 1102 211 c 1,14,-1
 1102 588 l 1,15,-1
 825 601 l 1,16,-1
 825 761 l 1,17,-1
 1317 761 l 1,18,-1
 1317 94 l 1,19,20
 1284 92 1284 92 1243 74.5 c 128,-1,21
 1202 57 1202 57 1143 37 c 0,22,23
 987 -16 987 -16 811 -16 c 128,-1,24
 635 -16 635 -16 504 42.5 c 128,-1,25
 373 101 373 101 283 204 c 0,26,27
 99 413 99 413 99 753 c 0,28,29
 99 1130 99 1130 304 1341 c 0,30,31
 495 1538 495 1538 804 1538 c 0,32,33
 951 1538 951 1538 1025 1523.5 c 128,-1,34
 1099 1509 1099 1509 1139.5 1498.5 c 128,-1,35
 1180 1488 1180 1488 1230 1478 c 1,36,-1
 1220 1278 l 1,0,1
EndSplineSet
EndChar

StartChar: H
Encoding: 72 72 64
Width: 1552
GlyphClass: 2
Flags: W
LayerCount: 2
Fore
SplineSet
194 1522 m 1,0,-1
 417 1522 l 1,1,-1
 417 855 l 1,2,-1
 1135 855 l 1,3,-1
 1135 1522 l 1,4,-1
 1358 1522 l 1,5,-1
 1358 0 l 1,6,-1
 1135 0 l 1,7,-1
 1135 683 l 1,8,-1
 417 683 l 1,9,-1
 417 0 l 1,10,-1
 194 0 l 1,11,-1
 194 1522 l 1,0,-1
EndSplineSet
EndChar

StartChar: I
Encoding: 73 73 65
Width: 640
GlyphClass: 2
Flags: W
LayerCount: 2
Fore
SplineSet
207 1522 m 1,0,-1
 433 1522 l 1,1,-1
 433 0 l 1,2,-1
 207 0 l 1,3,-1
 207 1522 l 1,0,-1
EndSplineSet
EndChar

StartChar: J
Encoding: 74 74 66
Width: 713
GlyphClass: 2
Flags: W
LayerCount: 2
Fore
SplineSet
494 613 m 1,0,-1
 496 397 l 1,1,2
 496 199 496 199 477 93.5 c 128,-1,3
 458 -12 458 -12 409.5 -86 c 128,-1,4
 361 -160 361 -160 297 -212 c 0,5,6
 177 -308 177 -308 26 -332 c 1,7,-1
 -42 -215 l 1,8,9
 107 -163 107 -163 190 -39 c 0,10,11
 240 37 240 37 254 172 c 1,12,13
 268 297 268 297 268 608 c 2,14,-1
 268 1522 l 1,15,-1
 494 1522 l 1,16,-1
 494 613 l 1,0,-1
EndSplineSet
EndChar

StartChar: K
Encoding: 75 75 67
Width: 1371
GlyphClass: 2
Flags: W
LayerCount: 2
Fore
SplineSet
194 1522 m 1,0,-1
 417 1522 l 1,1,-1
 417 758 l 1,2,-1
 1020 1522 l 1,3,-1
 1283 1522 l 1,4,-1
 744 866 l 1,5,6
 786 796 786 796 908.5 616 c 128,-1,7
 1031 436 1031 436 1078 366 c 0,8,9
 1189 197 1189 197 1237 110 c 1,10,-1
 1302 0 l 1,11,-1
 1045 0 l 1,12,13
 1034 15 1034 15 1024 36 c 2,14,-1
 1006 73 l 1,15,16
 945 194 945 194 796.5 414.5 c 128,-1,17
 648 635 648 635 606 701 c 1,18,-1
 417 481 l 1,19,-1
 417 0 l 1,20,-1
 194 0 l 1,21,-1
 194 1522 l 1,0,-1
EndSplineSet
EndChar

StartChar: L
Encoding: 76 76 68
Width: 1080
GlyphClass: 2
Flags: W
LayerCount: 2
Fore
SplineSet
194 1522 m 1,0,-1
 422 1522 l 1,1,-1
 422 175 l 1,2,-1
 1026 175 l 1,3,-1
 1026 0 l 1,4,-1
 194 0 l 1,5,-1
 194 1522 l 1,0,-1
EndSplineSet
EndChar

StartChar: M
Encoding: 77 77 69
Width: 1923
GlyphClass: 2
Flags: W
LayerCount: 2
Fore
SplineSet
288 1522 m 1,0,-1
 603 1522 l 1,1,-1
 885 653 l 1,2,-1
 964 330 l 1,3,-1
 1039 653 l 1,4,-1
 1309 1522 l 1,5,-1
 1608 1522 l 1,6,-1
 1790 0 l 1,7,-1
 1566 0 l 1,8,-1
 1473 946 l 1,9,-1
 1444 1356 l 1,10,-1
 1342 946 l 1,11,-1
 1024 -15 l 1,12,-1
 904 -15 l 1,13,-1
 572 946 l 1,14,-1
 460 1355 l 1,15,-1
 433 946 l 1,16,-1
 350 0 l 1,17,-1
 134 -1 l 1,18,-1
 288 1522 l 1,0,-1
EndSplineSet
EndChar

StartChar: N
Encoding: 78 78 70
Width: 1556
GlyphClass: 2
Flags: W
LayerCount: 2
Fore
SplineSet
193 1522 m 1,0,-1
 397 1522 l 1,1,-1
 1048 517 l 1,2,-1
 1171 291 l 1,3,-1
 1158 545 l 1,4,-1
 1158 1522 l 1,5,-1
 1363 1522 l 1,6,-1
 1363 0 l 1,7,-1
 1156 0 l 1,8,-1
 526 967 l 1,9,-1
 386 1216 l 1,10,-1
 398 952 l 1,11,-1
 398 0 l 1,12,-1
 193 0 l 1,13,-1
 193 1522 l 1,0,-1
EndSplineSet
EndChar

StartChar: O
Encoding: 79 79 71
Width: 1569
GlyphClass: 2
Flags: W
LayerCount: 2
Fore
SplineSet
100 751 m 0,0,1
 100 951 100 951 158.5 1100 c 128,-1,2
 217 1249 217 1249 313 1345 c 0,3,4
 506 1538 506 1538 808 1538 c 0,5,6
 1112 1538 1112 1538 1293 1326 c 0,7,8
 1469 1121 1469 1121 1469 783 c 0,9,10
 1469 400 1469 400 1271.5 192 c 128,-1,11
 1074 -16 1074 -16 767 -16 c 128,-1,12
 460 -16 460 -16 280 198.5 c 128,-1,13
 100 413 100 413 100 751 c 0,0,1
799 155 m 0,14,15
 889 155 889 155 973.5 195 c 128,-1,16
 1058 235 1058 235 1118 313 c 0,17,18
 1243 476 1243 476 1243 772 c 0,19,20
 1243 1026 1243 1026 1132 1190 c 1,21,22
 1010 1368 1010 1368 801 1368 c 0,23,24
 595 1368 595 1368 466 1220 c 1,25,26
 325 1056 325 1056 325 758 c 0,27,28
 325 505 325 505 441 338 c 0,29,30
 568 155 568 155 799 155 c 0,14,15
EndSplineSet
EndChar

StartChar: P
Encoding: 80 80 72
Width: 1270
GlyphClass: 2
Flags: W
LayerCount: 2
Fore
SplineSet
865 557 m 128,-1,1
 756 522 756 522 659 522 c 128,-1,2
 562 522 562 522 417 527 c 1,3,-1
 417 0 l 1,4,-1
 194 0 l 1,5,-1
 194 1522 l 1,6,-1
 299 1522 l 2,7,8
 386 1522 386 1522 475 1530 c 128,-1,9
 564 1538 564 1538 676 1538 c 128,-1,10
 788 1538 788 1538 886.5 1509.5 c 128,-1,11
 985 1481 985 1481 1054 1421 c 0,12,13
 1196 1296 1196 1296 1196 1045 c 256,14,15
 1196 794 1196 794 1048 659 c 0,16,0
 974 592 974 592 865 557 c 128,-1,1
881 1302 m 128,-1,18
 788 1378 788 1378 639.5 1378 c 128,-1,19
 491 1378 491 1378 417 1359 c 1,20,-1
 417 696 l 1,21,22
 490 686 490 686 582 686 c 128,-1,23
 674 686 674 686 741.5 699.5 c 128,-1,24
 809 713 809 713 860 752 c 0,25,26
 974 838 974 838 974 1032 c 128,-1,17
 974 1226 974 1226 881 1302 c 128,-1,18
EndSplineSet
EndChar

StartChar: Q
Encoding: 81 81 73
Width: 1569
GlyphClass: 2
Flags: W
LayerCount: 2
Fore
SplineSet
1327 -113 m 0,0,1
 1457 -113 1457 -113 1511 -94 c 1,2,-1
 1511 -254 l 1,3,4
 1451 -294 1451 -294 1350 -294 c 128,-1,5
 1249 -294 1249 -294 1175 -282 c 128,-1,6
 1101 -270 1101 -270 1031 -239 c 0,7,8
 885 -174 885 -174 766 -16 c 1,9,10
 763 -16 763 -16 761 -16 c 0,11,12
 458 -16 458 -16 274 206 c 0,13,14
 100 416 100 416 100 751 c 0,15,16
 100 951 100 951 158.5 1100 c 128,-1,17
 217 1249 217 1249 313 1345 c 0,18,19
 506 1538 506 1538 808 1538 c 0,20,21
 1112 1538 1112 1538 1293 1326 c 0,22,23
 1469 1121 1469 1121 1469 783 c 0,24,25
 1469 468 1469 468 1328 262 c 0,26,27
 1201 78 1201 78 979 13 c 1,28,29
 1101 -113 1101 -113 1327 -113 c 0,0,1
799 155 m 0,30,31
 889 155 889 155 973.5 195 c 128,-1,32
 1058 235 1058 235 1118 313 c 0,33,34
 1243 476 1243 476 1243 772 c 0,35,36
 1243 1026 1243 1026 1132 1190 c 1,37,38
 1010 1368 1010 1368 801 1368 c 0,39,40
 595 1368 595 1368 466 1220 c 1,41,42
 325 1056 325 1056 325 758 c 0,43,44
 325 505 325 505 441 338 c 0,45,46
 568 155 568 155 799 155 c 0,30,31
EndSplineSet
EndChar

StartChar: R
Encoding: 82 82 74
Width: 1367
GlyphClass: 2
Flags: W
LayerCount: 2
Fore
SplineSet
194 1522 m 1,0,-1
 291 1522 l 2,1,2
 366 1522 366 1522 467 1530 c 128,-1,3
 568 1538 568 1538 681.5 1538 c 128,-1,4
 795 1538 795 1538 890.5 1514 c 128,-1,5
 986 1490 986 1490 1054 1438 c 0,6,7
 1197 1329 1197 1329 1197 1110 c 0,8,9
 1197 942 1197 942 1123.5 837.5 c 128,-1,10
 1050 733 1050 733 922 688 c 1,11,12
 1007 630 1007 630 1098 432 c 0,13,14
 1124 377 1124 377 1148 322 c 0,15,16
 1228 136 1228 136 1306 0 c 1,17,-1
 1053 0 l 1,18,19
 1039 20 1039 20 1024 54 c 128,-1,20
 1009 88 1009 88 993 122 c 128,-1,21
 977 156 977 156 957 210 c 128,-1,22
 937 264 937 264 915 319.5 c 128,-1,23
 893 375 893 375 869 428.5 c 128,-1,24
 845 482 845 482 817 527 c 0,25,26
 755 626 755 626 682 650 c 1,27,28
 637 648 637 648 574 648 c 2,29,-1
 417 648 l 1,30,-1
 417 0 l 1,31,-1
 194 0 l 1,32,-1
 194 1522 l 1,0,-1
619 1374 m 0,33,34
 503 1374 503 1374 417 1356 c 1,35,-1
 417 806 l 1,36,37
 465 800 465 800 548 800 c 2,38,-1
 652 800 l 2,39,40
 969 800 969 800 969 1099 c 0,41,42
 969 1244 969 1244 896 1308 c 1,43,44
 819 1374 819 1374 619 1374 c 0,33,34
EndSplineSet
EndChar

StartChar: S
Encoding: 83 83 75
Width: 1132
GlyphClass: 2
Flags: W
LayerCount: 2
Fore
SplineSet
540 161 m 0,0,1
 843 161 843 161 843 372 c 0,2,3
 843 475 843 475 755 548 c 0,4,5
 696 597 696 597 565.5 660 c 128,-1,6
 435 723 435 723 366.5 768 c 128,-1,7
 298 813 298 813 244 870 c 0,8,9
 125 997 125 997 125 1147 c 0,10,11
 125 1409 125 1409 390 1502 c 0,12,13
 495 1538 495 1538 597.5 1538 c 128,-1,14
 700 1538 700 1538 756.5 1530.5 c 128,-1,15
 813 1523 813 1523 857 1512 c 0,16,17
 936 1491 936 1491 985 1459 c 1,18,-1
 940 1283 l 1,19,20
 810 1363 810 1363 628 1363 c 0,21,22
 434 1363 434 1363 363 1262 c 0,23,24
 338 1226 338 1226 338 1173.5 c 128,-1,25
 338 1121 338 1121 354.5 1080.5 c 128,-1,26
 371 1040 371 1040 408 1006 c 1,27,28
 463 953 463 953 576.5 895 c 128,-1,29
 690 837 690 837 740 809 c 128,-1,30
 790 781 790 781 837 749.5 c 128,-1,31
 884 718 884 718 925 681.5 c 128,-1,32
 966 645 966 645 996 602 c 0,33,34
 1062 508 1062 508 1062 400 c 128,-1,35
 1062 292 1062 292 1024.5 214 c 128,-1,36
 987 136 987 136 920 85 c 0,37,38
 787 -16 787 -16 555 -16 c 0,39,40
 344 -16 344 -16 189 42 c 0,41,42
 148 58 148 58 128 71 c 1,43,-1
 181 254 l 1,44,45
 282 193 282 193 436 169 c 0,46,47
 488 161 488 161 540 161 c 0,0,1
EndSplineSet
EndChar

StartChar: T
Encoding: 84 84 76
Width: 1303
GlyphClass: 2
Flags: W
LayerCount: 2
Fore
SplineSet
538 1350 m 1,0,-1
 63 1350 l 1,1,-1
 63 1522 l 1,2,-1
 1240 1522 l 1,3,-1
 1240 1350 l 1,4,-1
 763 1350 l 1,5,-1
 763 0 l 1,6,-1
 538 0 l 1,7,-1
 538 1350 l 1,0,-1
EndSplineSet
EndChar

StartChar: U
Encoding: 85 85 77
Width: 1463
GlyphClass: 2
Flags: W
LayerCount: 2
Fore
SplineSet
159 1522 m 1,0,-1
 382 1522 l 1,1,-1
 381 686 l 2,2,3
 381 386 381 386 477 264 c 0,4,5
 561 158 561 158 748 158 c 0,6,7
 915 158 915 158 992 265 c 0,8,9
 1083 390 1083 390 1083 686 c 2,10,-1
 1083 1522 l 1,11,-1
 1305 1522 l 1,12,-1
 1305 630 l 2,13,14
 1305 153 1305 153 990 26 c 0,15,16
 884 -16 884 -16 734 -16 c 128,-1,17
 584 -16 584 -16 473.5 27.5 c 128,-1,18
 363 71 363 71 293 154 c 0,19,20
 159 313 159 313 159 633 c 2,21,-1
 159 1522 l 1,0,-1
EndSplineSet
EndChar

StartChar: V
Encoding: 86 86 78
Width: 1355
GlyphClass: 2
Flags: W
LayerCount: 2
Fore
SplineSet
22 1522 m 1,0,-1
 259 1522 l 1,1,-1
 619 498 l 1,2,-1
 686 263 l 1,3,-1
 755 498 l 1,4,-1
 1099 1522 l 1,5,-1
 1333 1522 l 1,6,-1
 778 -13 l 1,7,-1
 591 -13 l 1,8,-1
 22 1522 l 1,0,-1
EndSplineSet
EndChar

StartChar: W
Encoding: 87 87 79
Width: 1918
GlyphClass: 2
Flags: W
LayerCount: 2
Fore
SplineSet
22 1522 m 1,0,-1
 251 1522 l 1,1,-1
 493 534 l 1,2,-1
 543 258 l 1,3,-1
 594 534 l 1,4,-1
 881 1522 l 1,5,-1
 1042 1522 l 1,6,-1
 1333 534 l 1,7,-1
 1399 256 l 1,8,-1
 1446 533 l 1,9,-1
 1672 1522 l 1,10,-1
 1896 1522 l 1,11,-1
 1503 -16 l 1,12,-1
 1285 -16 l 1,13,-1
 995 982 l 1,14,-1
 960 1164 l 1,15,-1
 926 981 l 1,16,-1
 632 -16 l 1,17,-1
 441 -16 l 1,18,-1
 22 1522 l 1,0,-1
EndSplineSet
EndChar

StartChar: X
Encoding: 88 88 80
Width: 1314
GlyphClass: 2
Flags: W
LayerCount: 2
Fore
SplineSet
523 786 m 1,0,-1
 45 1522 l 1,1,-1
 296 1523 l 1,2,-1
 667 917 l 1,3,-1
 1023 1522 l 1,4,-1
 1262 1522 l 1,5,-1
 785 753 l 1,6,-1
 1272 0 l 1,7,-1
 1018 0 l 1,8,-1
 645 619 l 1,9,-1
 282 0 l 1,10,-1
 43 0 l 1,11,-1
 523 786 l 1,0,-1
EndSplineSet
EndChar

StartChar: Y
Encoding: 89 89 81
Width: 1264
GlyphClass: 2
Flags: W
LayerCount: 2
Fore
SplineSet
523 593 m 1,0,-1
 22 1522 l 1,1,-1
 260 1522 l 1,2,-1
 598 862 l 1,3,-1
 641 757 l 1,4,-1
 677 862 l 1,5,-1
 1008 1522 l 1,6,-1
 1242 1522 l 1,7,-1
 749 593 l 1,8,-1
 749 0 l 1,9,-1
 523 0 l 1,10,-1
 523 593 l 1,0,-1
EndSplineSet
EndChar

StartChar: Z
Encoding: 90 90 82
Width: 1294
GlyphClass: 2
Flags: W
LayerCount: 2
Fore
SplineSet
866 1273 m 1,0,-1
 924 1344 l 1,1,-1
 174 1344 l 1,2,-1
 174 1522 l 1,3,-1
 1170 1522 l 1,4,-1
 1216 1441 l 1,5,-1
 456 260 l 1,6,-1
 382 175 l 1,7,-1
 1157 175 l 1,8,-1
 1157 0 l 1,9,-1
 134 0 l 1,10,-1
 89 84 l 1,11,-1
 866 1273 l 1,0,-1
EndSplineSet
EndChar

StartChar: bracketleft
Encoding: 91 91 83
Width: 837
GlyphClass: 2
Flags: W
LayerCount: 2
Fore
SplineSet
665 -167 m 1,0,1
 487 -191 487 -191 402 -191 c 128,-1,2
 317 -191 317 -191 280 -179.5 c 128,-1,3
 243 -168 243 -168 222 -140 c 0,4,5
 185 -89 185 -89 185 60 c 2,6,-1
 185 1486 l 2,7,8
 185 1635 185 1635 222 1686 c 0,9,10
 260 1737 260 1737 375 1737 c 0,11,12
 484 1737 484 1737 556 1727 c 128,-1,13
 628 1717 628 1717 665 1713 c 1,14,-1
 665 1593 l 1,15,-1
 397 1593 l 1,16,-1
 397 -49 l 1,17,-1
 665 -51 l 1,18,-1
 665 -167 l 1,0,1
EndSplineSet
EndChar

StartChar: asciicircum
Encoding: 94 94 86
Width: 1363
GlyphClass: 2
Flags: W
LayerCount: 2
Fore
SplineSet
579 1531 m 1,0,-1
 784 1531 l 1,1,-1
 1178 490 l 1,2,-1
 967 490 l 1,3,-1
 681 1288 l 1,4,-1
 396 490 l 1,5,-1
 185 490 l 1,6,-1
 579 1531 l 1,0,-1
EndSplineSet
EndChar

StartChar: underscore
Encoding: 95 95 87
Width: 1692
GlyphClass: 2
Flags: W
LayerCount: 2
Fore
SplineSet
1732 -279 m 1,0,-1
 1732 -416 l 1,1,-1
 -40 -416 l 1,2,-1
 -40 -279 l 1,3,-1
 1732 -279 l 1,0,-1
EndSplineSet
EndChar

StartChar: grave
Encoding: 96 96 88
Width: 595
GlyphClass: 2
Flags: W
LayerCount: 2
Fore
SplineSet
207 1783 m 1,0,1
 301 1663 301 1663 545 1384 c 1,2,-1
 434 1294 l 1,3,4
 375 1320 375 1320 236.5 1447 c 128,-1,5
 98 1574 98 1574 50 1648 c 1,6,-1
 207 1783 l 1,0,1
EndSplineSet
EndChar

StartChar: a
Encoding: 97 97 89
Width: 1131
GlyphClass: 2
Flags: W
LayerCount: 2
Fore
SplineSet
120 170.5 m 128,-1,1
 94 230 94 230 94 323 c 128,-1,2
 94 416 94 416 154 494 c 0,3,4
 280 658 280 658 646 684 c 0,5,6
 702 688 702 688 750 688 c 1,7,-1
 750 803 l 2,8,9
 750 918 750 918 690 958 c 0,10,11
 640 991 640 991 507 991 c 0,12,13
 392 991 392 991 254 936 c 0,14,15
 218 922 218 922 199 908 c 1,16,-1
 145 1052 l 1,17,18
 231 1106 231 1106 430 1144 c 0,19,20
 498 1157 498 1157 576.5 1157 c 128,-1,21
 655 1157 655 1157 729.5 1142.5 c 128,-1,22
 804 1128 804 1128 858 1088 c 0,23,24
 970 1004 970 1004 970 794 c 2,25,-1
 970 -16 l 1,26,-1
 880 -16 l 2,27,28
 816 -16 816 -16 797 -4 c 0,29,30
 763 19 763 19 763 88 c 2,31,-1
 763 96 l 1,32,33
 681 21 681 21 542 -6 c 0,34,35
 494 -16 494 -16 430.5 -16 c 128,-1,36
 367 -16 367 -16 303 6 c 128,-1,37
 239 28 239 28 192.5 69.5 c 128,-1,0
 146 111 146 111 120 170.5 c 128,-1,1
311 324 m 0,38,39
 311 148 311 148 508 148 c 0,40,41
 617 148 617 148 716 205 c 0,42,43
 741 219 741 219 750 229 c 1,44,-1
 750 548 l 1,45,46
 633 548 633 548 551 528 c 128,-1,47
 469 508 469 508 439.5 494 c 128,-1,48
 410 480 410 480 387 464.5 c 128,-1,49
 364 449 364 449 347 428 c 0,50,51
 311 385 311 385 311 324 c 0,38,39
EndSplineSet
Substitution2: "Single Substitution lookup 16 subtable" ordfeminine
Substitution2: "'aalt' Access All Alternates in Latin lookup 0 subtable" ordfeminine
EndChar

StartChar: b
Encoding: 98 98 90
Width: 1238
GlyphClass: 2
Flags: W
LayerCount: 2
Fore
SplineSet
378 1030 m 1,0,1
 504 1156 504 1156 691 1156 c 0,2,3
 883 1156 883 1156 1006 1022 c 0,4,5
 1141 876 1141 876 1141 612 c 0,6,7
 1141 333 1141 333 984 158 c 1,8,9
 824 -18 824 -18 566 -18 c 0,10,11
 395 -18 395 -18 224 39 c 0,12,13
 182 53 182 53 166 64 c 1,14,-1
 166 1661 l 1,15,-1
 386 1661 l 1,16,-1
 386 1189 l 1,17,-1
 378 1030 l 1,0,1
630 983 m 0,18,19
 506 983 506 983 386 890 c 1,20,-1
 386 184 l 1,21,22
 443 144 443 144 591 144 c 0,23,24
 734 144 734 144 822 256 c 0,25,26
 917 377 917 377 917 592 c 0,27,28
 917 983 917 983 630 983 c 0,18,19
EndSplineSet
EndChar

StartChar: c
Encoding: 99 99 91
Width: 1002
GlyphClass: 2
Flags: W
LayerCount: 2
Fore
SplineSet
893 923 m 1,0,1
 804 986 804 986 637 986 c 0,2,3
 506 986 506 986 418 896 c 0,4,5
 309 783 309 783 309 566 c 0,6,7
 309 379 309 379 397.5 264.5 c 128,-1,8
 486 150 486 150 631 150 c 0,9,10
 745 150 745 150 855 194 c 0,11,12
 884 205 884 205 903 217 c 1,13,-1
 948 92 l 1,14,15
 831 -16 831 -16 598 -16 c 0,16,17
 364 -16 364 -16 227 149 c 0,18,19
 97 305 97 305 97 558 c 0,20,21
 97 821 97 821 235 983 c 0,22,23
 382 1156 382 1156 648 1156 c 0,24,25
 836 1156 836 1156 928 1097 c 1,26,-1
 893 923 l 1,0,1
EndSplineSet
EndChar

StartChar: d
Encoding: 100 100 92
Width: 1237
GlyphClass: 2
Flags: W
LayerCount: 2
Fore
SplineSet
863 112 m 1,0,1
 735 -16 735 -16 546 -16 c 0,2,3
 355 -16 355 -16 232 118 c 0,4,5
 97 264 97 264 97 528 c 0,6,7
 97 807 97 807 253 980 c 0,8,9
 411 1156 411 1156 668 1156 c 0,10,11
 767 1156 767 1156 854 1127 c 1,12,-1
 851 1189 l 1,13,-1
 851 1664 l 1,14,-1
 1071 1664 l 1,15,-1
 1071 -16 l 1,16,-1
 976 -16 l 2,17,18
 917 -16 917 -16 898 -4 c 0,19,20
 863 17 863 17 863 72 c 2,21,-1
 863 112 l 1,0,1
851 946 m 1,22,23
 794 996 794 996 646 996 c 0,24,25
 504 996 504 996 416 884 c 0,26,27
 321 763 321 763 321 556 c 0,28,29
 321 157 321 157 607 157 c 0,30,31
 733 157 733 157 851 249 c 1,32,-1
 851 946 l 1,22,23
EndSplineSet
EndChar

StartChar: e
Encoding: 101 101 93
Width: 1123
GlyphClass: 2
Flags: W
LayerCount: 2
Fore
SplineSet
312 522 m 1,0,1
 327 226 327 226 530 168 c 0,2,3
 591 150 591 150 640 150 c 128,-1,4
 689 150 689 150 729.5 155 c 128,-1,5
 770 160 770 160 810 168 c 0,6,7
 903 188 903 188 945 212 c 1,8,-1
 987 86 l 1,9,10
 904 18 904 18 709 -8 c 0,11,12
 653 -16 653 -16 602 -16 c 0,13,14
 360 -16 360 -16 228 140 c 0,15,16
 97 294 97 294 97 572 c 0,17,18
 97 829 97 829 226 986 c 0,19,20
 366 1156 366 1156 612 1156 c 0,21,22
 787 1156 787 1156 898 1050 c 1,23,24
 1020 931 1020 931 1026 726 c 1,25,26
 1026 574 1026 574 1015 522 c 1,27,-1
 312 522 l 1,0,1
821 712 m 0,28,29
 821 1000 821 1000 594 1000 c 0,30,31
 353 1000 353 1000 317 668 c 1,32,-1
 820 668 l 1,33,34
 821 690 821 690 821 712 c 0,28,29
EndSplineSet
EndChar

StartChar: f
Encoding: 102 102 94
Width: 811
GlyphClass: 2
Flags: W
LayerCount: 2
Fore
SplineSet
803 1486 m 1,0,1
 743 1506 743 1506 669 1506 c 128,-1,2
 595 1506 595 1506 565.5 1492.5 c 128,-1,3
 536 1479 536 1479 514 1452 c 0,4,5
 468 1396 468 1396 468 1289 c 2,6,-1
 468 1140 l 1,7,-1
 750 1140 l 1,8,-1
 750 974 l 1,9,-1
 468 974 l 1,10,-1
 468 0 l 1,11,-1
 248 0 l 1,12,-1
 248 974 l 1,13,-1
 75 974 l 1,14,-1
 75 1096 l 1,15,-1
 248 1140 l 1,16,-1
 248 1239 l 2,17,18
 248 1539 248 1539 472 1643 c 0,19,20
 557 1682 557 1682 650.5 1682 c 128,-1,21
 744 1682 744 1682 803 1660 c 1,22,-1
 803 1486 l 1,0,1
EndSplineSet
EndChar

StartChar: g
Encoding: 103 103 95
Width: 1217
GlyphClass: 2
Flags: W
LayerCount: 2
Fore
SplineSet
446 397 m 1,0,1
 382 351 382 351 382 283 c 0,2,3
 382 219 382 219 404 201 c 0,4,5
 439 173 439 173 512 173 c 2,6,-1
 719 173 l 2,7,8
 957 173 957 173 1059 73 c 0,9,10
 1139 -5 1139 -5 1139 -145 c 0,11,12
 1139 -312 1139 -312 976 -418 c 1,13,14
 821 -517 821 -517 585 -517 c 0,15,16
 243 -517 243 -517 144 -330 c 0,17,18
 110 -267 110 -267 110 -202.5 c 128,-1,19
 110 -138 110 -138 124.5 -102 c 128,-1,20
 139 -66 139 -66 162 -36 c 0,21,22
 202 15 202 15 269 52 c 1,23,24
 181 102 181 102 181 223 c 1,25,26
 183 280 183 280 219 338.5 c 128,-1,27
 255 397 255 397 321 442 c 1,28,29
 230 490 230 490 177 572 c 128,-1,30
 124 654 124 654 124 758 c 128,-1,31
 124 862 124 862 158.5 935 c 128,-1,32
 193 1008 193 1008 254 1056 c 0,33,34
 378 1156 378 1156 591 1156 c 0,35,36
 748 1156 748 1156 863 1087 c 1,37,38
 954 1148 954 1148 1076 1148 c 2,39,-1
 1187 1148 l 1,40,-1
 1187 973 l 1,41,-1
 978 973 l 1,42,43
 1029 886 1029 886 1029 783 c 128,-1,44
 1029 680 1029 680 993.5 607 c 128,-1,45
 958 534 958 534 896 484 c 0,46,47
 772 384 772 384 570 384 c 0,48,49
 502 384 502 384 446 397 c 1,0,1
810 767 m 0,50,51
 810 1007 810 1007 585 1007 c 0,52,53
 415 1007 415 1007 363 890 c 0,54,55
 343 844 343 844 343 784 c 128,-1,56
 343 724 343 724 356 680.5 c 128,-1,57
 369 637 369 637 397 604 c 0,58,59
 458 531 458 531 575 531 c 0,60,61
 751 531 751 531 794 654 c 0,62,63
 810 699 810 699 810 767 c 0,50,51
397 7 m 1,64,65
 324 -56 324 -56 324 -155 c 0,66,67
 324 -314 324 -314 469 -352 c 0,68,69
 520 -366 520 -366 590 -366 c 128,-1,70
 660 -366 660 -366 720.5 -355 c 128,-1,71
 781 -344 781 -344 828 -322 c 0,72,73
 929 -276 929 -276 929 -193 c 0,74,75
 929 -93 929 -93 874 -50 c 0,76,77
 810 0 810 0 647 0 c 2,78,-1
 545 0 l 2,79,80
 440 0 440 0 397 7 c 1,64,65
EndSplineSet
EndChar

StartChar: h
Encoding: 104 104 96
Width: 1289
GlyphClass: 2
Flags: W
LayerCount: 2
Fore
SplineSet
176 1664 m 1,0,-1
 396 1664 l 1,1,-1
 396 1189 l 1,2,-1
 386 1027 l 1,3,4
 499 1109 499 1109 661 1144 c 0,5,6
 725 1157 725 1157 795.5 1157 c 128,-1,7
 866 1157 866 1157 930 1133 c 128,-1,8
 994 1109 994 1109 1036 1053 c 0,9,10
 1119 944 1119 944 1119 695 c 2,11,-1
 1119 0 l 1,12,-1
 899 0 l 1,13,-1
 899 711 l 2,14,15
 899 857 899 857 854 914 c 0,16,17
 807 974 807 974 699 974 c 0,18,19
 589 974 589 974 468 913 c 0,20,21
 430 894 430 894 396 869 c 1,22,-1
 396 0 l 1,23,-1
 176 0 l 1,24,-1
 176 1664 l 1,0,-1
EndSplineSet
EndChar

StartChar: k
Encoding: 107 107 99
Width: 1163
GlyphClass: 2
Flags: W
LayerCount: 2
Fore
SplineSet
168 1661 m 1,0,-1
 388 1661 l 1,1,-1
 388 751 l 1,2,-1
 384 639 l 1,3,-1
 839 1140 l 1,4,-1
 1098 1140 l 1,5,-1
 668 691 l 1,6,-1
 1151 0 l 1,7,-1
 901 0 l 1,8,-1
 524 541 l 1,9,-1
 383 394 l 1,10,-1
 388 223 l 1,11,-1
 388 0 l 1,12,-1
 168 0 l 1,13,-1
 168 1661 l 1,0,-1
EndSplineSet
EndChar

StartChar: l
Encoding: 108 108 100
Width: 613
GlyphClass: 2
Flags: W
LayerCount: 2
Fore
SplineSet
197 1664 m 1,0,-1
 417 1664 l 1,1,-1
 417 0 l 1,2,-1
 197 0 l 1,3,-1
 197 1664 l 1,0,-1
EndSplineSet
EndChar

StartChar: m
Encoding: 109 109 101
Width: 1972
GlyphClass: 2
Flags: W
LayerCount: 2
Fore
SplineSet
176 1138 m 1,0,-1
 372 1138 l 1,1,-1
 373 1018 l 1,2,3
 498 1104 498 1104 653 1142 c 0,4,5
 718 1157 718 1157 799 1157 c 0,6,7
 988 1157 988 1157 1056 1014 c 1,8,9
 1176 1105 1176 1105 1344 1143 c 0,10,11
 1407 1157 1407 1157 1481 1157 c 128,-1,12
 1555 1157 1555 1157 1618 1136 c 128,-1,13
 1681 1115 1681 1115 1722 1062 c 0,14,15
 1802 960 1802 960 1802 714 c 2,16,-1
 1802 0 l 1,17,-1
 1582 0 l 1,18,-1
 1582 711 l 2,19,20
 1582 859 1582 859 1544 914 c 0,21,22
 1503 974 1503 974 1396 974 c 0,23,24
 1238 974 1238 974 1095 871 c 1,25,26
 1104 802 1104 802 1104 714 c 2,27,-1
 1104 0 l 1,28,-1
 884 0 l 1,29,-1
 884 711 l 2,30,31
 884 859 884 859 846 914 c 0,32,33
 805 974 805 974 698 974 c 0,34,35
 589 974 589 974 468 913 c 0,36,37
 430 894 430 894 396 869 c 1,38,-1
 396 0 l 1,39,-1
 176 0 l 1,40,-1
 176 1138 l 1,0,-1
EndSplineSet
EndChar

StartChar: n
Encoding: 110 110 102
Width: 1279
GlyphClass: 2
Flags: W
LayerCount: 2
Fore
SplineSet
176 1138 m 1,0,-1
 372 1138 l 1,1,-1
 373 1018 l 1,2,3
 498 1104 498 1104 657 1142 c 0,4,5
 723 1157 723 1157 795 1157 c 128,-1,6
 867 1157 867 1157 929 1135.5 c 128,-1,7
 991 1114 991 1114 1032 1061 c 0,8,9
 1109 960 1109 960 1109 710 c 2,10,-1
 1109 0 l 1,11,-1
 889 0 l 1,12,-1
 889 711 l 2,13,14
 889 861 889 861 849 918 c 0,15,16
 809 976 809 976 705 976 c 0,17,18
 592 976 592 976 468 913 c 0,19,20
 430 894 430 894 396 869 c 1,21,-1
 396 0 l 1,22,-1
 176 0 l 1,23,-1
 176 1138 l 1,0,-1
EndSplineSet
EndChar

StartChar: o
Encoding: 111 111 103
Width: 1213
GlyphClass: 2
Flags: W
LayerCount: 2
Fore
SplineSet
582 -16 m 0,0,1
 459 -16 459 -16 364 34 c 0,2,3
 96 172 96 172 96 577 c 0,4,5
 96 858 96 858 248 1012 c 0,6,7
 390 1156 390 1156 616 1156 c 0,8,9
 874 1156 874 1156 1005 973 c 0,10,11
 1117 816 1117 816 1117 555 c 0,12,13
 1117 284 1117 284 964 128 c 0,14,15
 824 -16 824 -16 582 -16 c 0,0,1
820.5 247.5 m 128,-1,17
 894 355 894 355 894 556 c 0,18,19
 894 860 894 860 738 962 c 0,20,21
 682 998 682 998 603 998 c 0,22,23
 465 998 465 998 392 893 c 128,-1,24
 319 788 319 788 319 591 c 0,25,26
 319 397 319 397 392 268.5 c 128,-1,27
 465 140 465 140 606 140 c 128,-1,16
 747 140 747 140 820.5 247.5 c 128,-1,17
EndSplineSet
Substitution2: "Single Substitution lookup 16 subtable" ordmasculine
Substitution2: "'aalt' Access All Alternates in Latin lookup 0 subtable" ordmasculine
EndChar

StartChar: p
Encoding: 112 112 104
Width: 1238
GlyphClass: 2
Flags: W
LayerCount: 2
Fore
SplineSet
804.5 30 m 128,-1,1
 699 -16 699 -16 583.5 -16 c 128,-1,2
 468 -16 468 -16 383 13 c 1,3,-1
 386 -139 l 1,4,-1
 386 -506 l 1,5,-1
 166 -506 l 1,6,-1
 166 1140 l 1,7,-1
 365 1140 l 1,8,-1
 365 1017 l 1,9,10
 422 1077 422 1077 469 1102 c 0,11,12
 569 1156 569 1156 675 1156 c 128,-1,13
 781 1156 781 1156 862.5 1123 c 128,-1,14
 944 1090 944 1090 1006 1022 c 0,15,16
 1141 876 1141 876 1141 612 c 0,17,18
 1141 333 1141 333 985 160 c 0,19,0
 910 76 910 76 804.5 30 c 128,-1,1
630 983 m 0,20,21
 506 983 506 983 386 890 c 1,22,-1
 386 195 l 1,23,24
 444 144 444 144 591 144 c 0,25,26
 734 144 734 144 822 256 c 0,27,28
 917 377 917 377 917 592 c 0,29,30
 917 983 917 983 630 983 c 0,20,21
EndSplineSet
EndChar

StartChar: q
Encoding: 113 113 105
Width: 1237
GlyphClass: 2
Flags: W
LayerCount: 2
Fore
SplineSet
859 107 m 1,0,1
 736 -16 736 -16 546 -16 c 0,2,3
 355 -16 355 -16 232 118 c 0,4,5
 97 264 97 264 97 528 c 0,6,7
 97 807 97 807 253 980 c 0,8,9
 411 1156 411 1156 668 1156 c 0,10,11
 807 1156 807 1156 915 1109 c 1,12,-1
 1073 1140 l 1,13,-1
 1073 -506 l 1,14,-1
 853 -506 l 1,15,-1
 853 -139 l 1,16,-1
 859 107 l 1,0,1
853 945 m 1,17,18
 797 996 797 996 646 996 c 0,19,20
 504 996 504 996 416 884 c 0,21,22
 321 763 321 763 321 556 c 0,23,24
 321 157 321 157 607 157 c 0,25,26
 733 157 733 157 853 250 c 1,27,-1
 853 945 l 1,17,18
EndSplineSet
EndChar

StartChar: r
Encoding: 114 114 106
Width: 819
GlyphClass: 2
Flags: W
LayerCount: 2
Fore
SplineSet
637 964 m 0,0,1
 494 964 494 964 388 869 c 1,2,-1
 388 0 l 1,3,-1
 168 0 l 1,4,-1
 168 1138 l 1,5,-1
 353 1138 l 1,6,-1
 367 1012 l 1,7,8
 433 1099 433 1099 580 1142 c 0,9,10
 628 1157 628 1157 692 1157 c 128,-1,11
 756 1157 756 1157 787 1143 c 1,12,-1
 787 937 l 1,13,14
 733 964 733 964 637 964 c 0,0,1
EndSplineSet
EndChar

StartChar: s
Encoding: 115 115 107
Width: 977
GlyphClass: 2
Flags: W
LayerCount: 2
Fore
SplineSet
145 229 m 1,0,1
 213 184 213 184 358 158 c 0,2,3
 417 147 417 147 492 147 c 128,-1,4
 567 147 567 147 619.5 183.5 c 128,-1,5
 672 220 672 220 672 287 c 0,6,7
 672 376 672 376 528 447 c 0,8,9
 486 468 486 468 427.5 493 c 128,-1,10
 369 518 369 518 310 552 c 0,11,12
 119 665 119 665 119 854 c 0,13,14
 119 1000 119 1000 242 1082 c 0,15,16
 352 1156 352 1156 531 1156 c 0,17,18
 667 1156 667 1156 780 1114 c 0,19,20
 807 1104 807 1104 820 1097 c 1,21,-1
 784 931 l 1,22,23
 736 971 736 971 616 988 c 0,24,25
 578 994 578 994 538 994 c 0,26,27
 432 994 432 994 377 960.5 c 128,-1,28
 322 927 322 927 322 878.5 c 128,-1,29
 322 830 322 830 336.5 801 c 128,-1,30
 351 772 351 772 380 748 c 0,31,32
 427 707 427 707 513.5 672 c 128,-1,33
 600 637 600 637 659.5 605.5 c 128,-1,34
 719 574 719 574 768 532 c 0,35,36
 877 436 877 436 877 303 c 0,37,38
 877 149 877 149 768 66 c 1,39,40
 663 -16 663 -16 475 -16 c 0,41,42
 303 -16 303 -16 170 36 c 0,43,44
 132 50 132 50 112 65 c 1,45,-1
 145 229 l 1,0,1
EndSplineSet
EndChar

StartChar: t
Encoding: 116 116 108
Width: 850
GlyphClass: 2
Flags: W
LayerCount: 2
Fore
SplineSet
228 974 m 1,0,-1
 80 974 l 1,1,-1
 80 1093 l 1,2,3
 117 1104 117 1104 145 1111.5 c 128,-1,4
 173 1119 173 1119 193 1128 c 0,5,6
 233 1147 233 1147 248 1186.5 c 128,-1,7
 263 1226 263 1226 278.5 1278.5 c 128,-1,8
 294 1331 294 1331 315 1400 c 1,9,-1
 447 1400 l 1,10,-1
 447 1140 l 1,11,-1
 769 1140 l 1,12,-1
 769 974 l 1,13,-1
 447 974 l 1,14,-1
 447 397 l 2,15,16
 447 236 447 236 465 204 c 128,-1,17
 483 172 483 172 507.5 166 c 128,-1,18
 532 160 532 160 563.5 160 c 128,-1,19
 595 160 595 160 623 164 c 128,-1,20
 651 168 651 168 678 174 c 0,21,22
 741 188 741 188 768 203 c 1,23,-1
 806 77 l 1,24,25
 725 17 725 17 580 -8 c 0,26,27
 534 -16 534 -16 485 -16 c 128,-1,28
 436 -16 436 -16 388 -4 c 128,-1,29
 340 8 340 8 304 40 c 0,30,31
 228 109 228 109 228 273 c 2,32,-1
 228 974 l 1,0,-1
EndSplineSet
EndChar

StartChar: u
Encoding: 117 117 109
Width: 1249
GlyphClass: 2
Flags: W
LayerCount: 2
Fore
SplineSet
170 1140 m 1,0,-1
 390 1140 l 1,1,-1
 390 475 l 2,2,3
 390 275 390 275 438 214 c 0,4,5
 463 183 463 183 503 174 c 128,-1,6
 543 165 543 165 587 165 c 128,-1,7
 631 165 631 165 668 173 c 128,-1,8
 705 181 705 181 740 193 c 0,9,10
 809 217 809 217 853 245 c 1,11,-1
 853 1140 l 1,12,-1
 1073 1140 l 1,13,-1
 1073 -16 l 1,14,-1
 988 -16 l 2,15,16
 929 -16 929 -16 911 -4 c 0,17,18
 878 17 878 17 878 72 c 2,19,-1
 878 100 l 1,20,21
 757 24 757 24 606 -6 c 0,22,23
 555 -16 555 -16 477.5 -16 c 128,-1,24
 400 -16 400 -16 333.5 19.5 c 128,-1,25
 267 55 267 55 230 120 c 0,26,27
 170 226 170 226 170 474 c 2,28,-1
 170 1140 l 1,0,-1
EndSplineSet
EndChar

StartChar: v
Encoding: 118 118 110
Width: 1113
GlyphClass: 2
Flags: W
LayerCount: 2
Fore
SplineSet
19 1140 m 1,0,-1
 256 1140 l 1,1,-1
 482 491 l 1,2,-1
 566 219 l 1,3,-1
 643 491 l 1,4,-1
 860 1140 l 1,5,-1
 1094 1140 l 1,6,-1
 656 -16 l 1,7,-1
 471 -16 l 1,8,-1
 19 1140 l 1,0,-1
EndSplineSet
EndChar

StartChar: w
Encoding: 119 119 111
Width: 1632
GlyphClass: 2
Flags: W
LayerCount: 2
Fore
SplineSet
21 1140 m 1,0,-1
 241 1140 l 1,1,-1
 425 456 l 1,2,-1
 475 242 l 1,3,-1
 521 455 l 1,4,-1
 711 1140 l 1,5,-1
 930 1140 l 1,6,-1
 1119 456 l 1,7,-1
 1168 238 l 1,8,-1
 1218 449 l 1,9,-1
 1396 1140 l 1,10,-1
 1611 1140 l 1,11,-1
 1263 -16 l 1,12,-1
 1060 -16 l 1,13,-1
 856 729 l 1,14,-1
 819 911 l 1,15,-1
 779 729 l 1,16,-1
 578 -16 l 1,17,-1
 369 -16 l 1,18,-1
 21 1140 l 1,0,-1
EndSplineSet
EndChar

StartChar: x
Encoding: 120 120 112
Width: 1134
GlyphClass: 2
Flags: W
LayerCount: 2
Fore
SplineSet
451 578 m 1,0,-1
 47 1140 l 1,1,-1
 297 1140 l 1,2,-1
 547 762 l 1,3,-1
 572 720 l 1,4,-1
 593 764 l 1,5,-1
 844 1140 l 1,6,-1
 1091 1140 l 1,7,-1
 686 582 l 1,8,-1
 1100 0 l 1,9,-1
 845 0 l 1,10,-1
 595 379 l 1,11,-1
 561 434 l 1,12,-1
 533 376 l 1,13,-1
 301 0 l 1,14,-1
 50 0 l 1,15,-1
 451 578 l 1,0,-1
EndSplineSet
EndChar

StartChar: y
Encoding: 121 121 113
Width: 1116
GlyphClass: 2
Flags: W
LayerCount: 2
Fore
SplineSet
131 -314 m 1,0,1
 160 -325 160 -325 209 -325 c 128,-1,2
 258 -325 258 -325 299 -312.5 c 128,-1,3
 340 -300 340 -300 382 -264 c 0,4,5
 479 -181 479 -181 522 0 c 1,6,-1
 457 0 l 1,7,-1
 44 1140 l 1,8,-1
 279 1140 l 1,9,-1
 531 372 l 1,10,-1
 589 186 l 1,11,-1
 856 1140 l 1,12,-1
 1093 1140 l 1,13,-1
 709 -36 l 1,14,15
 580 -427 580 -427 351 -492 c 1,16,17
 294 -507 294 -507 222 -507 c 128,-1,18
 150 -507 150 -507 131 -493 c 1,19,-1
 131 -314 l 1,0,1
EndSplineSet
EndChar

StartChar: z
Encoding: 122 122 114
Width: 1061
GlyphClass: 2
Flags: W
LayerCount: 2
Fore
SplineSet
82 82 m 1,0,-1
 692 972 l 1,1,-1
 142 972 l 1,2,-1
 142 1140 l 1,3,-1
 954 1140 l 1,4,-1
 989 1045 l 1,5,-1
 380 160 l 1,6,-1
 969 160 l 1,7,-1
 969 0 l 1,8,-1
 124 0 l 1,9,-1
 82 82 l 1,0,-1
EndSplineSet
EndChar

StartChar: braceleft
Encoding: 123 123 115
Width: 972
GlyphClass: 2
Flags: W
LayerCount: 2
Fore
SplineSet
802 -161 m 1,0,1
 676 -196 676 -196 571.5 -196 c 128,-1,2
 467 -196 467 -196 429 -183.5 c 128,-1,3
 391 -171 391 -171 368 -142 c 1,4,5
 327 -87 327 -87 327 60 c 2,6,-1
 327 571 l 2,7,8
 327 614 327 614 239 656 c 1,9,10
 155 698 155 698 75 706 c 1,11,-1
 75 848 l 1,12,13
 162 857 162 857 220 884 c 0,14,15
 327 933 327 933 327 975 c 2,16,-1
 327 1486 l 2,17,18
 327 1633 327 1633 368.5 1687.5 c 128,-1,19
 410 1742 410 1742 510 1742 c 128,-1,20
 610 1742 610 1742 802 1718 c 1,21,-1
 802 1596 l 1,22,-1
 536 1596 l 1,23,-1
 536 976 l 2,24,25
 536 887 536 887 406 824 c 1,26,27
 352 799 352 799 295 776 c 1,28,29
 536 680 536 680 536 572 c 2,30,-1
 536 -49 l 1,31,-1
 802 -49 l 1,32,-1
 802 -161 l 1,0,1
EndSplineSet
EndChar

StartChar: bar
Encoding: 124 124 116
Width: 855
GlyphClass: 2
Flags: W
LayerCount: 2
Fore
SplineSet
326 1780 m 1,0,-1
 529 1780 l 1,1,-1
 529 -188 l 1,2,-1
 326 -188 l 1,3,-1
 326 1780 l 1,0,-1
EndSplineSet
EndChar

StartChar: asciitilde
Encoding: 126 126 118
Width: 1438
GlyphClass: 2
Flags: W
LayerCount: 2
Fore
SplineSet
916 802 m 0,0,1
 1034 802 1034 802 1118 916 c 1,2,-1
 1221 817 l 1,3,4
 1168 679 1168 679 1020 631 c 0,5,6
 968 614 968 614 912 614 c 128,-1,7
 856 614 856 614 819 626.5 c 128,-1,8
 782 639 782 639 751.5 658 c 128,-1,9
 721 677 721 677 695 698.5 c 128,-1,10
 669 720 669 720 643 739 c 0,11,12
 583 783 583 783 536 783 c 128,-1,13
 489 783 489 783 461 774 c 128,-1,14
 433 765 433 765 410 750 c 0,15,16
 374 727 374 727 331 669 c 1,17,-1
 216 758 l 1,18,19
 246 836 246 836 324 896 c 0,20,21
 421 970 421 970 532 970 c 256,22,23
 643 970 643 970 744.5 886 c 128,-1,24
 846 802 846 802 916 802 c 0,0,1
EndSplineSet
EndChar

StartChar: cent
Encoding: 162 162 122
Width: 1183
GlyphClass: 2
Flags: W
LayerCount: 2
Fore
SplineSet
953 923 m 1,0,1
 864 986 864 986 697 986 c 0,2,3
 566 986 566 986 478 896 c 0,4,5
 369 783 369 783 369 566 c 0,6,7
 369 379 369 379 457.5 264.5 c 128,-1,8
 546 150 546 150 691 150 c 0,9,10
 805 150 805 150 915 194 c 0,11,12
 944 205 944 205 963 217 c 1,13,-1
 1008 92 l 1,14,15
 917 7 917 7 734 -12 c 1,16,-1
 731 -216 l 1,17,-1
 581 -216 l 1,18,-1
 585 -11 l 1,19,20
 382 15 382 15 268 174 c 1,21,22
 157 327 157 327 157 558 c 0,23,24
 157 798 157 798 272 954 c 1,25,26
 393 1121 393 1121 617 1150 c 1,27,-1
 623 1377 l 1,28,-1
 772 1377 l 1,29,-1
 767 1154 l 1,30,31
 917 1143 917 1143 988 1097 c 1,32,-1
 953 923 l 1,0,1
EndSplineSet
EndChar

StartChar: sterling
Encoding: 163 163 123
Width: 1532
GlyphClass: 2
Flags: W
LayerCount: 2
Fore
SplineSet
1393 317 m 0,0,1
 1393 -20 1393 -20 963 -20 c 0,2,3
 805 -20 805 -20 639 40 c 0,4,5
 578 62 578 62 537.5 77.5 c 128,-1,6
 497 93 497 93 479 93 c 128,-1,7
 461 93 461 93 454 92 c 1,8,9
 401 32 401 32 313 6 c 0,10,11
 284 -2 284 -2 260.5 -2 c 128,-1,12
 237 -2 237 -2 218 4 c 128,-1,13
 199 10 199 10 183 20 c 0,14,15
 146 45 146 45 146 80 c 128,-1,16
 146 115 146 115 162 146 c 128,-1,17
 178 177 178 177 210 200 c 0,18,19
 281 252 281 252 408 258 c 1,20,21
 436 320 436 320 436 468 c 2,22,-1
 436 756 l 1,23,-1
 255 756 l 1,24,-1
 255 908 l 1,25,-1
 436 908 l 1,26,-1
 436 1045 l 2,27,28
 436 1270 436 1270 560 1402 c 0,29,30
 688 1538 688 1538 909 1538 c 0,31,32
 1117 1538 1117 1538 1237 1439 c 1,33,-1
 1133 1281 l 1,34,35
 1027 1372 1027 1372 886 1372 c 0,36,37
 784 1372 784 1372 728 1306 c 0,38,39
 655 1221 655 1221 655 1025 c 0,40,41
 655 1020 655 1020 655 1015 c 2,42,-1
 655 908 l 1,43,-1
 1008 908 l 1,44,-1
 1008 756 l 1,45,-1
 656 756 l 1,46,-1
 657 721 l 1,47,48
 657 681 657 681 657 634.5 c 128,-1,49
 657 588 657 588 656 523.5 c 128,-1,50
 655 459 655 459 647 396 c 0,51,52
 630 267 630 267 580 213 c 1,53,54
 627 205 627 205 663.5 192 c 128,-1,55
 700 179 700 179 739 167 c 0,56,57
 836 137 836 137 937 137 c 0,58,59
 1185 137 1185 137 1185 333 c 0,60,61
 1185 417 1185 417 1134 466 c 0,62,63
 1121 479 1121 479 1109 483 c 1,64,-1
 1265 563 l 1,65,66
 1340 521 1340 521 1380 404 c 0,67,68
 1393 363 1393 363 1393 317 c 0,0,1
EndSplineSet
EndChar

StartChar: currency
Encoding: 164 164 124
Width: 1527
GlyphClass: 2
Flags: W
LayerCount: 2
Fore
SplineSet
764 331 m 0,0,1
 640 331 640 331 537 393 c 1,2,-1
 326 181 l 1,3,-1
 199 308 l 1,4,-1
 405 514 l 1,5,6
 322 631 322 631 322 773.5 c 128,-1,7
 322 916 322 916 404 1030 c 1,8,-1
 199 1235 l 1,9,-1
 325 1363 l 1,10,-1
 535 1151 l 1,11,12
 640 1215 640 1215 764 1215 c 0,13,14
 884 1215 884 1215 993 1151 c 1,15,-1
 1208 1365 l 1,16,-1
 1335 1238 l 1,17,-1
 1126 1029 l 1,18,19
 1207 914 1207 914 1207 773 c 256,20,21
 1207 632 1207 632 1126 517 c 1,22,-1
 1331 312 l 1,23,-1
 1204 185 l 1,24,-1
 994 395 l 1,25,26
 889 331 889 331 764 331 c 0,0,1
765 495 m 0,27,28
 874 495 874 495 952 577 c 0,29,30
 1029 658 1029 658 1029 773 c 256,31,32
 1029 888 1029 888 952 968 c 0,33,34
 874 1050 874 1050 765 1050 c 0,35,36
 655 1050 655 1050 577 968 c 0,37,38
 499 887 499 887 499 773 c 256,39,40
 499 659 499 659 577 577 c 256,41,42
 655 495 655 495 765 495 c 0,27,28
EndSplineSet
EndChar

StartChar: yen
Encoding: 165 165 125
Width: 1532
GlyphClass: 2
Flags: W
LayerCount: 2
Fore
SplineSet
274 436 m 1,0,-1
 659 436 l 1,1,-1
 659 667 l 1,2,-1
 274 667 l 1,3,-1
 274 810 l 1,4,-1
 610 810 l 1,5,-1
 164 1522 l 1,6,-1
 402 1522 l 1,7,-1
 706 997 l 1,8,-1
 770 863 l 1,9,-1
 832 1004 l 1,10,-1
 1144 1522 l 1,11,-1
 1377 1522 l 1,12,-1
 920 810 l 1,13,-1
 1239 810 l 1,14,-1
 1239 667 l 1,15,-1
 879 667 l 1,16,-1
 879 436 l 1,17,-1
 1239 436 l 1,18,-1
 1239 293 l 1,19,-1
 879 293 l 1,20,-1
 879 0 l 1,21,-1
 659 0 l 1,22,-1
 659 293 l 1,23,-1
 274 293 l 1,24,-1
 274 436 l 1,0,-1
EndSplineSet
EndChar

StartChar: brokenbar
Encoding: 166 166 126
Width: 855
GlyphClass: 2
Flags: W
LayerCount: 2
Fore
SplineSet
326 1780 m 1,0,-1
 529 1780 l 1,1,-1
 529 950 l 1,2,-1
 326 950 l 1,3,-1
 326 1780 l 1,0,-1
326 641 m 1,4,-1
 529 641 l 1,5,-1
 529 -186 l 1,6,-1
 326 -186 l 1,7,-1
 326 641 l 1,4,-1
EndSplineSet
EndChar

StartChar: section
Encoding: 167 167 127
Width: 1358
GlyphClass: 2
Flags: W
LayerCount: 2
Fore
SplineSet
1031 366 m 1,0,1
 1132 278 1132 278 1132 150 c 0,2,3
 1132 -85 1132 -85 866 -163 c 0,4,5
 764 -193 764 -193 667.5 -193 c 128,-1,6
 571 -193 571 -193 506 -184.5 c 128,-1,7
 441 -176 441 -176 386 -162 c 0,8,9
 276 -136 276 -136 225 -100 c 1,10,-1
 267 66 l 1,11,12
 348 5 348 5 516 -20 c 0,13,14
 576 -29 576 -29 638.5 -29 c 128,-1,15
 701 -29 701 -29 753 -20.5 c 128,-1,16
 805 -12 805 -12 845 7 c 0,17,18
 933 49 933 49 933 130 c 0,19,20
 933 213 933 213 820 280 c 0,21,22
 770 310 770 310 705.5 337 c 128,-1,23
 641 364 641 364 574 392.5 c 128,-1,24
 507 421 507 421 442.5 454.5 c 128,-1,25
 378 488 378 488 328 532 c 0,26,27
 215 630 215 630 215 767 c 0,28,29
 215 937 215 937 354 1076 c 1,30,31
 226 1184 226 1184 226 1332 c 0,32,33
 226 1566 226 1566 479 1644 c 0,34,35
 573 1673 573 1673 667 1673 c 128,-1,36
 761 1673 761 1673 819 1666.5 c 128,-1,37
 877 1660 877 1660 922 1650 c 0,38,39
 1006 1630 1006 1630 1057 1600 c 1,40,-1
 1015 1434 l 1,41,42
 909 1509 909 1509 687 1509 c 0,43,44
 509 1509 509 1509 448 1426 c 0,45,46
 426 1397 426 1397 426 1350 c 128,-1,47
 426 1303 426 1303 457 1261.5 c 128,-1,48
 488 1220 488 1220 538.5 1185 c 128,-1,49
 589 1150 589 1150 653.5 1119 c 128,-1,50
 718 1088 718 1088 785 1055 c 128,-1,51
 852 1022 852 1022 916.5 984.5 c 128,-1,52
 981 947 981 947 1032 900 c 0,53,54
 1144 794 1144 794 1144 646.5 c 128,-1,55
 1144 499 1144 499 1031 366 c 1,0,1
472 998 m 1,56,57
 416 883 416 883 416 818 c 128,-1,58
 416 753 416 753 437.5 714.5 c 128,-1,59
 459 676 459 676 496 645.5 c 128,-1,60
 533 615 533 615 581.5 590.5 c 128,-1,61
 630 566 630 566 684 543 c 128,-1,62
 738 520 738 520 794.5 497.5 c 128,-1,63
 851 475 851 475 903 449 c 1,64,65
 945 553 945 553 945 610.5 c 128,-1,66
 945 668 945 668 924.5 708 c 128,-1,67
 904 748 904 748 868.5 781 c 128,-1,68
 833 814 833 814 786.5 841.5 c 128,-1,69
 740 869 740 869 687.5 894.5 c 128,-1,70
 635 920 635 920 579.5 945 c 128,-1,71
 524 970 524 970 472 998 c 1,56,57
EndSplineSet
EndChar

StartChar: dieresis
Encoding: 168 168 128
Width: 863
GlyphClass: 2
Flags: W
LayerCount: 2
Fore
SplineSet
707 1374 m 128,-1,1
 679 1363 679 1363 650.5 1363 c 128,-1,2
 622 1363 622 1363 598 1372 c 128,-1,3
 574 1381 574 1381 556 1398 c 0,4,5
 518 1435 518 1435 518 1479.5 c 128,-1,6
 518 1524 518 1524 531.5 1551 c 128,-1,7
 545 1578 545 1578 566 1598 c 0,8,9
 612 1642 612 1642 659.5 1642 c 128,-1,10
 707 1642 707 1642 731.5 1632 c 128,-1,11
 756 1622 756 1622 772 1604 c 0,12,13
 803 1569 803 1569 803 1524 c 128,-1,14
 803 1479 803 1479 790 1451.5 c 128,-1,15
 777 1424 777 1424 756 1404.5 c 128,-1,0
 735 1385 735 1385 707 1374 c 128,-1,1
249 1374 m 128,-1,17
 221 1363 221 1363 192.5 1363 c 128,-1,18
 164 1363 164 1363 140 1372 c 128,-1,19
 116 1381 116 1381 98 1398 c 0,20,21
 60 1435 60 1435 60 1479.5 c 128,-1,22
 60 1524 60 1524 73.5 1551 c 128,-1,23
 87 1578 87 1578 109 1598 c 0,24,25
 156 1642 156 1642 202.5 1642 c 128,-1,26
 249 1642 249 1642 273.5 1632 c 128,-1,27
 298 1622 298 1622 314 1604 c 0,28,29
 345 1569 345 1569 345 1524 c 128,-1,30
 345 1479 345 1479 332 1451.5 c 128,-1,31
 319 1424 319 1424 298 1404.5 c 128,-1,16
 277 1385 277 1385 249 1374 c 128,-1,17
EndSplineSet
EndChar

StartChar: copyright
Encoding: 169 169 129
Width: 2129
GlyphClass: 2
Flags: W
LayerCount: 2
Fore
SplineSet
194 962 m 0,0,1
 194 1084 194 1084 224.5 1196.5 c 128,-1,2
 255 1309 255 1309 311.5 1406.5 c 128,-1,3
 368 1504 368 1504 447 1584 c 128,-1,4
 526 1664 526 1664 622 1721 c 0,5,6
 824 1840 824 1840 1064 1840 c 0,7,8
 1303 1840 1303 1840 1506 1721 c 0,9,10
 1703 1605 1703 1605 1817 1406 c 0,11,12
 1935 1201 1935 1201 1935 963 c 0,13,14
 1935 724 1935 724 1817 518 c 0,15,16
 1641 210 1641 210 1297 114 c 0,17,18
 1185 82 1185 82 1064 82 c 0,19,20
 826 82 826 82 622 202 c 0,21,22
 427 317 427 317 312 518 c 1,23,24
 194 722 194 722 194 962 c 0,0,1
361 1162 m 0,25,26
 336 1066 336 1066 336 962.5 c 128,-1,27
 336 859 336 859 361 763.5 c 128,-1,28
 386 668 386 668 432 584 c 128,-1,29
 478 500 478 500 543 431.5 c 128,-1,30
 608 363 608 363 689 314 c 0,31,32
 859 211 859 211 1064 211 c 256,33,34
 1269 211 1269 211 1439 314 c 0,35,36
 1689 465 1689 465 1767 764 c 0,37,38
 1792 859 1792 859 1792 962.5 c 128,-1,39
 1792 1066 1792 1066 1767 1162 c 128,-1,40
 1742 1258 1742 1258 1696 1341.5 c 128,-1,41
 1650 1425 1650 1425 1585 1493.5 c 128,-1,42
 1520 1562 1520 1562 1439 1611 c 0,43,44
 1269 1714 1269 1714 1064 1714 c 256,45,46
 859 1714 859 1714 689 1611 c 0,47,48
 438 1459 438 1459 361 1162 c 0,25,26
1335 697 m 1,49,-1
 1380 573 l 1,50,51
 1267 479 1267 479 1061 479 c 0,52,53
 861 479 861 479 738 624 c 0,54,55
 621 762 621 762 621 956 c 0,56,57
 621 1175 621 1175 748 1308 c 0,58,59
 884 1450 884 1450 1117 1450 c 0,60,61
 1251 1450 1251 1450 1355 1394 c 1,62,-1
 1323 1230 l 1,63,64
 1225 1293 1225 1293 1098 1293 c 0,65,66
 964 1293 964 1293 888 1200 c 0,67,68
 815 1111 815 1111 815 971 c 0,69,70
 815 812 815 812 892 722 c 0,71,72
 966 636 966 636 1098 636 c 128,-1,73
 1230 636 1230 636 1335 697 c 1,49,-1
EndSplineSet
EndChar

StartChar: ordfeminine
Encoding: 170 170 130
Width: 1034
GlyphClass: 2
Flags: W
LayerCount: 2
Fore
SplineSet
514 686 m 0,0,1
 474 677 474 677 418.5 677 c 128,-1,2
 363 677 363 677 307 693 c 128,-1,3
 251 709 251 709 211 740 c 0,4,5
 126 807 126 807 126 925 c 0,6,7
 126 1104 126 1104 306 1176 c 1,8,9
 460 1232 460 1232 678 1232 c 1,10,-1
 678 1296 l 2,11,12
 678 1391 678 1391 628 1421 c 0,13,14
 591 1444 591 1444 521.5 1444 c 128,-1,15
 452 1444 452 1444 410.5 1435.5 c 128,-1,16
 369 1427 369 1427 330 1415 c 0,17,18
 245 1389 245 1389 208 1364 c 1,19,-1
 152 1485 l 1,20,21
 187 1517 187 1517 268 1545 c 0,22,23
 425 1599 425 1599 517 1599 c 128,-1,24
 609 1599 609 1599 673 1584.5 c 128,-1,25
 737 1570 737 1570 782 1536 c 0,26,27
 876 1463 876 1463 876 1302 c 2,28,-1
 876 687 l 1,29,-1
 805 687 l 2,30,31
 738 687 738 687 721 694 c 0,32,33
 689 706 689 706 689 759 c 2,34,-1
 689 773 l 1,35,36
 630 711 630 711 514 686 c 0,0,1
410 831 m 0,37,38
 436 824 436 824 470 824 c 128,-1,39
 504 824 504 824 538.5 831.5 c 128,-1,40
 573 839 573 839 602 849 c 0,41,42
 653 867 653 867 677 888 c 1,43,-1
 678 887 l 1,44,-1
 678 1110 l 1,45,46
 532 1110 532 1110 483.5 1099.5 c 128,-1,47
 435 1089 435 1089 399 1072 c 0,48,49
 320 1033 320 1033 320 939 c 0,50,51
 320 855 320 855 410 831 c 0,37,38
EndSplineSet
EndChar

StartChar: logicalnot
Encoding: 172 172 132
Width: 1470
GlyphClass: 2
Flags: W
LayerCount: 2
Fore
SplineSet
240 852 m 1,0,-1
 1230 852 l 1,1,-1
 1230 323 l 1,2,-1
 1030 323 l 1,3,-1
 1030 688 l 1,4,-1
 240 688 l 1,5,-1
 240 852 l 1,0,-1
EndSplineSet
EndChar

StartChar: registered
Encoding: 174 174 133
Width: 2129
GlyphClass: 2
Flags: W
LayerCount: 2
Fore
SplineSet
194 962 m 0,0,1
 194 1084 194 1084 224.5 1196.5 c 128,-1,2
 255 1309 255 1309 311.5 1406.5 c 128,-1,3
 368 1504 368 1504 447 1584 c 128,-1,4
 526 1664 526 1664 622 1721 c 0,5,6
 824 1840 824 1840 1064 1840 c 0,7,8
 1303 1840 1303 1840 1506 1721 c 0,9,10
 1703 1605 1703 1605 1817 1406 c 0,11,12
 1935 1201 1935 1201 1935 963 c 0,13,14
 1935 724 1935 724 1817 518 c 0,15,16
 1641 210 1641 210 1297 114 c 0,17,18
 1185 82 1185 82 1064 82 c 0,19,20
 826 82 826 82 622 202 c 0,21,22
 427 317 427 317 312 518 c 1,23,24
 194 722 194 722 194 962 c 0,0,1
361 1162 m 0,25,26
 336 1066 336 1066 336 962.5 c 128,-1,27
 336 859 336 859 361 763.5 c 128,-1,28
 386 668 386 668 432 584 c 128,-1,29
 478 500 478 500 543 431.5 c 128,-1,30
 608 363 608 363 689 314 c 0,31,32
 859 211 859 211 1064 211 c 256,33,34
 1269 211 1269 211 1439 314 c 0,35,36
 1689 465 1689 465 1767 764 c 0,37,38
 1792 859 1792 859 1792 962.5 c 128,-1,39
 1792 1066 1792 1066 1767 1162 c 128,-1,40
 1742 1258 1742 1258 1696 1341.5 c 128,-1,41
 1650 1425 1650 1425 1585 1493.5 c 128,-1,42
 1520 1562 1520 1562 1439 1611 c 0,43,44
 1269 1714 1269 1714 1064 1714 c 256,45,46
 859 1714 859 1714 689 1611 c 0,47,48
 438 1459 438 1459 361 1162 c 0,25,26
1432 1174 m 0,49,50
 1432 932 1432 932 1239 874 c 1,51,52
 1300 827 1300 827 1359 704 c 0,53,54
 1388 642 1388 642 1403 619 c 128,-1,55
 1418 596 1418 596 1430 578 c 0,56,57
 1455 539 1455 539 1495 479 c 1,58,-1
 1291 480 l 1,59,60
 1243 541 1243 541 1203.5 634 c 128,-1,61
 1164 727 1164 727 1144 759 c 0,62,63
 1095 834 1095 834 1039 849 c 1,64,65
 1019 848 1019 848 986 848 c 2,66,-1
 915 848 l 1,67,-1
 915 479 l 1,68,-1
 738 479 l 1,69,-1
 738 1441 l 1,70,-1
 815 1441 l 1,71,-1
 1073 1448 l 1,72,73
 1253 1448 1253 1448 1348 1366 c 0,74,75
 1432 1294 1432 1294 1432 1174 c 0,49,50
1204 1274 m 0,76,77
 1179 1295 1179 1295 1138.5 1305.5 c 128,-1,78
 1098 1316 1098 1316 1029 1316 c 128,-1,79
 960 1316 960 1316 915 1305 c 1,80,-1
 915 980 l 1,81,82
 959 976 959 976 996 976 c 2,83,-1
 1045 976 l 2,84,85
 1146 976 1146 976 1197 1015 c 128,-1,86
 1248 1054 1248 1054 1248 1151 c 0,87,88
 1248 1236 1248 1236 1204 1274 c 0,76,77
EndSplineSet
EndChar

StartChar: macron
Encoding: 175 175 134
Width: 647
GlyphClass: 2
Flags: W
LayerCount: 2
Fore
SplineSet
50 1588 m 1,0,-1
 597 1588 l 1,1,-1
 597 1425 l 1,2,-1
 50 1425 l 1,3,-1
 50 1588 l 1,0,-1
EndSplineSet
EndChar

StartChar: degree
Encoding: 176 176 135
Width: 912
GlyphClass: 2
Flags: W
LayerCount: 2
Fore
SplineSet
456 939 m 0,0,1
 314 939 314 939 216 1036 c 1,2,3
 116 1133 116 1133 116 1278 c 0,4,5
 116 1424 116 1424 215 1521 c 0,6,7
 313 1617 313 1617 456 1617 c 256,8,9
 599 1617 599 1617 697 1520 c 0,10,11
 796 1423 796 1423 796 1278 c 0,12,13
 796 1132 796 1132 697 1035 c 0,14,15
 599 939 599 939 456 939 c 0,0,1
456 1083 m 256,16,17
 534 1083 534 1083 587 1138 c 0,18,19
 641 1194 641 1194 641 1278 c 0,20,21
 641 1361 641 1361 587 1417 c 0,22,23
 534 1472 534 1472 456 1472 c 0,24,25
 379 1472 379 1472 326 1418 c 0,26,27
 272 1362 272 1362 272 1278 c 0,28,29
 272 1196 272 1196 326 1138 c 0,30,31
 378 1083 378 1083 456 1083 c 256,16,17
EndSplineSet
EndChar

StartChar: plusminus
Encoding: 177 177 136
Width: 1393
GlyphClass: 2
Flags: W
LayerCount: 2
Fore
SplineSet
250 165 m 1,0,-1
 1142 165 l 1,1,-1
 1142 0 l 1,2,-1
 250 0 l 1,3,-1
 250 165 l 1,0,-1
607 521 m 1,4,-1
 614 692 l 1,5,-1
 449 685 l 1,6,-1
 229 685 l 1,7,-1
 229 862 l 1,8,-1
 449 862 l 1,9,-1
 614 851 l 1,10,-1
 607 1023 l 1,11,-1
 607 1251 l 1,12,-1
 785 1251 l 1,13,-1
 785 1023 l 1,14,-1
 777 851 l 1,15,-1
 918 862 l 1,16,-1
 1164 862 l 1,17,-1
 1164 685 l 1,18,-1
 918 685 l 1,19,-1
 777 692 l 1,20,-1
 785 521 l 1,21,-1
 785 285 l 1,22,-1
 607 285 l 1,23,-1
 607 521 l 1,4,-1
EndSplineSet
EndChar

StartChar: twosuperior
Encoding: 178 178 137
Width: 1194
GlyphClass: 2
Flags: W
LayerCount: 2
Fore
SplineSet
541 1527 m 0,0,1
 387 1527 387 1527 266 1385 c 1,2,-1
 175 1494 l 1,3,4
 264 1620 264 1620 445 1669 c 0,5,6
 508 1686 508 1686 591 1686 c 128,-1,7
 674 1686 674 1686 742.5 1659.5 c 128,-1,8
 811 1633 811 1633 855 1590 c 0,9,10
 941 1506 941 1506 941 1382 c 0,11,12
 941 1084 941 1084 538 825 c 1,13,-1
 996 830 l 1,14,-1
 996 665 l 1,15,-1
 248 665 l 1,16,-1
 205 775 l 1,17,18
 359 854 359 854 522 1001 c 0,19,20
 727 1187 727 1187 727 1344 c 0,21,22
 727 1527 727 1527 541 1527 c 0,0,1
EndSplineSet
EndChar

StartChar: threesuperior
Encoding: 179 179 138
Width: 1194
GlyphClass: 2
Flags: W
LayerCount: 2
Fore
SplineSet
912 1453 m 0,0,1
 912 1273 912 1273 704 1183 c 1,2,3
 836 1177 836 1177 912 1098 c 0,4,5
 981 1027 981 1027 981 941 c 128,-1,6
 981 855 981 855 955.5 791 c 128,-1,7
 930 727 930 727 876 680 c 0,8,9
 759 578 759 578 538 578 c 0,10,11
 466 578 466 578 329 606 c 1,12,-1
 315 748 l 1,13,14
 424 727 424 727 537 728 c 0,15,16
 770 730 770 730 770 921 c 0,17,18
 770 1043 770 1043 642 1085 c 0,19,20
 603 1098 603 1098 555 1101 c 1,21,-1
 467 1073 l 1,22,-1
 430 1201 l 1,23,24
 489 1212 489 1212 566.5 1246 c 128,-1,25
 644 1280 644 1280 677.5 1321.5 c 128,-1,26
 711 1363 711 1363 711 1419 c 0,27,28
 711 1515 711 1515 614 1539 c 0,29,30
 585 1546 585 1546 557 1546 c 128,-1,31
 529 1546 529 1546 500 1540.5 c 128,-1,32
 471 1535 471 1535 440 1524 c 0,33,34
 374 1502 374 1502 324 1467 c 1,35,-1
 262 1586 l 1,36,37
 353 1661 353 1661 512 1685 c 0,38,39
 552 1691 552 1691 607 1691 c 128,-1,40
 662 1691 662 1691 725.5 1672 c 128,-1,41
 789 1653 789 1653 830 1620 c 1,42,43
 912 1557 912 1557 912 1453 c 0,0,1
EndSplineSet
EndChar

StartChar: acute
Encoding: 180 180 139
Width: 594
GlyphClass: 2
Flags: W
LayerCount: 2
Fore
SplineSet
50 1384 m 1,0,1
 293 1650 293 1650 388 1783 c 1,2,-1
 544 1648 l 1,3,4
 510 1588 510 1588 362 1450 c 0,5,6
 216 1315 216 1315 161 1294 c 1,7,-1
 50 1384 l 1,0,1
EndSplineSet
EndChar

StartChar: mu
Encoding: 181 181 140
Width: 1360
GlyphClass: 2
Flags: W
LayerCount: 2
Fore
SplineSet
1043 -18 m 0,0,1
 923 -18 923 -18 923 106 c 0,2,3
 923 113 923 113 923 120 c 1,4,5
 869 60 869 60 831 36 c 0,6,7
 749 -16 749 -16 654.5 -16 c 128,-1,8
 560 -16 560 -16 494 6.5 c 128,-1,9
 428 29 428 29 383 88 c 1,10,-1
 415 -371 l 1,11,-1
 210 -371 l 1,12,-1
 210 1140 l 1,13,-1
 429 1140 l 1,14,-1
 429 399 l 2,15,16
 429 204 429 204 566 169 c 0,17,18
 613 157 613 157 690 157 c 128,-1,19
 767 157 767 157 893 245 c 1,20,-1
 893 1140 l 1,21,-1
 1113 1140 l 1,22,-1
 1113 234 l 2,23,24
 1113 170 1113 170 1132 161 c 0,25,26
 1139 158 1139 158 1160 158 c 128,-1,27
 1181 158 1181 158 1225 185 c 1,28,-1
 1256 87 l 1,29,30
 1223 34 1223 34 1120 -4 c 0,31,32
 1083 -18 1083 -18 1043 -18 c 0,0,1
EndSplineSet
EndChar

StartChar: paragraph
Encoding: 182 182 141
Width: 1320
GlyphClass: 2
Flags: W
LayerCount: 2
Fore
SplineSet
657 1711 m 1,0,-1
 1126 1691 l 1,1,-1
 1126 0 l 1,2,-1
 942 0 l 1,3,-1
 942 1548 l 1,4,-1
 701 1548 l 1,5,-1
 701 0 l 1,6,-1
 517 0 l 1,7,-1
 517 777 l 1,8,9
 83 777 83 777 83 1248 c 0,10,11
 83 1462 83 1462 228 1584 c 0,12,13
 379 1711 379 1711 657 1711 c 1,0,-1
EndSplineSet
EndChar

StartChar: cedilla
Encoding: 184 184 143
Width: 485
GlyphClass: 2
Flags: W
LayerCount: 2
Fore
SplineSet
276 -94 m 0,0,1
 276 -24 276 -24 251 30 c 1,2,-1
 334 34 l 1,3,-1
 377 30 l 1,4,5
 436 -32 436 -32 436 -180 c 0,6,7
 436 -401 436 -401 278 -451 c 0,8,9
 237 -464 237 -464 205.5 -464 c 128,-1,10
 174 -464 174 -464 151.5 -462 c 128,-1,11
 129 -460 129 -460 109 -456 c 0,12,13
 63 -447 63 -447 47 -436 c 1,14,-1
 62 -294 l 1,15,16
 85 -308 85 -308 144 -308 c 0,17,18
 276 -308 276 -308 276 -94 c 0,0,1
EndSplineSet
EndChar

StartChar: onesuperior
Encoding: 185 185 144
Width: 1026
GlyphClass: 2
Flags: W
LayerCount: 2
Fore
SplineSet
468 1426 m 1,0,1
 468 1426 468 1426 262 1375 c 1,2,-1
 222 1496 l 1,3,4
 345 1532 345 1532 516 1647 c 0,5,6
 556 1674 556 1674 574 1689 c 1,7,-1
 679 1664 l 1,8,-1
 679 663 l 1,9,-1
 468 663 l 1,10,-1
 468 1426 l 1,0,1
EndSplineSet
EndChar

StartChar: ordmasculine
Encoding: 186 186 145
Width: 1033
GlyphClass: 2
Flags: W
LayerCount: 2
Fore
SplineSet
501 677 m 0,0,1
 415 677 415 677 340 710 c 0,2,3
 190 778 190 778 136 956 c 0,4,5
 111 1040 111 1040 111 1143 c 0,6,7
 111 1373 111 1373 252 1498 c 0,8,9
 366 1599 366 1599 533 1599 c 0,10,11
 721 1599 721 1599 824 1469 c 1,12,13
 922 1347 922 1347 922 1139 c 0,14,15
 922 905 922 905 790 781 c 0,16,17
 680 677 680 677 501 677 c 0,0,1
436 847 m 0,18,19
 472 825 472 825 519.5 825 c 128,-1,20
 567 825 567 825 604 842.5 c 128,-1,21
 641 860 641 860 665 896 c 0,22,23
 714 971 714 971 714 1129 c 0,24,25
 714 1364 714 1364 605 1431 c 0,26,27
 571 1452 571 1452 547.5 1452 c 128,-1,28
 524 1452 524 1452 501 1451.5 c 128,-1,29
 478 1451 478 1451 441 1434.5 c 128,-1,30
 404 1418 404 1418 377 1382 c 0,31,32
 319 1306 319 1306 319 1151 c 0,33,34
 319 919 319 919 436 847 c 0,18,19
EndSplineSet
EndChar

StartChar: Aring
Encoding: 197 197 156
Width: 1407
GlyphClass: 2
Flags: W
LayerCount: 2
Fore
SplineSet
571 1453 m 1,0,1
 481 1480 481 1480 431 1544.5 c 128,-1,2
 381 1609 381 1609 381 1701 c 0,3,4
 381 1838 381 1838 484 1910 c 0,5,6
 569 1970 569 1970 701 1970 c 0,7,8
 931 1970 931 1970 1000 1820 c 0,9,10
 1022 1771 1022 1771 1021 1689 c 128,-1,11
 1020 1607 1020 1607 971.5 1546.5 c 128,-1,12
 923 1486 923 1486 847 1459 c 1,13,-1
 1386 0 l 1,14,-1
 1145 0 l 1,15,-1
 1015 385 l 1,16,-1
 393 385 l 1,17,-1
 257 0 l 1,18,-1
 21 0 l 1,19,-1
 571 1453 l 1,0,1
699 1561 m 1,20,21
 868 1561 868 1561 868 1706 c 0,22,23
 868 1807 868 1807 766 1837 c 0,24,25
 735 1846 735 1846 702 1846 c 128,-1,26
 669 1846 669 1846 640 1840 c 128,-1,27
 611 1834 611 1834 588 1818 c 0,28,29
 537 1783 537 1783 537 1712 c 128,-1,30
 537 1641 537 1641 580.5 1602 c 128,-1,31
 624 1563 624 1563 699 1561 c 1,20,21
959 551 m 1,32,-1
 755 1160 l 1,33,-1
 712 1302 l 1,34,-1
 668 1160 l 1,35,-1
 452 551 l 1,36,-1
 959 551 l 1,32,-1
EndSplineSet
EndChar

StartChar: AE
Encoding: 198 198 157
Width: 1860
GlyphClass: 2
Flags: W
LayerCount: 2
Fore
SplineSet
652 1522 m 1,0,-1
 1713 1522 l 1,1,-1
 1713 1350 l 1,2,-1
 1060 1350 l 1,3,-1
 1060 870 l 1,4,-1
 1539 870 l 1,5,-1
 1539 698 l 1,6,-1
 1060 698 l 1,7,-1
 1060 175 l 1,8,-1
 1786 175 l 1,9,-1
 1786 0 l 1,10,-1
 837 0 l 1,11,-1
 837 385 l 1,12,-1
 356 385 l 1,13,-1
 173 0 l 1,14,-1
 -73 0 l 1,15,-1
 652 1522 l 1,0,-1
837 551 m 1,16,-1
 837 1376 l 1,17,-1
 827 1376 l 1,18,-1
 435 551 l 1,19,-1
 837 551 l 1,16,-1
EndSplineSet
EndChar

StartChar: Ccedilla
Encoding: 199 199 158
Width: 1313
GlyphClass: 2
Flags: W
LayerCount: 2
Fore
SplineSet
516 -294 m 1,0,1
 539 -308 539 -308 598 -308 c 0,2,3
 730 -308 730 -308 730 -89 c 0,4,5
 730 -46 730 -46 720 -12 c 1,6,7
 434 16 434 16 264 222 c 1,8,9
 95 429 95 429 95 753 c 0,10,11
 95 1117 95 1117 307 1334 c 0,12,13
 404 1434 404 1434 531.5 1486 c 128,-1,14
 659 1538 659 1538 772.5 1538 c 128,-1,15
 886 1538 886 1538 951.5 1531 c 128,-1,16
 1017 1524 1017 1524 1065 1514.5 c 128,-1,17
 1113 1505 1113 1505 1145.5 1495.5 c 128,-1,18
 1178 1486 1178 1486 1198 1481 c 1,19,-1
 1166 1283 l 1,20,21
 1030 1357 1030 1357 814 1357 c 0,22,23
 584 1357 584 1357 450 1198 c 256,24,25
 316 1039 316 1039 316 768 c 256,26,27
 316 497 316 497 448 330 c 1,28,29
 584 160 584 160 813 160 c 0,30,31
 990 160 990 160 1128 218 c 0,32,33
 1167 235 1167 235 1187 253 c 1,34,-1
 1188 64 l 1,35,36
 1060 13 1060 13 989 1 c 128,-1,37
 918 -11 918 -11 860 -14 c 1,38,39
 890 -79 890 -79 890 -178 c 0,40,41
 890 -401 890 -401 732 -451 c 0,42,43
 691 -464 691 -464 659.5 -464 c 128,-1,44
 628 -464 628 -464 605.5 -462 c 128,-1,45
 583 -460 583 -460 563 -456 c 0,46,47
 517 -447 517 -447 501 -436 c 1,48,-1
 516 -294 l 1,0,1
EndSplineSet
EndChar

StartChar: Eth
Encoding: 208 208 167
Width: 1472
GlyphClass: 2
Flags: W
LayerCount: 2
Fore
SplineSet
660 -16 m 1,0,-1
 279 0 l 1,1,-1
 194 0 l 1,2,-1
 194 720 l 1,3,-1
 66 720 l 1,4,-1
 66 869 l 1,5,-1
 194 869 l 1,6,-1
 194 1522 l 1,7,-1
 306 1522 l 1,8,-1
 666 1538 l 1,9,10
 1027 1538 1027 1538 1210 1344 c 1,11,12
 1388 1157 1388 1157 1388 804 c 0,13,14
 1388 416 1388 416 1188 196 c 0,15,16
 994 -16 994 -16 660 -16 c 1,0,-1
849.5 1345.5 m 128,-1,18
 748 1377 748 1377 620.5 1377 c 128,-1,19
 493 1377 493 1377 418 1361 c 1,20,-1
 418 869 l 1,21,-1
 812 869 l 1,22,-1
 812 720 l 1,23,-1
 418 720 l 1,24,-1
 418 168 l 1,25,26
 497 149 497 149 677 149 c 1,27,28
 1019 156 1019 156 1120 490 c 0,29,30
 1156 607 1156 607 1156 773.5 c 128,-1,31
 1156 940 1156 940 1121.5 1055.5 c 128,-1,32
 1087 1171 1087 1171 1019 1242.5 c 128,-1,17
 951 1314 951 1314 849.5 1345.5 c 128,-1,18
EndSplineSet
EndChar

StartChar: multiply
Encoding: 215 215 174
Width: 1370
GlyphClass: 2
Flags: W
LayerCount: 2
Fore
SplineSet
234 439 m 1,0,-1
 572 774 l 1,1,-1
 234 1119 l 1,2,-1
 364 1247 l 1,3,-1
 686 893 l 1,4,-1
 1008 1247 l 1,5,-1
 1138 1119 l 1,6,-1
 800 777 l 1,7,-1
 1138 439 l 1,8,-1
 1008 311 l 1,9,-1
 686 654 l 1,10,-1
 364 311 l 1,11,-1
 234 439 l 1,0,-1
EndSplineSet
EndChar

StartChar: Oslash
Encoding: 216 216 175
Width: 1569
GlyphClass: 2
Flags: W
LayerCount: 2
Fore
SplineSet
536 1489.5 m 128,-1,1
 663 1538 663 1538 782 1538 c 128,-1,2
 901 1538 901 1538 985 1516 c 1,3,-1
 1065 1738 l 1,4,-1
 1190 1702 l 1,5,-1
 1107 1471 l 1,6,7
 1374 1337 1374 1337 1447 1000 c 0,8,9
 1469 898 1469 898 1469 834 c 0,10,11
 1469 582 1469 582 1413.5 432.5 c 128,-1,12
 1358 283 1358 283 1266 186 c 0,13,14
 1074 -16 1074 -16 763 -16 c 0,15,16
 664 -16 664 -16 580 8 c 1,17,-1
 505 -200 l 1,18,-1
 380 -164 l 1,19,-1
 459 55 l 1,20,21
 194 195 194 195 120 538 c 1,22,23
 100 636 100 636 100 697 c 0,24,25
 100 951 100 951 158.5 1100 c 128,-1,26
 217 1249 217 1249 313 1345 c 128,-1,0
 409 1441 409 1441 536 1489.5 c 128,-1,1
925 1349 m 1,27,28
 864 1368 864 1368 784.5 1368 c 128,-1,29
 705 1368 705 1368 618.5 1331.5 c 128,-1,30
 532 1295 532 1295 466 1220 c 1,31,32
 325 1056 325 1056 325 758 c 0,33,34
 325 509 325 509 439 341 c 0,35,36
 477 285 477 285 527 244 c 1,37,-1
 925 1349 l 1,27,28
641 179 m 1,38,39
 707 155 707 155 798 155 c 128,-1,40
 889 155 889 155 973.5 195 c 128,-1,41
 1058 235 1058 235 1118 313 c 0,42,43
 1243 476 1243 476 1243 772 c 0,44,45
 1243 1027 1243 1027 1129 1194 c 0,46,47
 1091 1249 1091 1249 1041 1288 c 1,48,-1
 641 179 l 1,38,39
EndSplineSet
EndChar

StartChar: Thorn
Encoding: 222 222 181
Width: 1262
GlyphClass: 2
Flags: W
LayerCount: 2
Fore
SplineSet
851.5 319 m 128,-1,1
 743 285 743 285 630.5 285 c 128,-1,2
 518 285 518 285 417 292 c 1,3,-1
 417 0 l 1,4,-1
 194 0 l 1,5,-1
 194 1522 l 1,6,-1
 417 1522 l 1,7,-1
 417 1247 l 1,8,9
 576 1259 576 1259 650 1259 c 0,10,11
 1182 1259 1182 1259 1182 793 c 0,12,13
 1182 551 1182 551 1034 418 c 1,14,0
 960 353 960 353 851.5 319 c 128,-1,1
604 1099 m 0,15,16
 500 1099 500 1099 417 1082 c 1,17,-1
 417 455 l 1,18,19
 477 447 477 447 565.5 447 c 128,-1,20
 654 447 654 447 723 459.5 c 128,-1,21
 792 472 792 472 844 509 c 0,22,23
 960 590 960 590 960 773 c 128,-1,24
 960 956 960 956 868.5 1027.5 c 128,-1,25
 777 1099 777 1099 604 1099 c 0,15,16
EndSplineSet
EndChar

StartChar: germandbls
Encoding: 223 223 182
Width: 1268
GlyphClass: 2
Flags: W
LayerCount: 2
Fore
SplineSet
879 1275 m 0,0,1
 879 1423 879 1423 682 1423 c 0,2,3
 546 1423 546 1423 476 1322 c 1,4,5
 394 1207 394 1207 394 948 c 2,6,-1
 394 0 l 1,7,-1
 174 0 l 1,8,-1
 174 974 l 1,9,-1
 36 974 l 1,10,-1
 36 1103 l 1,11,-1
 189 1142 l 1,12,13
 232 1364 232 1364 379 1475 c 0,14,15
 516 1579 516 1579 719 1579 c 0,16,17
 883 1579 883 1579 986 1508 c 0,18,19
 1097 1432 1097 1432 1097 1303 c 256,20,21
 1097 1174 1097 1174 985 1058 c 0,22,23
 914 985 914 985 893.5 948 c 128,-1,24
 873 911 873 911 873 874.5 c 128,-1,25
 873 838 873 838 888.5 807 c 128,-1,26
 904 776 904 776 929.5 748.5 c 128,-1,27
 955 721 955 721 987.5 695.5 c 128,-1,28
 1020 670 1020 670 1054.5 642.5 c 128,-1,29
 1089 615 1089 615 1121.5 583 c 128,-1,30
 1154 551 1154 551 1180 512 c 0,31,32
 1236 426 1236 426 1236 324 c 128,-1,33
 1236 222 1236 222 1201.5 159 c 128,-1,34
 1167 96 1167 96 1110 57 c 0,35,36
 1005 -16 1005 -16 848 -16 c 128,-1,37
 691 -16 691 -16 608 17 c 1,38,-1
 608 190 l 1,39,40
 699 138 699 138 847 138 c 0,41,42
 959 138 959 138 998 217 c 0,43,44
 1013 246 1013 246 1012.5 295 c 128,-1,45
 1012 344 1012 344 986.5 385.5 c 128,-1,46
 961 427 961 427 923 463 c 128,-1,47
 885 499 885 499 840.5 534.5 c 128,-1,48
 796 570 796 570 758 614 c 0,49,50
 670 718 670 718 670 851 c 0,51,52
 670 954 670 954 774.5 1068 c 128,-1,53
 879 1182 879 1182 879 1275 c 0,0,1
EndSplineSet
EndChar

StartChar: ae
Encoding: 230 230 189
Width: 1780
GlyphClass: 2
Flags: W
LayerCount: 2
Fore
SplineSet
862 162 m 1,0,1
 711 -16 711 -16 449 -16 c 0,2,3
 293 -16 293 -16 196 70 c 1,4,5
 94 158 94 158 94 305 c 0,6,7
 94 517 94 517 316 614 c 1,8,9
 490 688 490 688 751 688 c 1,10,-1
 751 803 l 2,11,12
 751 918 751 918 696 958 c 0,13,14
 650 991 650 991 527 991 c 0,15,16
 413 991 413 991 265 934 c 0,17,18
 226 919 226 919 204 905 c 1,19,-1
 150 1052 l 1,20,21
 234 1104 234 1104 446 1144 c 0,22,23
 515 1157 515 1157 577 1157 c 128,-1,24
 639 1157 639 1157 689.5 1150.5 c 128,-1,25
 740 1144 740 1144 782 1128 c 0,26,27
 868 1095 868 1095 908 1014 c 1,28,29
 1046 1156 1046 1156 1270 1156 c 0,30,31
 1445 1156 1445 1156 1556 1050 c 1,32,33
 1677 932 1677 932 1683 726 c 1,34,35
 1683 574 1683 574 1672 522 c 1,36,-1
 970 522 l 1,37,38
 976 397 976 397 1004.5 330 c 128,-1,39
 1033 263 1033 263 1079 223 c 0,40,41
 1162 151 1162 151 1316 151 c 0,42,43
 1426 151 1426 151 1547 188 c 0,44,45
 1584 200 1584 200 1605 212 c 1,46,-1
 1647 86 l 1,47,48
 1564 18 1564 18 1368 -8 c 0,49,50
 1311 -16 1311 -16 1259 -16 c 0,51,52
 992 -16 992 -16 862 162 c 1,0,1
1478 712 m 0,53,54
 1478 1000 1478 1000 1251 1000 c 0,55,56
 1011 1000 1011 1000 975 668 c 1,57,-1
 1477 668 l 1,58,59
 1478 690 1478 690 1478 712 c 0,53,54
348.5 428.5 m 128,-1,61
 315 390 315 390 315 313 c 0,62,63
 315 148 315 148 504 148 c 0,64,65
 637 148 637 148 746 226 c 0,66,67
 779 250 779 250 800 279 c 1,68,69
 758 393 758 393 754 550 c 1,70,-1
 753 548 l 1,71,72
 548 548 548 548 438 493 c 1,73,60
 382 467 382 467 348.5 428.5 c 128,-1,61
EndSplineSet
EndChar

StartChar: ccedilla
Encoding: 231 231 190
Width: 1002
GlyphClass: 2
Flags: W
LayerCount: 2
Fore
SplineSet
303 -294 m 1,0,1
 326 -308 326 -308 385 -308 c 0,2,3
 517 -308 517 -308 517 -87 c 0,4,5
 517 -42 517 -42 507 -8 c 1,6,7
 313 23 313 23 203 180 c 0,8,9
 97 332 97 332 97 558 c 0,10,11
 97 821 97 821 235 983 c 0,12,13
 382 1156 382 1156 648 1156 c 0,14,15
 836 1156 836 1156 928 1097 c 1,16,-1
 893 923 l 1,17,18
 804 986 804 986 637 986 c 0,19,20
 506 986 506 986 418 896 c 0,21,22
 309 783 309 783 309 566 c 0,23,24
 309 379 309 379 397.5 264.5 c 128,-1,25
 486 150 486 150 631 150 c 0,26,27
 745 150 745 150 855 194 c 0,28,29
 884 205 884 205 903 217 c 1,30,-1
 948 92 l 1,31,32
 849 -1 849 -1 647 -14 c 1,33,34
 677 -79 677 -79 677 -178 c 0,35,36
 677 -401 677 -401 519 -451 c 0,37,38
 478 -464 478 -464 446.5 -464 c 128,-1,39
 415 -464 415 -464 392.5 -462 c 128,-1,40
 370 -460 370 -460 350 -456 c 0,41,42
 304 -447 304 -447 288 -436 c 1,43,-1
 303 -294 l 1,0,1
EndSplineSet
EndChar

StartChar: idieresis
Encoding: 239 239 198
Width: 606
GlyphClass: 2
Flags: W
LayerCount: 2
Fore
SplineSet
567 1374 m 128,-1,1
 539 1363 539 1363 510.5 1363 c 128,-1,2
 482 1363 482 1363 458 1372 c 128,-1,3
 434 1381 434 1381 416 1398 c 0,4,5
 378 1435 378 1435 378 1479.5 c 128,-1,6
 378 1524 378 1524 391.5 1551 c 128,-1,7
 405 1578 405 1578 426 1598 c 0,8,9
 472 1642 472 1642 519.5 1642 c 128,-1,10
 567 1642 567 1642 591.5 1632 c 128,-1,11
 616 1622 616 1622 632 1604 c 0,12,13
 663 1569 663 1569 663 1524 c 128,-1,14
 663 1479 663 1479 650 1451.5 c 128,-1,15
 637 1424 637 1424 616 1404.5 c 128,-1,0
 595 1385 595 1385 567 1374 c 128,-1,1
133 1374 m 128,-1,17
 105 1363 105 1363 76.5 1363 c 128,-1,18
 48 1363 48 1363 24 1372 c 128,-1,19
 0 1381 0 1381 -18 1398 c 0,20,21
 -56 1435 -56 1435 -56 1479.5 c 128,-1,22
 -56 1524 -56 1524 -42.5 1551 c 128,-1,23
 -29 1578 -29 1578 -7 1598 c 0,24,25
 40 1642 40 1642 86.5 1642 c 128,-1,26
 133 1642 133 1642 157.5 1632 c 128,-1,27
 182 1622 182 1622 198 1604 c 0,28,29
 229 1569 229 1569 229 1524 c 128,-1,30
 229 1479 229 1479 216 1451.5 c 128,-1,31
 203 1424 203 1424 182 1404.5 c 128,-1,16
 161 1385 161 1385 133 1374 c 128,-1,17
193 1138 m 1,32,-1
 413 1138 l 1,33,-1
 413 0 l 1,34,-1
 193 0 l 1,35,-1
 193 1138 l 1,32,-1
EndSplineSet
EndChar

StartChar: eth
Encoding: 240 240 199
Width: 1190
GlyphClass: 2
Flags: W
LayerCount: 2
Fore
SplineSet
793 1721 m 1,0,1
 688 1601 688 1601 661 1574 c 1,2,3
 997 1316 997 1316 1085 896 c 0,4,5
 1114 759 1114 759 1114 604 c 128,-1,6
 1114 449 1114 449 1077.5 330.5 c 128,-1,7
 1041 212 1041 212 974 133 c 0,8,9
 840 -27 840 -27 596 -27 c 0,10,11
 370 -27 370 -27 234 128 c 0,12,13
 95 285 95 285 95 553 c 0,14,15
 95 831 95 831 236 994 c 0,16,17
 374 1154 374 1154 606 1154 c 1,18,19
 733 1152 733 1152 820 1080 c 1,20,21
 742 1294 742 1294 553 1455 c 1,22,-1
 419 1306 l 1,23,-1
 304 1396 l 1,24,-1
 437 1539 l 1,25,26
 330 1608 330 1608 222 1646 c 1,27,-1
 274 1771 l 1,28,29
 416 1726 416 1726 542 1653 c 1,30,31
 577 1690 577 1690 676 1811 c 1,32,-1
 793 1721 l 1,0,1
895 554 m 1,33,-1
 896 700 l 2,34,35
 896 769 896 769 890 849 c 1,36,37
 870 939 870 939 732 976 c 0,38,39
 682 990 682 990 610 990 c 128,-1,40
 538 990 538 990 481.5 958.5 c 128,-1,41
 425 927 425 927 388 870 c 0,42,43
 313 757 313 757 313 561 c 0,44,45
 313 257 313 257 484 157 c 0,46,47
 540 124 540 124 610 124 c 128,-1,48
 680 124 680 124 731.5 154.5 c 128,-1,49
 783 185 783 185 820 241 c 0,50,51
 895 357 895 357 895 554 c 1,33,-1
EndSplineSet
EndChar

StartChar: divide
Encoding: 247 247 206
Width: 1393
GlyphClass: 2
Flags: W
LayerCount: 2
Fore
SplineSet
753.5 1041 m 128,-1,1
 724 1029 724 1029 693.5 1029 c 128,-1,2
 663 1029 663 1029 637.5 1039 c 128,-1,3
 612 1049 612 1049 593 1067 c 0,4,5
 551 1107 551 1107 551 1154.5 c 128,-1,6
 551 1202 551 1202 565 1231 c 128,-1,7
 579 1260 579 1260 602 1282 c 0,8,9
 651 1329 651 1329 701 1329 c 128,-1,10
 751 1329 751 1329 777.5 1318 c 128,-1,11
 804 1307 804 1307 822 1288 c 0,12,13
 857 1249 857 1249 857 1201.5 c 128,-1,14
 857 1154 857 1154 843 1124.5 c 128,-1,15
 829 1095 829 1095 806 1074 c 128,-1,0
 783 1053 783 1053 753.5 1041 c 128,-1,1
229 858 m 1,16,-1
 1164 858 l 1,17,-1
 1164 688 l 1,18,-1
 229 688 l 1,19,-1
 229 858 l 1,16,-1
562 306 m 0,20,21
 550 331 550 331 550 364 c 128,-1,22
 550 397 550 397 564 426 c 128,-1,23
 578 455 578 455 601 477 c 0,24,25
 650 524 650 524 700 524 c 128,-1,26
 750 524 750 524 776.5 513 c 128,-1,27
 803 502 803 502 820 484 c 0,28,29
 856 446 856 446 856 397.5 c 128,-1,30
 856 349 856 349 842 319.5 c 128,-1,31
 828 290 828 290 805 269 c 0,32,33
 757 225 757 225 691 225 c 0,34,35
 598 225 598 225 562 306 c 0,20,21
EndSplineSet
EndChar

StartChar: oslash
Encoding: 248 248 207
Width: 1213
GlyphClass: 2
Flags: W
LayerCount: 2
Fore
SplineSet
800.5 20.5 m 128,-1,1
 706 -16 706 -16 622.5 -16 c 128,-1,2
 539 -16 539 -16 480 -5 c 1,3,-1
 414 -200 l 1,4,-1
 289 -164 l 1,5,-1
 357 37 l 1,6,7
 96 169 96 169 96 582 c 0,8,9
 96 858 96 858 248 1012 c 0,10,11
 390 1156 390 1156 616 1156 c 0,12,13
 674 1156 674 1156 733 1145 c 1,14,-1
 800 1342 l 1,15,-1
 925 1306 l 1,16,-1
 856 1103 l 1,17,18
 1117 969 1117 969 1117 558 c 0,19,20
 1117 284 1117 284 964 128 c 0,21,0
 895 57 895 57 800.5 20.5 c 128,-1,1
680 988 m 1,22,23
 641 998 641 998 603 998 c 0,24,25
 465 998 465 998 392 893 c 128,-1,26
 319 788 319 788 319 591 c 0,27,28
 319 350 319 350 421 226 c 1,29,-1
 680 988 l 1,22,23
533 151 m 1,30,31
 566 140 566 140 622 140 c 128,-1,32
 678 140 678 140 731 167 c 128,-1,33
 784 194 784 194 820 248 c 1,34,35
 894 355 894 355 894 556 c 0,36,37
 894 797 894 797 792 915 c 1,38,-1
 533 151 l 1,30,31
EndSplineSet
EndChar

StartChar: thorn
Encoding: 254 254 213
Width: 1238
GlyphClass: 2
Flags: W
LayerCount: 2
Fore
SplineSet
802 28.5 m 128,-1,1
 696 -18 696 -18 594.5 -18 c 128,-1,2
 493 -18 493 -18 373 2 c 1,3,-1
 386 -169 l 1,4,-1
 386 -507 l 1,5,-1
 166 -507 l 1,6,-1
 166 1661 l 1,7,-1
 386 1661 l 1,8,-1
 386 1189 l 1,9,-1
 378 1030 l 1,10,11
 504 1156 504 1156 691 1156 c 0,12,13
 883 1156 883 1156 1006 1022 c 0,14,15
 1141 876 1141 876 1141 612 c 0,16,17
 1141 333 1141 333 984 158 c 1,18,0
 908 75 908 75 802 28.5 c 128,-1,1
630 983 m 0,19,20
 506 983 506 983 386 890 c 1,21,-1
 386 184 l 1,22,23
 443 144 443 144 591 144 c 0,24,25
 734 144 734 144 822 256 c 0,26,27
 917 377 917 377 917 592 c 0,28,29
 917 983 917 983 630 983 c 0,19,20
EndSplineSet
EndChar

StartChar: Aogonek
Encoding: 260 260 219
Width: 1407
GlyphClass: 2
Flags: W
LayerCount: 2
Fore
SplineSet
1394 -453 m 1,0,1
 1317 -512 1317 -512 1157 -512 c 0,2,3
 986 -512 986 -512 930 -392 c 0,4,5
 911 -351 911 -351 911 -301.5 c 128,-1,6
 911 -252 911 -252 935 -208 c 128,-1,7
 959 -164 959 -164 998 -126 c 0,8,9
 1069 -55 1069 -55 1177 0 c 1,10,-1
 1145 0 l 1,11,-1
 1015 385 l 1,12,-1
 393 385 l 1,13,-1
 257 0 l 1,14,-1
 21 0 l 1,15,-1
 603 1538 l 1,16,-1
 818 1538 l 1,17,-1
 1386 0 l 1,18,-1
 1347 0 l 1,19,20
 1197 -85 1197 -85 1144 -190 c 0,21,22
 1127 -223 1127 -223 1127 -255 c 0,23,24
 1127 -364 1127 -364 1255 -364 c 0,25,26
 1320 -364 1320 -364 1394 -335 c 1,27,-1
 1394 -453 l 1,0,1
959 551 m 1,28,-1
 755 1160 l 1,29,-1
 712 1302 l 1,30,-1
 668 1160 l 1,31,-1
 452 551 l 1,32,-1
 959 551 l 1,28,-1
EndSplineSet
EndChar

StartChar: aogonek
Encoding: 261 261 220
Width: 1131
GlyphClass: 2
Flags: W
LayerCount: 2
Fore
SplineSet
793 -1 m 1,0,1
 763 19 763 19 763 88 c 2,2,-1
 763 96 l 1,3,4
 681 21 681 21 542 -6 c 0,5,6
 494 -16 494 -16 430.5 -16 c 128,-1,7
 367 -16 367 -16 303 6 c 128,-1,8
 239 28 239 28 192 70 c 0,9,10
 94 157 94 157 94 305 c 0,11,12
 94 416 94 416 154 494 c 0,13,14
 280 658 280 658 646 684 c 0,15,16
 702 688 702 688 750 688 c 1,17,-1
 750 803 l 2,18,19
 750 918 750 918 690 958 c 0,20,21
 640 991 640 991 507 991 c 0,22,23
 392 991 392 991 254 936 c 0,24,25
 218 922 218 922 199 908 c 1,26,-1
 145 1052 l 1,27,28
 231 1106 231 1106 430 1144 c 0,29,30
 498 1157 498 1157 576.5 1157 c 128,-1,31
 655 1157 655 1157 729.5 1142.5 c 128,-1,32
 804 1128 804 1128 858 1088 c 0,33,34
 970 1004 970 1004 970 794 c 2,35,-1
 970 -16 l 1,36,-1
 955 -16 l 1,37,38
 775 -130 775 -130 775 -254 c 0,39,40
 775 -364 775 -364 903 -364 c 0,41,42
 968 -364 968 -364 1042 -335 c 1,43,-1
 1042 -453 l 1,44,45
 965 -512 965 -512 805 -512 c 0,46,47
 635 -512 635 -512 578 -392 c 0,48,49
 559 -353 559 -353 558.5 -305.5 c 128,-1,50
 558 -258 558 -258 578 -214 c 128,-1,51
 598 -170 598 -170 631 -130 c 0,52,53
 697 -51 697 -51 793 -1 c 1,0,1
311 324 m 0,54,55
 311 148 311 148 508 148 c 0,56,57
 617 148 617 148 716 205 c 0,58,59
 741 219 741 219 750 229 c 1,60,-1
 750 548 l 1,61,62
 633 548 633 548 551 528 c 128,-1,63
 469 508 469 508 439.5 494 c 128,-1,64
 410 480 410 480 387 464.5 c 128,-1,65
 364 449 364 449 347 428 c 0,66,67
 311 385 311 385 311 324 c 0,54,55
EndSplineSet
EndChar

StartChar: dcroat
Encoding: 273 273 232
Width: 1237
GlyphClass: 2
Flags: W
LayerCount: 2
Fore
SplineSet
863 112 m 1,0,1
 735 -16 735 -16 546 -16 c 0,2,3
 355 -16 355 -16 232 118 c 0,4,5
 97 264 97 264 97 528 c 0,6,7
 97 807 97 807 253 980 c 0,8,9
 411 1156 411 1156 668 1156 c 0,10,11
 767 1156 767 1156 854 1127 c 1,12,-1
 851 1189 l 1,13,-1
 851 1306 l 1,14,-1
 581 1306 l 1,15,-1
 581 1447 l 1,16,-1
 851 1447 l 1,17,-1
 851 1664 l 1,18,-1
 1071 1664 l 1,19,-1
 1071 1447 l 1,20,-1
 1212 1447 l 1,21,-1
 1212 1306 l 1,22,-1
 1071 1306 l 1,23,-1
 1071 -16 l 1,24,-1
 976 -16 l 2,25,26
 917 -16 917 -16 898 -4 c 0,27,28
 863 17 863 17 863 72 c 2,29,-1
 863 112 l 1,0,1
851 946 m 1,30,31
 794 996 794 996 646 996 c 0,32,33
 504 996 504 996 416 884 c 0,34,35
 321 763 321 763 321 556 c 0,36,37
 321 157 321 157 607 157 c 0,38,39
 733 157 733 157 851 249 c 1,40,-1
 851 946 l 1,30,31
EndSplineSet
EndChar

StartChar: Eogonek
Encoding: 280 280 239
Width: 1217
GlyphClass: 2
Flags: W
LayerCount: 2
Fore
SplineSet
1140 -453 m 1,0,1
 1063 -512 1063 -512 903 -512 c 0,2,3
 731 -512 731 -512 676 -401 c 0,4,5
 657 -361 657 -361 657 -311.5 c 128,-1,6
 657 -262 657 -262 677 -216.5 c 128,-1,7
 697 -171 697 -171 733 -130 c 0,8,9
 807 -47 807 -47 920 0 c 1,10,-1
 194 0 l 1,11,-1
 194 1522 l 1,12,-1
 1070 1522 l 1,13,-1
 1070 1350 l 1,14,-1
 417 1350 l 1,15,-1
 417 870 l 1,16,-1
 896 870 l 1,17,-1
 896 698 l 1,18,-1
 417 698 l 1,19,-1
 417 175 l 1,20,-1
 1143 175 l 1,21,-1
 1143 0 l 1,22,-1
 1093 0 l 1,23,24
 943 -85 943 -85 890 -190 c 0,25,26
 873 -223 873 -223 873 -255 c 0,27,28
 873 -364 873 -364 1001 -364 c 0,29,30
 1066 -364 1066 -364 1140 -335 c 1,31,-1
 1140 -453 l 1,0,1
EndSplineSet
EndChar

StartChar: eogonek
Encoding: 281 281 240
Width: 1123
GlyphClass: 2
Flags: W
LayerCount: 2
Fore
SplineSet
712 -8 m 1,0,1
 654 -16 654 -16 602 -16 c 0,2,3
 360 -16 360 -16 228 140 c 0,4,5
 97 294 97 294 97 572 c 0,6,7
 97 829 97 829 226 986 c 0,8,9
 366 1156 366 1156 612 1156 c 0,10,11
 787 1156 787 1156 898 1050 c 1,12,13
 1020 931 1020 931 1026 726 c 1,14,15
 1026 574 1026 574 1015 522 c 1,16,-1
 312 522 l 1,17,18
 327 226 327 226 530 168 c 0,19,20
 591 150 591 150 640 150 c 128,-1,21
 689 150 689 150 729.5 155 c 128,-1,22
 770 160 770 160 810 168 c 0,23,24
 903 188 903 188 945 212 c 1,25,-1
 987 86 l 1,26,-1
 971 74 l 1,27,-1
 972 74 l 1,28,29
 870 10 870 10 800 -90 c 0,30,31
 735 -182 735 -182 735 -255 c 0,32,33
 735 -364 735 -364 863 -364 c 0,34,35
 928 -364 928 -364 1002 -335 c 1,36,-1
 1002 -453 l 1,37,38
 925 -512 925 -512 765 -512 c 0,39,40
 595 -512 595 -512 538 -392 c 0,41,42
 519 -353 519 -353 518.5 -309.5 c 128,-1,43
 518 -266 518 -266 532.5 -225 c 128,-1,44
 547 -184 547 -184 573 -144 c 0,45,46
 629 -57 629 -57 712 -8 c 1,0,1
821 712 m 0,47,48
 821 1000 821 1000 594 1000 c 0,49,50
 353 1000 353 1000 317 668 c 1,51,-1
 820 668 l 1,52,53
 821 690 821 690 821 712 c 0,47,48
EndSplineSet
EndChar

StartChar: gcommaaccent
Encoding: 291 291 250
Width: 1217
GlyphClass: 2
Flags: W
LayerCount: 2
Fore
SplineSet
698 1735 m 1,0,1
 659 1688 659 1688 659 1590 c 0,2,3
 659 1523 659 1523 698 1482 c 0,4,5
 711 1469 711 1469 726 1466 c 1,6,-1
 726 1416 l 1,7,-1
 568 1324 l 1,8,9
 505 1356 505 1356 480 1459 c 0,10,11
 471 1494 471 1494 471 1541 c 128,-1,12
 471 1588 471 1588 486 1632 c 128,-1,13
 501 1676 501 1676 524 1710 c 1,14,15
 565 1774 565 1774 623 1802 c 1,16,-1
 698 1761 l 1,17,-1
 698 1735 l 1,0,1
446 397 m 1,18,19
 382 351 382 351 382 283 c 0,20,21
 382 219 382 219 404 201 c 0,22,23
 439 173 439 173 512 173 c 2,24,-1
 719 173 l 2,25,26
 957 173 957 173 1059 73 c 0,27,28
 1139 -5 1139 -5 1139 -145 c 0,29,30
 1139 -312 1139 -312 976 -418 c 1,31,32
 821 -517 821 -517 585 -517 c 0,33,34
 243 -517 243 -517 144 -330 c 0,35,36
 110 -267 110 -267 110 -202.5 c 128,-1,37
 110 -138 110 -138 124.5 -102 c 128,-1,38
 139 -66 139 -66 162 -36 c 0,39,40
 202 15 202 15 269 52 c 1,41,42
 181 102 181 102 181 223 c 1,43,44
 183 280 183 280 219 338.5 c 128,-1,45
 255 397 255 397 321 442 c 1,46,47
 230 490 230 490 177 572 c 128,-1,48
 124 654 124 654 124 758 c 128,-1,49
 124 862 124 862 158.5 935 c 128,-1,50
 193 1008 193 1008 254 1056 c 0,51,52
 378 1156 378 1156 591 1156 c 0,53,54
 748 1156 748 1156 863 1087 c 1,55,56
 954 1148 954 1148 1076 1148 c 2,57,-1
 1187 1148 l 1,58,-1
 1187 973 l 1,59,-1
 978 973 l 1,60,61
 1029 886 1029 886 1029 783 c 128,-1,62
 1029 680 1029 680 993.5 607 c 128,-1,63
 958 534 958 534 896 484 c 0,64,65
 772 384 772 384 570 384 c 0,66,67
 502 384 502 384 446 397 c 1,18,19
810 767 m 0,68,69
 810 1007 810 1007 585 1007 c 0,70,71
 415 1007 415 1007 363 890 c 0,72,73
 343 844 343 844 343 784 c 128,-1,74
 343 724 343 724 356 680.5 c 128,-1,75
 369 637 369 637 397 604 c 0,76,77
 458 531 458 531 575 531 c 0,78,79
 751 531 751 531 794 654 c 0,80,81
 810 699 810 699 810 767 c 0,68,69
397 7 m 1,82,83
 324 -56 324 -56 324 -155 c 0,84,85
 324 -314 324 -314 469 -352 c 0,86,87
 520 -366 520 -366 590 -366 c 128,-1,88
 660 -366 660 -366 720.5 -355 c 128,-1,89
 781 -344 781 -344 828 -322 c 0,90,91
 929 -276 929 -276 929 -193 c 0,92,93
 929 -93 929 -93 874 -50 c 0,94,95
 810 0 810 0 647 0 c 2,96,-1
 545 0 l 2,97,98
 440 0 440 0 397 7 c 1,82,83
EndSplineSet
EndChar

StartChar: Hbar
Encoding: 294 294 253
Width: 1563
GlyphClass: 2
Flags: W
LayerCount: 2
Fore
SplineSet
194 1065 m 1,0,-1
 8 1065 l 1,1,-1
 8 1207 l 1,2,-1
 194 1207 l 1,3,-1
 194 1522 l 1,4,-1
 417 1522 l 1,5,-1
 417 1207 l 1,6,-1
 1146 1207 l 1,7,-1
 1146 1522 l 1,8,-1
 1369 1522 l 1,9,-1
 1369 1207 l 1,10,-1
 1558 1207 l 1,11,-1
 1558 1065 l 1,12,-1
 1369 1065 l 1,13,-1
 1369 0 l 1,14,-1
 1146 0 l 1,15,-1
 1146 674 l 1,16,-1
 417 674 l 1,17,-1
 417 0 l 1,18,-1
 194 0 l 1,19,-1
 194 1065 l 1,0,-1
1146 845 m 1,20,-1
 1146 1065 l 1,21,-1
 417 1065 l 1,22,-1
 417 845 l 1,23,-1
 1146 845 l 1,20,-1
EndSplineSet
EndChar

StartChar: hbar
Encoding: 295 295 254
Width: 1289
GlyphClass: 2
Flags: W
LayerCount: 2
Fore
SplineSet
176 1284 m 1,0,-1
 36 1284 l 1,1,-1
 36 1416 l 1,2,-1
 176 1416 l 1,3,-1
 176 1664 l 1,4,-1
 396 1664 l 1,5,-1
 396 1416 l 1,6,-1
 628 1416 l 1,7,-1
 628 1284 l 1,8,-1
 396 1284 l 1,9,-1
 396 1189 l 1,10,-1
 386 1027 l 1,11,12
 499 1109 499 1109 661 1144 c 0,13,14
 725 1157 725 1157 795.5 1157 c 128,-1,15
 866 1157 866 1157 930 1133 c 128,-1,16
 994 1109 994 1109 1036 1053 c 0,17,18
 1119 944 1119 944 1119 695 c 2,19,-1
 1119 0 l 1,20,-1
 899 0 l 1,21,-1
 899 711 l 2,22,23
 899 857 899 857 854 914 c 0,24,25
 807 974 807 974 699 974 c 0,26,27
 589 974 589 974 468 913 c 0,28,29
 430 894 430 894 396 869 c 1,30,-1
 396 0 l 1,31,-1
 176 0 l 1,32,-1
 176 1284 l 1,0,-1
EndSplineSet
EndChar

StartChar: Iogonek
Encoding: 302 302 261
Width: 640
GlyphClass: 2
Flags: W
LayerCount: 2
Fore
SplineSet
536 -453 m 1,0,1
 457 -512 457 -512 309 -512 c 0,2,3
 193 -512 193 -512 120 -454 c 1,4,5
 43 -391 43 -391 43 -287 c 0,6,7
 43 -208 43 -208 104 -124 c 0,8,9
 155 -53 155 -53 240 0 c 1,10,-1
 207 0 l 1,11,-1
 207 1522 l 1,12,-1
 433 1522 l 1,13,-1
 433 0 l 1,14,-1
 408 0 l 1,15,16
 259 -94 259 -94 259 -240 c 0,17,18
 259 -364 259 -364 397 -364 c 0,19,20
 462 -364 462 -364 536 -335 c 1,21,-1
 536 -453 l 1,0,1
EndSplineSet
EndChar

StartChar: iogonek
Encoding: 303 303 262
Width: 606
GlyphClass: 2
Flags: W
LayerCount: 2
Fore
SplineSet
355.5 1358.5 m 128,-1,1
 326 1347 326 1347 296.5 1347 c 128,-1,2
 267 1347 267 1347 241.5 1356.5 c 128,-1,3
 216 1366 216 1366 196 1384 c 0,4,5
 154 1422 154 1422 154 1468.5 c 128,-1,6
 154 1515 154 1515 168 1543.5 c 128,-1,7
 182 1572 182 1572 205 1593 c 0,8,9
 254 1638 254 1638 303 1638 c 128,-1,10
 352 1638 352 1638 378.5 1627.5 c 128,-1,11
 405 1617 405 1617 422 1598 c 1,12,13
 457 1562 457 1562 457 1515 c 128,-1,14
 457 1468 457 1468 443.5 1439.5 c 128,-1,15
 430 1411 430 1411 407.5 1390.5 c 128,-1,0
 385 1370 385 1370 355.5 1358.5 c 128,-1,1
516 -453 m 1,16,17
 437 -512 437 -512 289 -512 c 0,18,19
 173 -512 173 -512 100 -454 c 1,20,21
 23 -391 23 -391 23 -287 c 0,22,23
 23 -208 23 -208 84 -124 c 0,24,25
 135 -53 135 -53 220 0 c 1,26,-1
 193 0 l 1,27,-1
 193 1138 l 1,28,-1
 413 1138 l 1,29,-1
 413 0 l 1,30,-1
 388 0 l 1,31,32
 239 -94 239 -94 239 -240 c 0,33,34
 239 -364 239 -364 377 -364 c 0,35,36
 442 -364 442 -364 516 -335 c 1,37,-1
 516 -453 l 1,16,17
EndSplineSet
EndChar

StartChar: dotlessi
Encoding: 305 305 264
Width: 606
GlyphClass: 2
Flags: W
LayerCount: 2
Fore
SplineSet
193 1138 m 1,0,-1
 413 1138 l 1,1,-1
 413 0 l 1,2,-1
 193 0 l 1,3,-1
 193 1138 l 1,0,-1
EndSplineSet
EndChar

StartChar: kgreenlandic
Encoding: 312 312 271
Width: 1169
GlyphClass: 2
Flags: W
LayerCount: 2
Fore
SplineSet
181 1140 m 1,0,-1
 401 1140 l 1,1,-1
 401 659 l 1,2,-1
 398 579 l 1,3,-1
 878 1140 l 1,4,-1
 1129 1140 l 1,5,-1
 690 658 l 1,6,-1
 1168 0 l 1,7,-1
 917 0 l 1,8,-1
 550 504 l 1,9,-1
 398 336 l 1,10,-1
 404 190 l 1,11,-1
 404 0 l 1,12,-1
 184 0 l 1,13,-1
 181 1140 l 1,0,-1
EndSplineSet
EndChar

StartChar: lacute
Encoding: 314 314 273
Width: 631
GlyphClass: 2
Flags: W
LayerCount: 2
Fore
SplineSet
197 1532 m 1,0,-1
 417 1532 l 1,1,-1
 417 0 l 1,2,-1
 197 0 l 1,3,-1
 197 1532 l 1,0,-1
184 1665 m 1,4,5
 186 1666 186 1666 211.5 1689.5 c 128,-1,6
 237 1713 237 1713 275 1746.5 c 128,-1,7
 313 1780 313 1780 356.5 1819.5 c 128,-1,8
 400 1859 400 1859 438 1894 c 0,9,10
 525 1974 525 1974 527 1980 c 1,11,-1
 673 1847 l 1,12,13
 554 1724 554 1724 374 1620 c 0,14,15
 320 1588 320 1588 277 1573 c 1,16,-1
 184 1665 l 1,4,5
EndSplineSet
EndChar

StartChar: Lslash
Encoding: 321 321 280
Width: 1080
GlyphClass: 2
Flags: W
LayerCount: 2
Fore
SplineSet
194 613 m 1,0,-1
 71 568 l 1,1,-1
 18 704 l 1,2,-1
 194 769 l 1,3,-1
 194 1522 l 1,4,-1
 422 1522 l 1,5,-1
 422 853 l 1,6,-1
 812 997 l 1,7,-1
 865 859 l 1,8,-1
 422 696 l 1,9,-1
 422 175 l 1,10,-1
 1026 175 l 1,11,-1
 1026 0 l 1,12,-1
 194 0 l 1,13,-1
 194 613 l 1,0,-1
EndSplineSet
EndChar

StartChar: lslash
Encoding: 322 322 281
Width: 613
GlyphClass: 2
Flags: W
LayerCount: 2
Fore
SplineSet
197 749 m 1,0,-1
 50 693 l 1,1,-1
 50 844 l 1,2,-1
 197 903 l 1,3,-1
 197 1664 l 1,4,-1
 417 1664 l 1,5,-1
 417 991 l 1,6,-1
 616 1071 l 1,7,-1
 616 910 l 1,8,-1
 417 834 l 1,9,-1
 417 0 l 1,10,-1
 197 0 l 1,11,-1
 197 749 l 1,0,-1
EndSplineSet
EndChar

StartChar: Eng
Encoding: 330 330 289
Width: 1584
GlyphClass: 2
Flags: W
LayerCount: 2
Fore
SplineSet
193 1522 m 1,0,-1
 398 1522 l 1,1,-1
 1075 508 l 1,2,-1
 1186 301 l 1,3,-1
 1171 541 l 1,4,-1
 1171 1522 l 1,5,-1
 1390 1522 l 1,6,-1
 1390 539 l 2,7,8
 1390 399 1390 399 1389 277.5 c 128,-1,9
 1388 156 1388 156 1370 71 c 128,-1,10
 1352 -14 1352 -14 1321 -73 c 128,-1,11
 1290 -132 1290 -132 1247.5 -180.5 c 128,-1,12
 1205 -229 1205 -229 1153 -268 c 128,-1,13
 1101 -307 1101 -307 1046 -336 c 1,14,15
 937 -391 937 -391 824 -406 c 1,16,-1
 767 -301 l 1,17,18
 905 -263 905 -263 1024 -162 c 0,19,20
 1153 -53 1153 -53 1153 45 c 1,21,-1
 525 976 l 1,22,-1
 402 1194 l 1,23,-1
 412 955 l 1,24,-1
 412 0 l 1,25,-1
 195 0 l 1,26,-1
 193 1522 l 1,0,-1
EndSplineSet
EndChar

StartChar: eng
Encoding: 331 331 290
Width: 1279
GlyphClass: 2
Flags: W
LayerCount: 2
Fore
SplineSet
638 -341 m 1,0,1
 667 -352 667 -352 728.5 -352 c 128,-1,2
 790 -352 790 -352 818 -337.5 c 128,-1,3
 846 -323 846 -323 862 -288 c 0,4,5
 889 -225 889 -225 889 -45 c 2,6,-1
 889 711 l 2,7,8
 889 859 889 859 850 914 c 1,9,10
 810 974 810 974 703 974 c 0,11,12
 591 974 591 974 468 913 c 0,13,14
 430 894 430 894 396 869 c 1,15,-1
 396 0 l 1,16,-1
 176 0 l 1,17,-1
 176 1138 l 1,18,-1
 371 1138 l 1,19,-1
 372 1018 l 1,20,21
 496 1103 496 1103 657 1142 c 0,22,23
 723 1157 723 1157 795 1157 c 128,-1,24
 867 1157 867 1157 929 1136 c 128,-1,25
 991 1115 991 1115 1032 1063 c 0,26,27
 1109 963 1109 963 1109 714 c 2,28,-1
 1109 -16 l 2,29,30
 1109 -507 1109 -507 792 -507 c 0,31,32
 671 -507 671 -507 638 -493 c 1,33,-1
 638 -341 l 1,0,1
EndSplineSet
EndChar

StartChar: OE
Encoding: 338 338 297
Width: 2063
GlyphClass: 2
Flags: W
LayerCount: 2
Fore
SplineSet
1040 50 m 1,0,1
 921 -16 921 -16 766 -16 c 128,-1,2
 611 -16 611 -16 488 41 c 0,3,4
 237 158 237 158 143 453 c 0,5,6
 100 589 100 589 100 748 c 0,7,8
 100 1128 100 1128 303 1336 c 0,9,10
 500 1538 500 1538 825 1538 c 0,11,12
 945 1538 945 1538 1040 1498 c 1,13,-1
 1040 1522 l 1,14,-1
 1916 1522 l 1,15,-1
 1916 1350 l 1,16,-1
 1263 1350 l 1,17,-1
 1263 870 l 1,18,-1
 1742 870 l 1,19,-1
 1742 698 l 1,20,-1
 1263 698 l 1,21,-1
 1263 175 l 1,22,-1
 1989 175 l 1,23,-1
 1989 0 l 1,24,-1
 1040 0 l 1,25,-1
 1040 50 l 1,0,1
1040 1309 m 1,26,27
 947 1369 947 1369 826.5 1369 c 128,-1,28
 706 1369 706 1369 620 1333.5 c 128,-1,29
 534 1298 534 1298 468 1223 c 0,30,31
 324 1059 324 1059 324 758 c 0,32,33
 324 503 324 503 441 334 c 0,34,35
 568 152 568 152 784 152 c 0,36,37
 936 152 936 152 1040 232 c 1,38,-1
 1040 1309 l 1,26,27
EndSplineSet
EndChar

StartChar: oe
Encoding: 339 339 298
Width: 1920
GlyphClass: 2
Flags: W
LayerCount: 2
Fore
SplineSet
998 175 m 1,0,1
 857 -16 857 -16 593 -16 c 0,2,3
 336 -16 336 -16 206 167 c 0,4,5
 96 323 96 323 96 577 c 0,6,7
 96 856 96 856 248 1012 c 0,8,9
 389 1156 389 1156 616 1156 c 0,10,11
 878 1156 878 1156 1006 963 c 1,12,13
 1146 1156 1146 1156 1409 1156 c 0,14,15
 1585 1156 1585 1156 1696 1050 c 1,16,17
 1817 932 1817 932 1823 726 c 1,18,19
 1823 574 1823 574 1812 522 c 1,20,-1
 1109 522 l 1,21,22
 1124 224 1124 224 1325 168 c 0,23,24
 1386 151 1386 151 1435 151 c 128,-1,25
 1484 151 1484 151 1525 156 c 128,-1,26
 1566 161 1566 161 1608 169 c 0,27,28
 1700 187 1700 187 1744 212 c 1,29,-1
 1786 86 l 1,30,31
 1703 18 1703 18 1506 -8 c 0,32,33
 1450 -16 1450 -16 1399 -16 c 0,34,35
 1128 -16 1128 -16 998 175 c 1,0,1
1617 712 m 0,36,37
 1617 1000 1617 1000 1390 1000 c 0,38,39
 1150 1000 1150 1000 1114 668 c 1,40,-1
 1616 668 l 1,41,42
 1617 690 1617 690 1617 712 c 0,36,37
819.5 247.5 m 128,-1,44
 895 355 895 355 895 556 c 0,45,46
 895 860 895 860 737 962 c 0,47,48
 681 998 681 998 609 998 c 128,-1,49
 537 998 537 998 483.5 972.5 c 128,-1,50
 430 947 430 947 394 895 c 0,51,52
 319 789 319 789 319 591 c 0,53,54
 319 398 319 398 391.5 269 c 128,-1,55
 464 140 464 140 604 140 c 128,-1,43
 744 140 744 140 819.5 247.5 c 128,-1,44
EndSplineSet
EndChar

StartChar: Scedilla
Encoding: 350 350 309
Width: 1132
GlyphClass: 2
Flags: W
LayerCount: 2
Fore
SplineSet
374 -308 m 0,0,1
 506 -308 506 -308 506 -89 c 0,2,3
 506 -47 506 -47 497 -14 c 1,4,5
 316 -6 316 -6 182 46 c 0,6,7
 146 59 146 59 128 71 c 1,8,-1
 181 254 l 1,9,10
 282 193 282 193 436 169 c 0,11,12
 488 161 488 161 540 161 c 0,13,14
 843 161 843 161 843 372 c 0,15,16
 843 475 843 475 755 548 c 0,17,18
 696 597 696 597 565.5 660 c 128,-1,19
 435 723 435 723 366.5 768 c 128,-1,20
 298 813 298 813 244 870 c 0,21,22
 125 997 125 997 125 1147 c 0,23,24
 125 1409 125 1409 390 1502 c 0,25,26
 495 1538 495 1538 597.5 1538 c 128,-1,27
 700 1538 700 1538 756.5 1530.5 c 128,-1,28
 813 1523 813 1523 857 1512 c 0,29,30
 936 1491 936 1491 985 1459 c 1,31,-1
 940 1283 l 1,32,33
 810 1363 810 1363 628 1363 c 0,34,35
 434 1363 434 1363 363 1262 c 0,36,37
 338 1226 338 1226 338 1173.5 c 128,-1,38
 338 1121 338 1121 354.5 1080.5 c 128,-1,39
 371 1040 371 1040 408 1006 c 1,40,41
 463 953 463 953 576.5 895 c 128,-1,42
 690 837 690 837 740 809 c 128,-1,43
 790 781 790 781 837 749.5 c 128,-1,44
 884 718 884 718 925 681.5 c 128,-1,45
 966 645 966 645 996 602 c 0,46,47
 1062 508 1062 508 1062 405 c 128,-1,48
 1062 302 1062 302 1031 229 c 128,-1,49
 1000 156 1000 156 944 105 c 0,50,51
 834 5 834 5 635 -12 c 1,52,53
 666 -76 666 -76 666 -177 c 0,54,55
 666 -401 666 -401 508 -451 c 0,56,57
 467 -464 467 -464 435.5 -464 c 128,-1,58
 404 -464 404 -464 381.5 -462 c 128,-1,59
 359 -460 359 -460 339 -456 c 0,60,61
 293 -447 293 -447 277 -436 c 1,62,-1
 292 -294 l 1,63,64
 315 -308 315 -308 374 -308 c 0,0,1
EndSplineSet
Substitution2: "'locl' Localized Forms lookup 7 subtable" uni0218
Substitution2: "'locl' Localized Forms lookup 6 subtable" uni0218
Substitution2: "'aalt' Access All Alternates in Latin lookup 0 subtable" uni0218
EndChar

StartChar: scedilla
Encoding: 351 351 310
Width: 977
GlyphClass: 2
Flags: W
LayerCount: 2
Fore
SplineSet
304 -308 m 0,0,1
 436 -308 436 -308 436 -89 c 0,2,3
 436 -48 436 -48 427 -15 c 1,4,5
 273 -6 273 -6 162 39 c 0,6,7
 130 52 130 52 112 65 c 1,8,-1
 145 229 l 1,9,10
 213 184 213 184 358 158 c 0,11,12
 417 147 417 147 492 147 c 128,-1,13
 567 147 567 147 619.5 183.5 c 128,-1,14
 672 220 672 220 672 287 c 0,15,16
 672 376 672 376 528 447 c 0,17,18
 486 468 486 468 427.5 493 c 128,-1,19
 369 518 369 518 310 552 c 0,20,21
 119 665 119 665 119 854 c 0,22,23
 119 1000 119 1000 242 1082 c 0,24,25
 352 1156 352 1156 531 1156 c 0,26,27
 667 1156 667 1156 780 1114 c 0,28,29
 807 1104 807 1104 820 1097 c 1,30,-1
 784 931 l 1,31,32
 736 971 736 971 616 988 c 0,33,34
 578 994 578 994 538 994 c 0,35,36
 432 994 432 994 377 960.5 c 128,-1,37
 322 927 322 927 322 878.5 c 128,-1,38
 322 830 322 830 336.5 801 c 128,-1,39
 351 772 351 772 380 748 c 0,40,41
 427 707 427 707 513.5 672 c 128,-1,42
 600 637 600 637 659.5 605.5 c 128,-1,43
 719 574 719 574 768 532 c 0,44,45
 877 436 877 436 877 303 c 0,46,47
 877 101 877 101 696 24 c 0,48,49
 638 -1 638 -1 565 -10 c 1,50,51
 596 -74 596 -74 596 -176 c 0,52,53
 596 -401 596 -401 438 -451 c 0,54,55
 397 -464 397 -464 365.5 -464 c 128,-1,56
 334 -464 334 -464 311.5 -462 c 128,-1,57
 289 -460 289 -460 269 -456 c 0,58,59
 223 -447 223 -447 207 -436 c 1,60,-1
 222 -294 l 1,61,62
 245 -308 245 -308 304 -308 c 0,0,1
EndSplineSet
Substitution2: "'locl' Localized Forms lookup 7 subtable" uni0219
Substitution2: "'locl' Localized Forms lookup 6 subtable" uni0219
Substitution2: "'aalt' Access All Alternates in Latin lookup 0 subtable" uni0219
EndChar

StartChar: uni0162
Encoding: 354 354 313
Width: 1303
GlyphClass: 2
Flags: W
LayerCount: 2
Fore
SplineSet
374 -294 m 1,0,1
 397 -308 397 -308 456 -308 c 0,2,3
 589 -308 589 -308 589 -89 c 0,4,5
 589 -41 589 -41 575 0 c 1,6,-1
 538 0 l 1,7,-1
 538 1350 l 1,8,-1
 63 1350 l 1,9,-1
 63 1522 l 1,10,-1
 1240 1522 l 1,11,-1
 1240 1350 l 1,12,-1
 763 1350 l 1,13,-1
 763 0 l 1,14,-1
 711 0 l 1,15,16
 748 -66 748 -66 748 -179 c 0,17,18
 748 -401 748 -401 590 -451 c 0,19,20
 549 -464 549 -464 517.5 -464 c 128,-1,21
 486 -464 486 -464 463.5 -462 c 128,-1,22
 441 -460 441 -460 421 -456 c 0,23,24
 375 -447 375 -447 359 -436 c 1,25,-1
 374 -294 l 1,0,1
EndSplineSet
Substitution2: "'locl' Localized Forms lookup 7 subtable" uni021A
Substitution2: "'aalt' Access All Alternates in Latin lookup 0 subtable" uni021A
EndChar

StartChar: uni0163
Encoding: 355 355 314
Width: 850
GlyphClass: 2
Flags: W
LayerCount: 2
Fore
SplineSet
174 -294 m 1,0,1
 197 -308 197 -308 256 -308 c 0,2,3
 389 -308 389 -308 389 -89 c 0,4,5
 389 -41 389 -41 375 0 c 1,6,7
 228 45 228 45 228 273 c 2,8,-1
 228 974 l 1,9,-1
 80 974 l 1,10,-1
 80 1093 l 1,11,12
 117 1104 117 1104 145 1111.5 c 128,-1,13
 173 1119 173 1119 193 1128 c 0,14,15
 233 1147 233 1147 248 1186.5 c 128,-1,16
 263 1226 263 1226 278.5 1278.5 c 128,-1,17
 294 1331 294 1331 315 1400 c 1,18,-1
 447 1400 l 1,19,-1
 447 1140 l 1,20,-1
 769 1140 l 1,21,-1
 769 974 l 1,22,-1
 447 974 l 1,23,-1
 447 397 l 2,24,25
 447 236 447 236 465 204 c 128,-1,26
 483 172 483 172 507.5 166 c 128,-1,27
 532 160 532 160 563.5 160 c 128,-1,28
 595 160 595 160 623 164 c 128,-1,29
 651 168 651 168 678 174 c 0,30,31
 741 188 741 188 768 203 c 1,32,-1
 806 77 l 1,33,34
 736 24 736 24 601 -4 c 0,35,36
 559 -12 559 -12 518 -15 c 1,37,38
 548 -78 548 -78 548 -178 c 0,39,40
 548 -401 548 -401 390 -451 c 0,41,42
 349 -464 349 -464 317.5 -464 c 128,-1,43
 286 -464 286 -464 263.5 -462 c 128,-1,44
 241 -460 241 -460 221 -456 c 0,45,46
 175 -447 175 -447 159 -436 c 1,47,-1
 174 -294 l 1,0,1
EndSplineSet
Substitution2: "'locl' Localized Forms lookup 7 subtable" uni021B
Substitution2: "'aalt' Access All Alternates in Latin lookup 0 subtable" uni021B
EndChar

StartChar: Tbar
Encoding: 358 358 317
Width: 1303
GlyphClass: 2
Flags: W
LayerCount: 2
Fore
SplineSet
538 651 m 1,0,-1
 249 651 l 1,1,-1
 249 796 l 1,2,-1
 538 796 l 1,3,-1
 538 1350 l 1,4,-1
 63 1350 l 1,5,-1
 63 1522 l 1,6,-1
 1240 1522 l 1,7,-1
 1240 1350 l 1,8,-1
 763 1350 l 1,9,-1
 763 796 l 1,10,-1
 1059 796 l 1,11,-1
 1059 651 l 1,12,-1
 763 651 l 1,13,-1
 763 0 l 1,14,-1
 538 0 l 1,15,-1
 538 651 l 1,0,-1
EndSplineSet
EndChar

StartChar: tbar
Encoding: 359 359 318
Width: 850
GlyphClass: 2
Flags: W
LayerCount: 2
Fore
SplineSet
228 596 m 1,0,-1
 81 596 l 1,1,-1
 81 760 l 1,2,-1
 228 760 l 1,3,-1
 228 974 l 1,4,-1
 80 974 l 1,5,-1
 80 1093 l 1,6,7
 117 1104 117 1104 145 1111.5 c 128,-1,8
 173 1119 173 1119 193 1128 c 0,9,10
 233 1147 233 1147 248 1186.5 c 128,-1,11
 263 1226 263 1226 278.5 1278.5 c 128,-1,12
 294 1331 294 1331 315 1400 c 1,13,-1
 447 1400 l 1,14,-1
 447 1140 l 1,15,-1
 769 1140 l 1,16,-1
 769 974 l 1,17,-1
 447 974 l 1,18,-1
 447 760 l 1,19,-1
 769 760 l 1,20,-1
 769 596 l 1,21,-1
 447 596 l 1,22,-1
 447 397 l 2,23,24
 447 236 447 236 465 204 c 128,-1,25
 483 172 483 172 507.5 166 c 128,-1,26
 532 160 532 160 563.5 160 c 128,-1,27
 595 160 595 160 623 164 c 128,-1,28
 651 168 651 168 678 174 c 0,29,30
 741 188 741 188 768 203 c 1,31,-1
 806 77 l 1,32,33
 725 17 725 17 580 -8 c 0,34,35
 534 -16 534 -16 485 -16 c 128,-1,36
 436 -16 436 -16 388 -4 c 128,-1,37
 340 8 340 8 304 40 c 0,38,39
 228 109 228 109 228 273 c 2,40,-1
 228 596 l 1,0,-1
EndSplineSet
EndChar

StartChar: Uogonek
Encoding: 370 370 329
Width: 1463
GlyphClass: 2
Flags: W
LayerCount: 2
Fore
SplineSet
1052 -453 m 1,0,1
 975 -512 975 -512 815 -512 c 0,2,3
 645 -512 645 -512 588 -392 c 0,4,5
 569 -353 569 -353 568.5 -310.5 c 128,-1,6
 568 -268 568 -268 581.5 -228.5 c 128,-1,7
 595 -189 595 -189 619 -150 c 0,8,9
 668 -70 668 -70 749 -16 c 1,10,-1
 741 -16 l 2,11,12
 290 -16 290 -16 191 358 c 0,13,14
 159 478 159 478 159 633 c 2,15,-1
 159 1522 l 1,16,-1
 382 1522 l 1,17,-1
 381 686 l 2,18,19
 381 386 381 386 477 264 c 0,20,21
 561 158 561 158 748 158 c 0,22,23
 915 158 915 158 992 265 c 0,24,25
 1083 390 1083 390 1083 686 c 2,26,-1
 1083 1522 l 1,27,-1
 1305 1522 l 1,28,-1
 1305 630 l 2,29,30
 1305 112 1305 112 936 9 c 1,31,32
 828 -89 828 -89 794 -198 c 0,33,34
 773 -265 773 -265 796 -312 c 0,35,36
 815 -350 815 -350 851 -357 c 128,-1,37
 887 -364 887 -364 932.5 -364 c 128,-1,38
 978 -364 978 -364 1052 -335 c 1,39,-1
 1052 -453 l 1,0,1
EndSplineSet
EndChar

StartChar: uogonek
Encoding: 371 371 330
Width: 1249
GlyphClass: 2
Flags: W
LayerCount: 2
Fore
SplineSet
1144 -453 m 1,0,1
 1067 -512 1067 -512 907 -512 c 0,2,3
 737 -512 737 -512 680 -392 c 0,4,5
 661 -353 661 -353 660.5 -305 c 128,-1,6
 660 -257 660 -257 680.5 -212.5 c 128,-1,7
 701 -168 701 -168 735 -128 c 0,8,9
 803 -48 803 -48 901 2 c 1,10,11
 878 20 878 20 878 72 c 2,12,-1
 878 100 l 1,13,14
 757 24 757 24 606 -6 c 0,15,16
 555 -16 555 -16 477.5 -16 c 128,-1,17
 400 -16 400 -16 333.5 19.5 c 128,-1,18
 267 55 267 55 230 120 c 0,19,20
 170 226 170 226 170 474 c 2,21,-1
 170 1140 l 1,22,-1
 390 1140 l 1,23,-1
 390 475 l 2,24,25
 390 275 390 275 438 214 c 0,26,27
 463 183 463 183 503 174 c 128,-1,28
 543 165 543 165 587 165 c 128,-1,29
 631 165 631 165 668 173 c 128,-1,30
 705 181 705 181 740 193 c 0,31,32
 809 217 809 217 853 245 c 1,33,-1
 853 1140 l 1,34,-1
 1073 1140 l 1,35,-1
 1073 -16 l 1,36,-1
 1057 -16 l 1,37,38
 877 -130 877 -130 877 -254 c 0,39,40
 877 -364 877 -364 1005 -364 c 0,41,42
 1070 -364 1070 -364 1144 -335 c 1,43,-1
 1144 -453 l 1,0,1
EndSplineSet
EndChar

StartChar: florin
Encoding: 402 402 342
Width: 1169
GlyphClass: 2
Flags: W
LayerCount: 2
Fore
SplineSet
1044 1488 m 1,0,1
 1011 1507 1011 1507 925.5 1507 c 128,-1,2
 840 1507 840 1507 804.5 1496 c 128,-1,3
 769 1485 769 1485 740 1458 c 0,4,5
 679 1400 679 1400 664 1268 c 2,6,-1
 649 1140 l 1,7,-1
 948 1140 l 1,8,-1
 935 972 l 1,9,-1
 636 972 l 1,10,-1
 525 -356 l 1,11,-1
 310 -356 l 1,12,-1
 422 972 l 1,13,-1
 217 972 l 1,14,-1
 225 1086 l 1,15,-1
 434 1140 l 1,16,-1
 442 1204 l 1,17,18
 472 1453 472 1453 606 1577 c 0,19,20
 722 1685 722 1685 907 1685 c 0,21,22
 1017 1685 1017 1685 1057 1667 c 1,23,-1
 1044 1488 l 1,0,1
EndSplineSet
EndChar

StartChar: dotlessj
Encoding: 567 567 349
Width: 574
GlyphClass: 2
Flags: W
LayerCount: 2
Fore
SplineSet
-79 -331 m 1,0,1
 -35 -353 -35 -353 24 -353 c 128,-1,2
 83 -353 83 -353 113 -333.5 c 128,-1,3
 143 -314 143 -314 160 -276 c 0,4,5
 193 -204 193 -204 193 -48 c 2,6,-1
 193 1138 l 1,7,-1
 413 1138 l 1,8,-1
 413 37 l 2,9,10
 413 -387 413 -387 211 -478 c 0,11,12
 145 -507 145 -507 46 -507 c 128,-1,13
 -53 -507 -53 -507 -79 -494 c 1,14,-1
 -79 -331 l 1,0,1
EndSplineSet
EndChar

StartChar: circumflex
Encoding: 710 710 350
Width: 836
GlyphClass: 2
Flags: W
LayerCount: 2
Fore
SplineSet
47 1349 m 1,0,-1
 323 1682 l 1,1,-1
 521 1682 l 1,2,-1
 789 1350 l 1,3,-1
 654 1294 l 1,4,-1
 422 1516 l 1,5,-1
 173 1293 l 1,6,-1
 47 1349 l 1,0,-1
EndSplineSet
EndChar

StartChar: caron
Encoding: 711 711 351
Width: 824
GlyphClass: 2
Flags: W
LayerCount: 2
Fore
SplineSet
47 1626 m 1,0,-1
 173 1682 l 1,1,-1
 422 1459 l 1,2,-1
 654 1681 l 1,3,-1
 789 1625 l 1,4,-1
 521 1293 l 1,5,-1
 323 1293 l 1,6,-1
 47 1626 l 1,0,-1
EndSplineSet
EndChar

StartChar: uni02c9
Encoding: 713 713 352
Width: 647
GlyphClass: 2
Flags: W
LayerCount: 2
Fore
SplineSet
50 1937 m 1,0,-1
 597 1937 l 1,1,-1
 597 1775 l 1,2,-1
 50 1775 l 1,3,-1
 50 1937 l 1,0,-1
EndSplineSet
EndChar

StartChar: breve
Encoding: 728 728 353
Width: 784
GlyphClass: 2
Flags: W
LayerCount: 2
Fore
SplineSet
539.5 1340 m 128,-1,1
 473 1308 473 1308 389.5 1308 c 128,-1,2
 306 1308 306 1308 240 1340 c 0,3,4
 108 1403 108 1403 64 1546 c 0,5,6
 48 1599 48 1599 48 1634 c 128,-1,7
 48 1669 48 1669 49 1685 c 1,8,-1
 203 1685 l 1,9,10
 203 1539 203 1539 312 1494 c 0,11,12
 345 1480 345 1480 392.5 1480 c 128,-1,13
 440 1480 440 1480 473 1493.5 c 128,-1,14
 506 1507 506 1507 527 1527.5 c 128,-1,15
 548 1548 548 1548 559.5 1572.5 c 128,-1,16
 571 1597 571 1597 577 1620 c 0,17,18
 585 1651 585 1651 585 1685 c 1,19,-1
 735 1685 l 1,20,21
 736 1670 736 1670 736 1634.5 c 128,-1,22
 736 1599 736 1599 716.5 1538.5 c 128,-1,23
 697 1478 697 1478 651.5 1425 c 128,-1,0
 606 1372 606 1372 539.5 1340 c 128,-1,1
EndSplineSet
EndChar

StartChar: dotaccent
Encoding: 729 729 354
Width: 403
GlyphClass: 2
Flags: W
LayerCount: 2
Fore
SplineSet
251.5 1358.5 m 128,-1,1
 222 1347 222 1347 192.5 1347 c 128,-1,2
 163 1347 163 1347 137.5 1356.5 c 128,-1,3
 112 1366 112 1366 92 1384 c 0,4,5
 50 1422 50 1422 50 1468.5 c 128,-1,6
 50 1515 50 1515 64 1543.5 c 128,-1,7
 78 1572 78 1572 101 1593 c 0,8,9
 150 1638 150 1638 199 1638 c 128,-1,10
 248 1638 248 1638 274.5 1627.5 c 128,-1,11
 301 1617 301 1617 318 1598 c 1,12,13
 353 1562 353 1562 353 1515 c 128,-1,14
 353 1468 353 1468 339.5 1439.5 c 128,-1,15
 326 1411 326 1411 303.5 1390.5 c 128,-1,0
 281 1370 281 1370 251.5 1358.5 c 128,-1,1
EndSplineSet
EndChar

StartChar: ring
Encoding: 730 730 355
Width: 731
GlyphClass: 2
Flags: W
LayerCount: 2
Fore
SplineSet
484.5 1344.5 m 128,-1,1
 426 1328 426 1328 358 1328 c 128,-1,2
 290 1328 290 1328 231 1348 c 0,3,4
 112 1388 112 1388 66 1492 c 1,5,6
 45 1542 45 1542 45 1573 c 0,7,8
 45 1677 45 1677 74 1728.5 c 128,-1,9
 103 1780 103 1780 148 1812 c 0,10,11
 234 1873 234 1873 365 1873 c 0,12,13
 595 1873 595 1873 664 1720 c 0,14,15
 686 1670 686 1670 685.5 1602 c 128,-1,16
 685 1534 685 1534 658.5 1482 c 128,-1,17
 632 1430 632 1430 587.5 1395.5 c 128,-1,0
 543 1361 543 1361 484.5 1344.5 c 128,-1,1
244.5 1498 m 128,-1,19
 288 1456 288 1456 344 1455 c 128,-1,20
 400 1454 400 1454 431 1462.5 c 128,-1,21
 462 1471 462 1471 484 1489 c 0,22,23
 532 1527 532 1527 532 1605 c 0,24,25
 532 1672 532 1672 483 1712 c 1,26,27
 436 1749 436 1749 363 1749 c 0,28,29
 252 1749 252 1749 215 1676 c 0,30,31
 201 1648 201 1648 201 1594 c 128,-1,18
 201 1540 201 1540 244.5 1498 c 128,-1,19
EndSplineSet
EndChar

StartChar: ogonek
Encoding: 731 731 356
Width: 640
GlyphClass: 2
Flags: W
LayerCount: 2
Fore
SplineSet
584 -437 m 1,0,1
 467 -511 467 -511 301 -511 c 0,2,3
 201 -511 201 -511 130 -458 c 1,4,5
 52 -398 52 -398 52 -298 c 0,6,7
 52 -213 52 -213 132 -128 c 1,8,9
 202 -52 202 -52 314 -2 c 1,10,-1
 414 8 l 1,11,-1
 512 5 l 1,12,13
 415 -35 415 -35 355 -90 c 1,14,15
 247 -192 247 -192 247 -263 c 0,16,17
 247 -367 247 -367 376 -367 c 0,18,19
 439 -367 439 -367 566 -318 c 1,20,-1
 584 -437 l 1,0,1
EndSplineSet
EndChar

StartChar: tilde
Encoding: 732 732 357
Width: 927
GlyphClass: 2
Flags: W
LayerCount: 2
Fore
SplineSet
315 1482 m 0,0,1
 223 1482 223 1482 132 1385 c 1,2,-1
 47 1453 l 1,3,4
 106 1582 106 1582 230 1632 c 0,5,6
 272 1648 272 1648 314.5 1648 c 128,-1,7
 357 1648 357 1648 387.5 1638 c 128,-1,8
 418 1628 418 1628 442 1612.5 c 128,-1,9
 466 1597 466 1597 486 1579.5 c 128,-1,10
 506 1562 506 1562 526 1546 c 0,11,12
 570 1511 570 1511 612 1511 c 0,13,14
 709 1511 709 1511 795 1609 c 1,15,-1
 881 1537 l 1,16,17
 818 1403 818 1403 698 1359 c 0,18,19
 657 1344 657 1344 612.5 1344 c 128,-1,20
 568 1344 568 1344 537 1354 c 128,-1,21
 506 1364 506 1364 481.5 1379.5 c 128,-1,22
 457 1395 457 1395 438 1413 c 128,-1,23
 419 1431 419 1431 400 1446 c 0,24,25
 356 1482 356 1482 315 1482 c 0,0,1
EndSplineSet
EndChar

StartChar: hungarumlaut
Encoding: 733 733 358
Width: 1035
GlyphClass: 2
Flags: W
LayerCount: 2
Fore
SplineSet
42 1390 m 1,0,-1
 301 1798 l 1,1,-1
 463 1687 l 1,2,3
 394 1568 394 1568 248 1414 c 1,4,5
 179 1343 179 1343 145 1319 c 1,6,-1
 42 1390 l 1,0,-1
541 1390 m 1,7,-1
 808 1789 l 1,8,-1
 963 1679 l 1,9,10
 903 1568 903 1568 750 1412 c 0,11,12
 681 1342 681 1342 642 1319 c 1,13,-1
 541 1390 l 1,7,-1
EndSplineSet
EndChar

StartChar: pi
Encoding: 960 960 362
Width: 1556
GlyphClass: 2
Flags: W
LayerCount: 2
Fore
SplineSet
1128 -24 m 0,0,1
 923 -24 923 -24 923 212 c 0,2,3
 923 230 923 230 924 249 c 2,4,-1
 973 955 l 1,5,-1
 652 955 l 1,6,-1
 624 428 l 1,7,8
 611 210 611 210 524 114 c 0,9,10
 453 35 453 35 405 11 c 128,-1,11
 357 -13 357 -13 312 -24 c 1,12,-1
 178 97 l 1,13,14
 225 107 225 107 283 149 c 128,-1,15
 341 191 341 191 365 226 c 128,-1,16
 389 261 389 261 402 302 c 0,17,18
 419 352 419 352 432 487 c 1,19,-1
 467 956 l 1,20,-1
 414 956 l 2,21,22
 308 956 308 956 231 867 c 1,23,-1
 120 920 l 1,24,25
 126 971 126 971 170 1035 c 1,26,27
 250 1140 250 1140 449 1140 c 2,28,-1
 1162 1140 l 2,29,30
 1283 1140 1283 1140 1309 1215 c 1,31,-1
 1451 1215 l 1,32,33
 1440 1012 1440 1012 1276 969 c 0,34,35
 1223 955 1223 955 1156 955 c 2,36,-1
 1152 955 l 1,37,-1
 1123 255 l 1,38,39
 1116 148 1116 148 1192 148 c 0,40,41
 1271 148 1271 148 1345 282 c 1,42,-1
 1452 233 l 1,43,44
 1435 134 1435 134 1346 58 c 0,45,46
 1249 -24 1249 -24 1128 -24 c 0,0,1
EndSplineSet
EndChar

StartChar: endash
Encoding: 8211 8211 385
Width: 1692
GlyphClass: 2
Flags: W
LayerCount: 2
Fore
SplineSet
240 860 m 1,0,-1
 1452 860 l 1,1,-1
 1452 683 l 1,2,-1
 240 683 l 1,3,-1
 240 860 l 1,0,-1
EndSplineSet
EndChar

StartChar: emdash
Encoding: 8212 8212 386
Width: 2343
GlyphClass: 2
Flags: W
LayerCount: 2
Fore
SplineSet
240 860 m 1,0,-1
 2103 860 l 1,1,-1
 2103 683 l 1,2,-1
 240 683 l 1,3,-1
 240 860 l 1,0,-1
EndSplineSet
EndChar

StartChar: quoteleft
Encoding: 8216 8216 387
Width: 520
GlyphClass: 2
Flags: W
LayerCount: 2
Fore
SplineSet
304 960 m 1,0,1
 162 1010 162 1010 114 1198 c 0,2,3
 98 1257 98 1257 98 1330 c 128,-1,4
 98 1403 98 1403 119.5 1469.5 c 128,-1,5
 141 1536 141 1536 172 1588 c 0,6,7
 231 1684 231 1684 305 1733 c 1,8,-1
 401 1672 l 1,9,-1
 401 1640 l 1,10,11
 334 1584 334 1584 310 1444 c 0,12,13
 304 1404 304 1404 304 1366.5 c 128,-1,14
 304 1329 304 1329 314.5 1293.5 c 128,-1,15
 325 1258 325 1258 341 1228 c 0,16,17
 374 1169 374 1169 417 1149 c 1,18,-1
 417 1087 l 1,19,-1
 304 960 l 1,0,1
EndSplineSet
EndChar

StartChar: quoteright
Encoding: 8217 8217 388
Width: 520
GlyphClass: 2
Flags: W
LayerCount: 2
Fore
SplineSet
254 1733 m 1,0,1
 410 1660 410 1660 410 1408 c 0,2,3
 410 1242 410 1242 342 1109 c 0,4,5
 293 1011 293 1011 223 960 c 1,6,-1
 127 1021 l 1,7,-1
 127 1053 l 1,8,9
 179 1108 179 1108 198 1250 c 0,10,11
 204 1289 204 1289 204 1327.5 c 128,-1,12
 204 1366 204 1366 195.5 1403.5 c 128,-1,13
 187 1441 187 1441 174 1472 c 1,14,15
 146 1533 146 1533 111 1555 c 1,16,-1
 111 1616 l 1,17,-1
 254 1733 l 1,0,1
EndSplineSet
EndChar

StartChar: quotereversed
Encoding: 8219 8219 390
Width: 520
GlyphClass: 2
Flags: W
LayerCount: 2
Fore
SplineSet
305 960 m 1,0,1
 178 1043 178 1043 120 1224 c 0,2,3
 98 1290 98 1290 98 1363 c 128,-1,4
 98 1436 98 1436 113.5 1495.5 c 128,-1,5
 129 1555 129 1555 156 1602 c 0,6,7
 211 1700 211 1700 304 1733 c 1,8,-1
 417 1606 l 1,9,-1
 417 1545 l 1,10,11
 348 1514 348 1514 314 1400 c 0,12,13
 304 1364 304 1364 304 1326.5 c 128,-1,14
 304 1289 304 1289 310.5 1249.5 c 128,-1,15
 317 1210 317 1210 330 1172 c 0,16,17
 360 1087 360 1087 401 1053 c 1,18,-1
 401 1021 l 1,19,-1
 305 960 l 1,0,1
EndSplineSet
EndChar

StartChar: dagger
Encoding: 8224 8224 394
Width: 1026
GlyphClass: 2
Flags: W
LayerCount: 2
Fore
SplineSet
414 1128 m 1,0,-1
 124 1125 l 1,1,-1
 125 1288 l 1,2,-1
 414 1284 l 1,3,-1
 411 1658 l 1,4,-1
 615 1658 l 1,5,-1
 612 1284 l 1,6,-1
 902 1288 l 1,7,-1
 902 1125 l 1,8,-1
 612 1128 l 1,9,-1
 601 200 l 1,10,-1
 425 200 l 1,11,-1
 414 1128 l 1,0,-1
EndSplineSet
EndChar

StartChar: daggerdbl
Encoding: 8225 8225 395
Width: 1026
GlyphClass: 2
Flags: W
LayerCount: 2
Fore
SplineSet
124 639 m 1,0,-1
 413 636 l 1,1,-1
 413 1128 l 1,2,-1
 124 1125 l 1,3,-1
 125 1288 l 1,4,-1
 413 1285 l 1,5,-1
 410 1658 l 1,6,-1
 615 1658 l 1,7,-1
 611 1285 l 1,8,-1
 902 1288 l 1,9,-1
 902 1125 l 1,10,-1
 611 1128 l 1,11,-1
 611 636 l 1,12,-1
 901 639 l 1,13,-1
 901 476 l 1,14,-1
 611 479 l 1,15,-1
 595 -356 l 1,16,-1
 428 -356 l 1,17,-1
 413 479 l 1,18,-1
 124 476 l 1,19,-1
 124 639 l 1,0,-1
EndSplineSet
EndChar

StartChar: bullet
Encoding: 8226 8226 396
Width: 855
GlyphClass: 2
Flags: W
LayerCount: 2
Fore
SplineSet
418 499 m 0,0,1
 326 499 326 499 264 566 c 0,2,3
 207 629 207 629 207 710 c 0,4,5
 207 814 207 814 280 886 c 1,6,7
 349 952 349 952 438 952 c 0,8,9
 529 952 529 952 590 887 c 0,10,11
 648 826 648 826 648 743 c 0,12,13
 648 638 648 638 576 566 c 1,14,15
 507 499 507 499 418 499 c 0,0,1
EndSplineSet
EndChar

StartChar: ellipsis
Encoding: 8230 8230 397
Width: 2047
GlyphClass: 2
Flags: W
LayerCount: 2
Fore
SplineSet
1597 21 m 0,0,1
 1577 41 1577 41 1564.5 70 c 128,-1,2
 1552 99 1552 99 1552 133.5 c 128,-1,3
 1552 168 1552 168 1565 198.5 c 128,-1,4
 1578 229 1578 229 1600 252 c 0,5,6
 1650 304 1650 304 1699.5 304 c 128,-1,7
 1749 304 1749 304 1776 292 c 128,-1,8
 1803 280 1803 280 1821 259 c 0,9,10
 1860 213 1860 213 1860 163.5 c 128,-1,11
 1860 114 1860 114 1847 83 c 128,-1,12
 1834 52 1834 52 1812 28 c 1,13,14
 1763 -22 1763 -22 1698 -22 c 0,15,16
 1640 -22 1640 -22 1597 21 c 0,0,1
915 21 m 0,17,18
 895 41 895 41 882.5 70 c 128,-1,19
 870 99 870 99 870 133.5 c 128,-1,20
 870 168 870 168 883 198.5 c 128,-1,21
 896 229 896 229 918 252 c 0,22,23
 968 304 968 304 1017 304 c 128,-1,24
 1066 304 1066 304 1093 292 c 128,-1,25
 1120 280 1120 280 1138 259 c 0,26,27
 1177 215 1177 215 1177 164.5 c 128,-1,28
 1177 114 1177 114 1164.5 83 c 128,-1,29
 1152 52 1152 52 1130 28 c 1,30,31
 1081 -22 1081 -22 1015 -22 c 0,32,33
 958 -22 958 -22 915 21 c 0,17,18
233 21 m 0,34,35
 213 41 213 41 200 70 c 128,-1,36
 187 99 187 99 187 133.5 c 128,-1,37
 187 168 187 168 200 198.5 c 128,-1,38
 213 229 213 229 236 252 c 0,39,40
 285 304 285 304 334.5 304 c 128,-1,41
 384 304 384 304 411 292 c 128,-1,42
 438 280 438 280 456 259 c 0,43,44
 495 215 495 215 495 164.5 c 128,-1,45
 495 114 495 114 482.5 83 c 128,-1,46
 470 52 470 52 448 28 c 1,47,48
 399 -22 399 -22 333 -22 c 0,49,50
 276 -22 276 -22 233 21 c 0,34,35
EndSplineSet
EndChar

StartChar: perthousand
Encoding: 8240 8240 398
Width: 2800
GlyphClass: 3
Flags: W
LayerCount: 2
Fore
SplineSet
1988 468 m 0,0,1
 1988 560 1988 560 2019.5 637.5 c 128,-1,2
 2051 715 2051 715 2104 768 c 0,3,4
 2217 881 2217 881 2383 881 c 0,5,6
 2551 881 2551 881 2641 764 c 1,7,8
 2725 653 2725 653 2725 468 c 0,9,10
 2725 276 2725 276 2608 162 c 1,11,12
 2496 51 2496 51 2332 51 c 0,13,14
 2176 51 2176 51 2081 170 c 0,15,16
 1988 287 1988 287 1988 468 c 0,0,1
2184 468 m 0,17,18
 2184 280 2184 280 2282 218 c 0,19,20
 2314 197 2314 197 2355 197 c 0,21,22
 2440 197 2440 197 2485 267 c 128,-1,23
 2530 337 2530 337 2530 461 c 0,24,25
 2530 655 2530 655 2432 716 c 0,26,27
 2400 736 2400 736 2359 736 c 0,28,29
 2274 736 2274 736 2229 664 c 128,-1,30
 2184 592 2184 592 2184 468 c 0,17,18
1207 1530 m 1,31,-1
 1397 1530 l 1,32,-1
 747 0 l 1,33,-1
 557 0 l 1,34,-1
 1207 1530 l 1,31,-1
697.5 778 m 128,-1,36
 583 665 583 665 424 665 c 128,-1,37
 265 665 265 665 170 782.5 c 128,-1,38
 75 900 75 900 75 1083.5 c 128,-1,39
 75 1267 75 1267 189.5 1381.5 c 128,-1,40
 304 1496 304 1496 470.5 1496 c 128,-1,41
 637 1496 637 1496 724.5 1382.5 c 128,-1,42
 812 1269 812 1269 812 1080 c 128,-1,35
 812 891 812 891 697.5 778 c 128,-1,36
442 812 m 0,43,44
 527 812 527 812 572 882 c 128,-1,45
 617 952 617 952 617 1076 c 0,46,47
 617 1270 617 1270 518 1330 c 0,48,49
 486 1350 486 1350 446 1350 c 0,50,51
 361 1350 361 1350 315.5 1278 c 128,-1,52
 270 1206 270 1206 270 1083 c 0,53,54
 270 896 270 896 369 832 c 0,55,56
 401 812 401 812 442 812 c 0,43,44
1150 468 m 0,57,58
 1150 560 1150 560 1181.5 637.5 c 128,-1,59
 1213 715 1213 715 1266 768 c 0,60,61
 1379 881 1379 881 1545 881 c 0,62,63
 1713 881 1713 881 1803 764 c 1,64,65
 1887 653 1887 653 1887 468 c 0,66,67
 1887 276 1887 276 1770 162 c 1,68,69
 1658 51 1658 51 1494 51 c 0,70,71
 1338 51 1338 51 1243 170 c 0,72,73
 1150 287 1150 287 1150 468 c 0,57,58
1346 468 m 0,74,75
 1346 280 1346 280 1444 218 c 0,76,77
 1476 197 1476 197 1517 197 c 0,78,79
 1602 197 1602 197 1647 267 c 128,-1,80
 1692 337 1692 337 1692 461 c 0,81,82
 1692 655 1692 655 1594 716 c 0,83,84
 1562 736 1562 736 1521 736 c 0,85,86
 1436 736 1436 736 1391 664 c 128,-1,87
 1346 592 1346 592 1346 468 c 0,74,75
EndSplineSet
Ligature2: "'frac' Diagonal Fractions in Latin lookup 10 subtable" zero slash zero zero
EndChar

StartChar: minute
Encoding: 8242 8242 399
Width: 682
GlyphClass: 2
Flags: W
LayerCount: 2
Fore
SplineSet
284 1793 m 1,0,-1
 515 1793 l 1,1,-1
 353 1190 l 1,2,-1
 190 1190 l 1,3,-1
 284 1793 l 1,0,-1
EndSplineSet
EndChar

StartChar: guilsinglleft
Encoding: 8249 8249 401
Width: 1204
GlyphClass: 2
Flags: W
LayerCount: 2
Fore
SplineSet
245 703 m 1,0,-1
 888 1133 l 1,1,-1
 945 970 l 1,2,-1
 460 614 l 1,3,-1
 945 263 l 1,4,-1
 888 104 l 1,5,-1
 245 519 l 1,6,-1
 245 703 l 1,0,-1
EndSplineSet
EndChar

StartChar: fraction
Encoding: 8260 8260 404
Width: 1026
GlyphClass: 2
Flags: W
LayerCount: 2
Fore
SplineSet
682 1530 m 1,0,-1
 882 1530 l 1,1,-1
 340 0 l 1,2,-1
 143 0 l 1,3,-1
 682 1530 l 1,0,-1
EndSplineSet
EndChar

StartChar: foursuperior
Encoding: 8308 8308 405
Width: 1151
GlyphClass: 2
Flags: W
LayerCount: 2
Fore
SplineSet
657 875 m 1,0,-1
 159 875 l 1,1,-1
 107 969 l 1,2,-1
 589 1780 l 1,3,-1
 657 1780 l 1,4,-1
 788 1703 l 1,5,-1
 392 1095 l 1,6,-1
 350 1026 l 1,7,-1
 658 1026 l 1,8,-1
 658 1029 l 1,9,-1
 666 1278 l 1,10,-1
 861 1298 l 1,11,-1
 861 1026 l 1,12,-1
 1055 1026 l 1,13,-1
 1056 875 l 1,14,-1
 861 875 l 1,15,-1
 861 593 l 1,16,-1
 657 593 l 1,17,-1
 657 875 l 1,0,-1
EndSplineSet
EndChar

StartChar: Euro
Encoding: 8364 8364 406
Width: 1505
GlyphClass: 2
Flags: W
LayerCount: 2
Fore
SplineSet
549 883 m 1,0,1
 545 835 545 835 545 776.5 c 128,-1,2
 545 718 545 718 549 654 c 1,3,-1
 1067 654 l 1,4,-1
 1067 511 l 1,5,-1
 565 511 l 1,6,7
 598 329 598 329 682 238 c 0,8,9
 781 132 781 132 955 132 c 0,10,11
 1111 132 1111 132 1245 188 c 0,12,13
 1284 205 1284 205 1311 225 c 1,14,-1
 1371 60 l 1,15,16
 1341 55 1341 55 1299 38 c 128,-1,17
 1257 21 1257 21 1226 10.5 c 128,-1,18
 1195 0 1195 0 1152 -8 c 0,19,20
 1055 -28 1055 -28 926.5 -28 c 128,-1,21
 798 -28 798 -28 696 10 c 128,-1,22
 594 48 594 48 518 118 c 1,23,24
 368 259 368 259 323 511 c 1,25,-1
 114 511 l 1,26,-1
 114 654 l 1,27,-1
 307 654 l 1,28,29
 306 670 306 670 306 686 c 2,30,-1
 306 720 l 2,31,32
 306 805 306 805 316 883 c 1,33,-1
 146 883 l 1,34,-1
 146 1026 l 1,35,-1
 343 1026 l 1,36,37
 405 1262 405 1262 568 1396 c 1,38,39
 740 1539 740 1539 1015 1539 c 0,40,41
 1155 1539 1155 1539 1276 1496 c 0,42,43
 1308 1484 1308 1484 1339 1477 c 1,44,-1
 1286 1303 l 1,45,46
 1220 1339 1220 1339 1173 1350 c 0,47,48
 1082 1371 1082 1371 985.5 1371 c 128,-1,49
 889 1371 889 1371 827.5 1349 c 128,-1,50
 766 1327 766 1327 716 1284 c 0,51,52
 614 1194 614 1194 572 1026 c 1,53,-1
 1101 1026 l 1,54,-1
 1101 883 l 1,55,-1
 549 883 l 1,0,1
EndSplineSet
EndChar

StartChar: uni2113
Encoding: 8467 8467 407
Width: 1240
GlyphClass: 2
Flags: W
LayerCount: 2
Fore
SplineSet
346 181 m 1,0,1
 262 105 262 105 173 32 c 1,2,-1
 0 148 l 1,3,4
 165 256 165 256 304 381 c 1,5,6
 300 435 300 435 300 537 c 128,-1,7
 300 639 300 639 322 782.5 c 128,-1,8
 344 926 344 926 383.5 1057.5 c 128,-1,9
 423 1189 423 1189 478 1303.5 c 128,-1,10
 533 1418 533 1418 600 1502 c 0,11,12
 744 1683 744 1683 902 1683 c 0,13,14
 1047 1683 1047 1683 1086 1532 c 0,15,16
 1098 1485 1098 1485 1098 1430 c 0,17,18
 1098 927 1098 927 490 319 c 1,19,20
 514 184 514 184 582 152 c 0,21,22
 601 143 601 143 627 143 c 128,-1,23
 653 143 653 143 686.5 169.5 c 128,-1,24
 720 196 720 196 751 241 c 0,25,26
 811 329 811 329 859 465 c 1,27,-1
 1038 433 l 1,28,29
 989 279 989 279 890 145 c 0,30,31
 760 -29 760 -29 615 -29 c 0,32,33
 423 -29 423 -29 346 181 c 1,0,1
478 552 m 1,34,35
 796 897 796 897 888 1233 c 0,36,37
 916 1338 916 1338 916 1389.5 c 128,-1,38
 916 1441 916 1441 913.5 1457 c 128,-1,39
 911 1473 911 1473 906 1488 c 0,40,41
 894 1522 894 1522 863 1522 c 128,-1,42
 832 1522 832 1522 789 1478 c 128,-1,43
 746 1434 746 1434 704 1360 c 128,-1,44
 662 1286 662 1286 623.5 1188 c 128,-1,45
 585 1090 585 1090 554 982 c 0,46,47
 488 747 488 747 478 552 c 1,34,35
EndSplineSet
EndChar

StartChar: afii61352
Encoding: 8470 8470 408
Width: 2587
GlyphClass: 2
Flags: W
LayerCount: 2
Fore
SplineSet
1620 576 m 0,0,1
 1563 656 1563 656 1539 758.5 c 128,-1,2
 1515 861 1515 861 1515 986.5 c 128,-1,3
 1515 1112 1515 1112 1554 1216.5 c 128,-1,4
 1593 1321 1593 1321 1660 1390 c 0,5,6
 1794 1530 1794 1530 2015 1530 c 0,7,8
 2261 1530 2261 1530 2386 1356 c 1,9,10
 2493 1205 2493 1205 2493 955 c 0,11,12
 2493 692 2493 692 2349 540 c 0,13,14
 2215 399 2215 399 1996 399 c 0,15,16
 1745 399 1745 399 1620 576 c 0,0,1
194 1522 m 1,17,-1
 388 1522 l 1,18,-1
 969 554 l 1,19,-1
 1076 324 l 1,20,-1
 1067 518 l 1,21,-1
 1067 1522 l 1,22,-1
 1271 1522 l 1,23,-1
 1271 0 l 1,24,-1
 1077 0 l 1,25,-1
 519 924 l 1,26,-1
 386 1190 l 1,27,-1
 397 963 l 1,28,-1
 397 0 l 1,29,-1
 194 0 l 1,30,-1
 194 1522 l 1,17,-1
1731 985 m 0,31,32
 1731 688 1731 688 1882 588 c 0,33,34
 1935 554 1935 554 2009 554 c 0,35,36
 2139 554 2139 554 2208 657 c 128,-1,37
 2277 760 2277 760 2277 953 c 0,38,39
 2277 1245 2277 1245 2129 1340 c 0,40,41
 2077 1373 2077 1373 2005 1373 c 0,42,43
 1872 1373 1872 1373 1801.5 1274.5 c 128,-1,44
 1731 1176 1731 1176 1731 985 c 0,31,32
1580 165 m 1,45,-1
 2440 165 l 1,46,-1
 2440 0 l 1,47,-1
 1580 0 l 1,48,-1
 1580 165 l 1,45,-1
EndSplineSet
EndChar

StartChar: trademark
Encoding: 8482 8482 409
Width: 2218
GlyphClass: 2
Flags: W
LayerCount: 2
Fore
SplineSet
1049 1543 m 1,0,-1
 1342 1543 l 1,1,-1
 1486 1138 l 1,2,-1
 1524 997 l 1,3,-1
 1554 1138 l 1,4,-1
 1683 1543 l 1,5,-1
 1959 1543 l 1,6,-1
 2033 767 l 1,7,-1
 1856 767 l 1,8,-1
 1817 1303 l 1,9,-1
 1810 1428 l 1,10,-1
 1584 760 l 1,11,-1
 1466 760 l 1,12,-1
 1206 1430 l 1,13,-1
 1203 1303 l 1,14,-1
 1178 767 l 1,15,-1
 1008 767 l 1,16,-1
 1049 1543 l 1,0,-1
426 1391 m 1,17,-1
 178 1390 l 1,18,-1
 177 1543 l 1,19,-1
 866 1543 l 1,20,-1
 866 1390 l 1,21,-1
 610 1391 l 1,22,-1
 610 767 l 1,23,-1
 426 767 l 1,24,-1
 426 1391 l 1,17,-1
EndSplineSet
EndChar

StartChar: Omega
Encoding: 8486 8486 410
Width: 1804
GlyphClass: 2
Flags: W
LayerCount: 2
Fore
SplineSet
198 154 m 1,0,-1
 531 154 l 1,1,2
 402 255 402 255 304 438 c 0,3,4
 194 643 194 643 194 859 c 0,5,6
 194 1084 194 1084 299 1248 c 0,7,8
 440 1468 440 1468 722 1527 c 0,9,10
 808 1545 808 1545 924.5 1545 c 128,-1,11
 1041 1545 1041 1545 1166 1501 c 128,-1,12
 1291 1457 1291 1457 1383 1370 c 0,13,14
 1579 1185 1579 1185 1579 859 c 0,15,16
 1579 643 1579 643 1484 445 c 0,17,18
 1398 265 1398 265 1262 154 c 1,19,-1
 1620 154 l 1,20,-1
 1620 0 l 1,21,-1
 1039 0 l 1,22,-1
 1039 151 l 1,23,24
 1172 237 1172 237 1260 417 c 0,25,26
 1356 613 1356 613 1356 851 c 0,27,28
 1356 1119 1356 1119 1207 1262 c 0,29,30
 1082 1383 1082 1383 895 1383 c 0,31,32
 698 1383 698 1383 570 1264 c 0,33,34
 418 1123 418 1123 418 851 c 0,35,36
 418 623 418 623 532 417 c 0,37,38
 628 242 628 242 760 151 c 1,39,-1
 760 0 l 1,40,-1
 199 0 l 1,41,-1
 198 154 l 1,0,-1
EndSplineSet
EndChar

StartChar: estimated
Encoding: 8494 8494 411
Width: 1373
GlyphClass: 2
Flags: W
LayerCount: 2
Fore
SplineSet
1269 832 m 1,0,1
 1269 678 1269 678 1258 626 c 1,2,-1
 382 626 l 1,3,-1
 382 270 l 1,4,5
 493 112 493 112 748 112 c 0,6,7
 934 112 934 112 1113 212 c 1,8,-1
 1161 90 l 1,9,10
 1063 19 1063 19 847 -8 c 0,11,12
 784 -16 784 -16 727 -16 c 0,13,14
 433 -16 433 -16 268 166 c 0,15,16
 104 348 104 348 104 671 c 0,17,18
 104 977 104 977 259 1158 c 0,19,20
 429 1356 429 1356 743 1356 c 0,21,22
 958 1356 958 1356 1105 1219 c 0,23,24
 1261 1074 1261 1074 1269 832 c 1,0,1
1009 1114 m 1,25,26
 916 1227 916 1227 704.5 1227 c 128,-1,27
 493 1227 493 1227 382 1063 c 1,28,-1
 382 768 l 1,29,-1
 1009 768 l 1,30,-1
 1009 1114 l 1,25,26
EndSplineSet
EndChar

StartChar: partialdiff
Encoding: 8706 8706 412
Width: 1367
GlyphClass: 2
Flags: W
LayerCount: 2
Fore
SplineSet
742 1050 m 0,0,1
 887 1050 887 1050 1010 1005 c 1,2,3
 969 1371 969 1371 722 1481 c 0,4,5
 631 1521 631 1521 505 1521 c 0,6,7
 407 1521 407 1521 348 1500 c 128,-1,8
 289 1479 289 1479 270 1467 c 1,9,-1
 197 1593 l 1,10,11
 327 1685 327 1685 547 1685 c 0,12,13
 903 1685 903 1685 1078 1409 c 0,14,15
 1226 1174 1226 1174 1226 822 c 0,16,17
 1226 146 1226 146 856 2 c 0,18,19
 774 -30 774 -30 670 -30 c 0,20,21
 461 -30 461 -30 313 106 c 128,-1,22
 165 242 165 242 165 491.5 c 128,-1,23
 165 741 165 741 324.5 895.5 c 128,-1,24
 484 1050 484 1050 742 1050 c 0,0,1
1018 839 m 1,25,26
 907 897 907 897 725 897 c 0,27,28
 580 897 580 897 480 796 c 1,29,30
 376 689 376 689 376 516 c 0,31,32
 376 236 376 236 544 158 c 0,33,34
 602 132 602 132 681 132 c 128,-1,35
 760 132 760 132 812 164 c 128,-1,36
 864 196 864 196 901 249.5 c 128,-1,37
 938 303 938 303 960.5 372.5 c 128,-1,38
 983 442 983 442 996 518 c 0,39,40
 1018 645 1018 645 1018 811 c 2,41,-1
 1018 839 l 1,25,26
EndSplineSet
EndChar

StartChar: Delta
Encoding: 8710 8710 413
Width: 1577
GlyphClass: 2
Flags: W
LayerCount: 2
Fore
SplineSet
743 1508 m 1,0,-1
 775 1508 l 1,1,-1
 1521 27 l 1,2,-1
 1505 0 l 1,3,-1
 69 0 l 1,4,-1
 55 22 l 1,5,-1
 743 1508 l 1,0,-1
1220 174 m 1,6,-1
 768 1123 l 1,7,-1
 340 174 l 1,8,-1
 1220 174 l 1,6,-1
EndSplineSet
EndChar

StartChar: product
Encoding: 8719 8719 414
Width: 1657
GlyphClass: 2
Flags: W
LayerCount: 2
Fore
SplineSet
331 1356 m 1,0,-1
 138 1356 l 1,1,-1
 138 1522 l 1,2,-1
 1519 1522 l 1,3,-1
 1519 1356 l 1,4,-1
 1326 1356 l 1,5,-1
 1326 -170 l 1,6,-1
 1101 -170 l 1,7,-1
 1101 1356 l 1,8,-1
 556 1356 l 1,9,-1
 556 -170 l 1,10,-1
 331 -170 l 1,11,-1
 331 1356 l 1,0,-1
EndSplineSet
EndChar

StartChar: summation
Encoding: 8721 8721 415
Width: 1593
GlyphClass: 2
Flags: W
LayerCount: 2
Fore
SplineSet
778 675 m 1,0,-1
 227 1442 l 1,1,-1
 257 1522 l 1,2,-1
 1290 1522 l 1,3,-1
 1290 1356 l 1,4,-1
 518 1356 l 1,5,-1
 1008 681 l 1,6,-1
 533 -14 l 1,7,-1
 1305 -14 l 1,8,-1
 1305 -170 l 1,9,-1
 253 -170 l 1,10,-1
 227 -116 l 1,11,-1
 778 675 l 1,0,-1
EndSplineSet
EndChar

StartChar: minus
Encoding: 8722 8722 416
Width: 1350
GlyphClass: 2
Flags: W
LayerCount: 2
Fore
SplineSet
250 860 m 1,0,-1
 1100 860 l 1,1,-1
 1100 683 l 1,2,-1
 250 683 l 1,3,-1
 250 860 l 1,0,-1
EndSplineSet
EndChar

StartChar: uni2215
Encoding: 8725 8725 417
Width: 854
GlyphClass: 2
Flags: W
LayerCount: 2
Fore
SplineSet
718 1599 m 1,0,-1
 911 1599 l 1,1,-1
 136 -363 l 1,2,-1
 -57 -363 l 1,3,-1
 718 1599 l 1,0,-1
EndSplineSet
EndChar

StartChar: uni2219
Encoding: 8729 8729 418
Width: 602
GlyphClass: 2
Flags: W
LayerCount: 2
Fore
SplineSet
366 546 m 128,-1,1
 330 530 330 530 293.5 530 c 128,-1,2
 257 530 257 530 225.5 543.5 c 128,-1,3
 194 557 194 557 170 582 c 0,4,5
 116 637 116 637 116 718 c 128,-1,6
 116 799 116 799 174 860 c 0,7,8
 232 922 232 922 309 922 c 0,9,10
 434 922 434 922 474 810 c 0,11,12
 486 774 486 774 486 733.5 c 128,-1,13
 486 693 486 693 471 656 c 128,-1,14
 456 619 456 619 429 590.5 c 128,-1,0
 402 562 402 562 366 546 c 128,-1,1
EndSplineSet
EndChar

StartChar: radical
Encoding: 8730 8730 419
Width: 1602
GlyphClass: 2
Flags: W
LayerCount: 2
Fore
SplineSet
84 604 m 1,0,-1
 267 716 l 1,1,-1
 461 716 l 1,2,-1
 774 -56 l 1,3,-1
 1366 1870 l 1,4,-1
 1582 1870 l 1,5,-1
 870 -354 l 1,6,-1
 696 -354 l 1,7,-1
 304 522 l 1,8,-1
 179 446 l 1,9,-1
 84 604 l 1,0,-1
EndSplineSet
EndChar

StartChar: infinity
Encoding: 8734 8734 420
Width: 1804
GlyphClass: 2
Flags: W
LayerCount: 2
Fore
SplineSet
903 467 m 1,0,1
 729 226 729 226 481 226 c 0,2,3
 301 226 301 226 186 337 c 0,4,5
 74 445 74 445 74 602 c 0,6,7
 74 800 74 800 198 909 c 0,8,9
 311 1008 311 1008 494 1008 c 0,10,11
 690 1008 690 1008 830 850 c 0,12,13
 871 805 871 805 907 757 c 1,14,15
 1089 1008 1089 1008 1320 1008 c 0,16,17
 1518 1008 1518 1008 1630 890 c 0,18,19
 1730 786 1730 786 1730 631 c 0,20,21
 1730 438 1730 438 1616 332 c 0,22,23
 1502 225 1502 225 1300 225 c 0,24,25
 1112 225 1112 225 976 376 c 0,26,27
 937 420 937 420 903 467 c 1,0,1
407 396 m 0,28,29
 453 378 453 378 505.5 378 c 128,-1,30
 558 378 558 378 596.5 394.5 c 128,-1,31
 635 411 635 411 670 441 c 0,32,33
 733 494 733 494 804 600 c 1,34,35
 775 641 775 641 744.5 684.5 c 128,-1,36
 714 728 714 728 679 764 c 0,37,38
 600 844 600 844 525 844 c 128,-1,39
 450 844 450 844 404.5 824.5 c 128,-1,40
 359 805 359 805 330 772 c 1,41,42
 272 709 272 709 272 613 c 0,43,44
 272 451 272 451 407 396 c 0,28,29
1008 623 m 1,45,46
 1091 507 1091 507 1139 465 c 0,47,48
 1239 377 1239 377 1334 377 c 0,49,50
 1428 377 1428 377 1483 450 c 0,51,52
 1532 515 1532 515 1532 613.5 c 128,-1,53
 1532 712 1532 712 1470 774 c 1,54,55
 1403 843 1403 843 1290 843 c 0,56,57
 1175 843 1175 843 1071 712 c 0,58,59
 1039 671 1039 671 1008 623 c 1,45,46
EndSplineSet
EndChar

StartChar: integral
Encoding: 8747 8747 421
Width: 1042
GlyphClass: 2
Flags: W
LayerCount: 2
Fore
SplineSet
194 -261 m 1,0,1
 287 -354 287 -354 412 -354 c 0,2,3
 532 -354 532 -354 584 -291 c 0,4,5
 643 -218 643 -218 643 -30 c 0,6,7
 643 183 643 183 440 576 c 0,8,9
 319 810 319 810 278 953 c 128,-1,10
 237 1096 237 1096 237 1201.5 c 128,-1,11
 237 1307 237 1307 263 1395.5 c 128,-1,12
 289 1484 289 1484 342 1548 c 0,13,14
 456 1685 456 1685 666 1685 c 0,15,16
 880 1685 880 1685 964 1558 c 1,17,-1
 852 1445 l 1,18,19
 830 1476 830 1476 781 1498.5 c 128,-1,20
 732 1521 732 1521 661 1521 c 0,21,22
 438 1521 438 1521 438 1202 c 0,23,24
 438 1037 438 1037 543 801 c 0,25,26
 588 700 588 700 640 598 c 128,-1,27
 692 496 692 496 737 392 c 0,28,29
 842 149 842 149 842 -30 c 0,30,31
 842 -379 842 -379 629 -481 c 0,32,33
 552 -518 552 -518 467.5 -518 c 128,-1,34
 383 -518 383 -518 332.5 -507.5 c 128,-1,35
 282 -497 282 -497 239 -480 c 0,36,37
 157 -447 157 -447 111 -395 c 1,38,-1
 194 -261 l 1,0,1
EndSplineSet
EndChar

StartChar: notequal
Encoding: 8800 8800 423
Width: 1399
GlyphClass: 2
Flags: W
LayerCount: 2
Fore
SplineSet
494 433 m 1,0,-1
 242 433 l 1,1,-1
 242 599 l 1,2,-1
 555 599 l 1,3,-1
 681 949 l 1,4,-1
 242 949 l 1,5,-1
 242 1116 l 1,6,-1
 743 1116 l 1,7,-1
 820 1319 l 1,8,-1
 992 1319 l 1,9,-1
 915 1116 l 1,10,-1
 1157 1116 l 1,11,-1
 1157 949 l 1,12,-1
 852 949 l 1,13,-1
 726 599 l 1,14,-1
 1157 599 l 1,15,-1
 1157 433 l 1,16,-1
 664 433 l 1,17,-1
 580 203 l 1,18,-1
 410 203 l 1,19,-1
 494 433 l 1,0,-1
EndSplineSet
EndChar

StartChar: lessequal
Encoding: 8804 8804 424
Width: 1368
GlyphClass: 2
Flags: W
LayerCount: 2
Fore
SplineSet
160 850 m 1,0,-1
 1130 1281 l 1,1,-1
 1130 1079 l 1,2,-1
 389 773 l 1,3,-1
 1130 467 l 1,4,-1
 1130 264 l 1,5,-1
 160 695 l 1,6,-1
 160 850 l 1,0,-1
160 162 m 1,7,-1
 1130 162 l 1,8,-1
 1130 0 l 1,9,-1
 160 0 l 1,10,-1
 160 162 l 1,7,-1
EndSplineSet
EndChar

StartChar: lozenge
Encoding: 9674 9674 426
Width: 1175
GlyphClass: 2
Flags: W
LayerCount: 2
Fore
SplineSet
50 762 m 1,0,-1
 50 775 l 1,1,-1
 586 1516 l 1,2,-1
 590 1516 l 1,3,-1
 1125 775 l 1,4,-1
 1125 762 l 1,5,-1
 590 0 l 1,6,-1
 585 0 l 1,7,-1
 50 762 l 1,0,-1
589 293 m 1,8,-1
 908 769 l 1,9,-1
 908 772 l 1,10,-1
 589 1226 l 1,11,-1
 586 1226 l 1,12,-1
 267 772 l 1,13,-1
 267 766 l 1,14,-1
 586 293 l 1,15,-1
 589 293 l 1,8,-1
EndSplineSet
EndChar

StartChar: commaaccent
Encoding: 63171 63171 427
Width: 358
GlyphClass: 2
Flags: W
LayerCount: 2
Fore
SplineSet
68 -493 m 1,0,1
 107 -446 107 -446 107 -348 c 0,2,3
 107 -281 107 -281 68 -240 c 0,4,5
 55 -227 55 -227 40 -224 c 1,6,-1
 40 -174 l 1,7,-1
 198 -82 l 1,8,9
 261 -114 261 -114 286 -217 c 0,10,11
 295 -252 295 -252 295 -299 c 128,-1,12
 295 -346 295 -346 280 -390 c 128,-1,13
 265 -434 265 -434 242 -468 c 1,14,15
 199 -536 199 -536 143 -560 c 1,16,-1
 68 -519 l 1,17,-1
 68 -493 l 1,0,1
EndSplineSet
EndChar

StartChar: grave.cap
Encoding: 65537 -1 433
Width: 597
GlyphClass: 2
Flags: W
LayerCount: 2
Fore
SplineSet
447 1573 m 1,0,1
 347 1606 347 1606 166 1744 c 0,2,3
 85 1806 85 1806 50 1847 c 1,4,-1
 196 1980 l 1,5,6
 201 1964 201 1964 343.5 1838.5 c 128,-1,7
 486 1713 486 1713 511.5 1689.5 c 128,-1,8
 537 1666 537 1666 539 1665 c 1,9,-1
 447 1573 l 1,0,1
EndSplineSet
EndChar

StartChar: dieresis.cap
Encoding: 65538 -1 434
Width: 893
GlyphClass: 2
Flags: W
LayerCount: 2
Fore
SplineSet
743 1678 m 128,-1,1
 714 1667 714 1667 684.5 1667 c 128,-1,2
 655 1667 655 1667 630 1676 c 128,-1,3
 605 1685 605 1685 586 1702 c 1,4,5
 546 1741 546 1741 546 1787 c 128,-1,6
 546 1833 546 1833 559.5 1861.5 c 128,-1,7
 573 1890 573 1890 596 1910 c 1,8,9
 644 1955 644 1955 692 1955 c 128,-1,10
 740 1955 740 1955 766 1944.5 c 128,-1,11
 792 1934 792 1934 809 1916 c 0,12,13
 843 1880 843 1880 843 1833 c 128,-1,14
 843 1786 843 1786 830 1758 c 128,-1,15
 817 1730 817 1730 794.5 1709.5 c 128,-1,0
 772 1689 772 1689 743 1678 c 128,-1,1
247 1678 m 128,-1,17
 218 1667 218 1667 188.5 1667 c 128,-1,18
 159 1667 159 1667 134 1676 c 128,-1,19
 109 1685 109 1685 90 1702 c 1,20,21
 50 1741 50 1741 50 1787 c 128,-1,22
 50 1833 50 1833 63.5 1861.5 c 128,-1,23
 77 1890 77 1890 100 1910 c 1,24,25
 148 1955 148 1955 196 1955 c 128,-1,26
 244 1955 244 1955 270 1944.5 c 128,-1,27
 296 1934 296 1934 313 1916 c 0,28,29
 347 1880 347 1880 347 1833 c 128,-1,30
 347 1786 347 1786 334 1758 c 128,-1,31
 321 1730 321 1730 298.5 1709.5 c 128,-1,16
 276 1689 276 1689 247 1678 c 128,-1,17
EndSplineSet
EndChar

StartChar: circumflex.cap
Encoding: 65539 -1 435
Width: 815
GlyphClass: 2
Flags: W
LayerCount: 2
Fore
SplineSet
48 1689 m 1,0,-1
 307 1990 l 1,1,-1
 504 1990 l 1,2,-1
 766 1692 l 1,3,-1
 622 1632 l 1,4,-1
 406 1834 l 1,5,-1
 185 1632 l 1,6,-1
 48 1689 l 1,0,-1
EndSplineSet
EndChar

StartChar: caron.cap
Encoding: 65540 -1 436
Width: 759
GlyphClass: 2
Flags: W
LayerCount: 2
Fore
SplineSet
48 1930 m 1,0,-1
 176 1990 l 1,1,-1
 392 1816 l 1,2,-1
 613 1990 l 1,3,-1
 733 1933 l 1,4,-1
 491 1670 l 1,5,-1
 294 1670 l 1,6,-1
 48 1930 l 1,0,-1
EndSplineSet
EndChar

StartChar: breve.cap
Encoding: 65541 -1 437
Width: 781
GlyphClass: 2
Flags: W
LayerCount: 2
Fore
SplineSet
539.5 1659.5 m 128,-1,1
 473 1632 473 1632 388.5 1632 c 128,-1,2
 304 1632 304 1632 238 1660 c 0,3,4
 104 1715 104 1715 63 1841 c 0,5,6
 48 1888 48 1888 48 1921 c 128,-1,7
 48 1954 48 1954 49 1970 c 1,8,-1
 202 1970 l 1,9,10
 202 1851 202 1851 311 1816 c 0,11,12
 343 1805 343 1805 390.5 1805 c 128,-1,13
 438 1805 438 1805 471 1815.5 c 128,-1,14
 504 1826 504 1826 525.5 1842.5 c 128,-1,15
 547 1859 547 1859 558.5 1878.5 c 128,-1,16
 570 1898 570 1898 576 1916 c 0,17,18
 584 1945 584 1945 584 1970 c 1,19,-1
 733 1970 l 1,20,21
 734 1955 734 1955 734 1922 c 128,-1,22
 734 1889 734 1889 715 1834.5 c 128,-1,23
 696 1780 696 1780 651 1733.5 c 128,-1,0
 606 1687 606 1687 539.5 1659.5 c 128,-1,1
EndSplineSet
EndChar

StartChar: ring.cap
Encoding: 65542 -1 438
Width: 731
GlyphClass: 2
Flags: W
LayerCount: 2
Fore
SplineSet
484.5 1450.5 m 128,-1,1
 426 1435 426 1435 358 1435 c 128,-1,2
 290 1435 290 1435 231 1454 c 0,3,4
 111 1493 111 1493 66 1594 c 0,5,6
 45 1643 45 1643 45 1674 c 0,7,8
 45 1778 45 1778 74 1828.5 c 128,-1,9
 103 1879 103 1879 148 1910 c 0,10,11
 233 1970 233 1970 365 1970 c 0,12,13
 595 1970 595 1970 664 1820 c 0,14,15
 686 1771 686 1771 685.5 1703 c 128,-1,16
 685 1635 685 1635 658.5 1583.5 c 128,-1,17
 632 1532 632 1532 587.5 1499 c 128,-1,0
 543 1466 543 1466 484.5 1450.5 c 128,-1,1
363 1561 m 1,18,19
 532 1561 532 1561 532 1706 c 0,20,21
 532 1807 532 1807 430 1837 c 0,22,23
 399 1846 399 1846 366 1846 c 128,-1,24
 333 1846 333 1846 304 1840 c 128,-1,25
 275 1834 275 1834 252 1818 c 0,26,27
 201 1783 201 1783 201 1712 c 128,-1,28
 201 1641 201 1641 244.5 1602 c 128,-1,29
 288 1563 288 1563 363 1561 c 1,18,19
EndSplineSet
EndChar

StartChar: tilde.cap
Encoding: 65543 -1 439
Width: 927
GlyphClass: 2
Flags: W
LayerCount: 2
Fore
SplineSet
307 1805 m 0,0,1
 222 1805 222 1805 132 1703 c 1,2,-1
 47 1771 l 1,3,4
 82 1855 82 1855 166 1911 c 0,5,6
 247 1966 247 1966 317.5 1966 c 128,-1,7
 388 1966 388 1966 426.5 1944.5 c 128,-1,8
 465 1923 465 1923 495.5 1896.5 c 128,-1,9
 526 1870 526 1870 554 1848.5 c 128,-1,10
 582 1827 582 1827 620 1827 c 0,11,12
 708 1827 708 1827 795 1926 c 1,13,-1
 881 1855 l 1,14,15
 846 1771 846 1771 762 1716 c 1,16,17
 680 1661 680 1661 600 1661 c 0,18,19
 532 1661 532 1661 492.5 1687.5 c 128,-1,20
 453 1714 453 1714 433 1733 c 128,-1,21
 413 1752 413 1752 394 1768 c 0,22,23
 350 1805 350 1805 307 1805 c 0,0,1
EndSplineSet
EndChar

StartChar: hungarumlaut.cap
Encoding: 65544 -1 440
Width: 962
GlyphClass: 2
Flags: W
LayerCount: 2
Fore
SplineSet
56 1710 m 1,0,1
 61 1715 61 1715 97.5 1766 c 128,-1,2
 134 1817 134 1817 160 1853 c 128,-1,3
 186 1889 186 1889 208 1920 c 0,4,5
 261 1994 261 1994 263 2000 c 1,6,-1
 435 1913 l 1,7,8
 287 1706 287 1706 180 1641 c 1,9,-1
 56 1710 l 1,0,1
524 1710 m 1,10,11
 532 1718 532 1718 569 1766 c 128,-1,12
 606 1814 606 1814 633 1849 c 128,-1,13
 660 1884 660 1884 684 1915 c 0,14,15
 739 1988 739 1988 740 1992 c 1,16,-1
 903 1904 l 1,17,18
 764 1708 764 1708 649 1641 c 1,19,-1
 524 1710 l 1,10,11
EndSplineSet
EndChar

StartChar: acute.cap
Encoding: 65545 -1 441
Width: 597
GlyphClass: 2
Flags: W
LayerCount: 2
Fore
SplineSet
58 1665 m 1,0,1
 60 1666 60 1666 85.5 1689.5 c 128,-1,2
 111 1713 111 1713 149 1746.5 c 128,-1,3
 187 1780 187 1780 230.5 1819.5 c 128,-1,4
 274 1859 274 1859 312 1894 c 0,5,6
 399 1974 399 1974 401 1980 c 1,7,-1
 547 1847 l 1,8,9
 428 1724 428 1724 248 1620 c 0,10,11
 194 1588 194 1588 151 1573 c 1,12,-1
 58 1665 l 1,0,1
EndSplineSet
EndChar

StartChar: dotaccent.cap
Encoding: 65546 -1 442
Width: 403
GlyphClass: 2
Flags: W
LayerCount: 2
Fore
SplineSet
251 1680 m 128,-1,1
 222 1669 222 1669 192.5 1669 c 128,-1,2
 163 1669 163 1669 137.5 1678 c 128,-1,3
 112 1687 112 1687 93 1704 c 0,4,5
 52 1742 52 1742 52 1788.5 c 128,-1,6
 52 1835 52 1835 66 1863 c 128,-1,7
 80 1891 80 1891 102 1912 c 0,8,9
 151 1956 151 1956 199.5 1956 c 128,-1,10
 248 1956 248 1956 274 1946 c 128,-1,11
 300 1936 300 1936 317 1918 c 0,12,13
 351 1882 351 1882 351 1835 c 128,-1,14
 351 1788 351 1788 337.5 1760 c 128,-1,15
 324 1732 324 1732 302 1711.5 c 128,-1,0
 280 1691 280 1691 251 1680 c 128,-1,1
EndSplineSet
EndChar

StartChar: macron.cap
Encoding: 65547 -1 443
Width: 647
GlyphClass: 2
Flags: W
LayerCount: 2
Fore
SplineSet
50 1891 m 1,0,-1
 597 1891 l 1,1,-1
 597 1729 l 1,2,-1
 50 1729 l 1,3,-1
 50 1891 l 1,0,-1
EndSplineSet
EndChar

StartChar: caronvertical
Encoding: 65548 -1 444
Width: 339
GlyphClass: 2
Flags: W
LayerCount: 2
Fore
SplineSet
240 1687 m 1,0,1
 302 1629 302 1629 302 1446 c 0,2,3
 302 1258 302 1258 222 1106 c 0,4,5
 199 1063 199 1063 175 1034 c 1,6,-1
 65 1068 l 1,7,-1
 57 1096 l 1,8,9
 65 1124 65 1124 73.5 1149.5 c 128,-1,10
 82 1175 82 1175 89 1206 c 0,11,12
 105 1278 105 1278 105 1345.5 c 128,-1,13
 105 1413 105 1413 100 1443.5 c 128,-1,14
 95 1474 95 1474 87 1502 c 0,15,16
 71 1556 71 1556 50 1585 c 1,17,-1
 64 1632 l 1,18,-1
 240 1687 l 1,0,1
EndSplineSet
EndChar

